solid OpenSCAD_Model
  facet normal -1 0 0
    outer loop
      vertex 0 0 0
      vertex 0 20 3
      vertex 0 20 0
    endloop
  endfacet
  facet normal -1 -0 0
    outer loop
      vertex 0 20 3
      vertex 0 0 0
      vertex 0 0 3
    endloop
  endfacet
  facet normal 0 0 1
    outer loop
      vertex 45.2 20 3
      vertex 41.7 17 3
      vertex 45.2 0 3
    endloop
  endfacet
  facet normal 0 0 1
    outer loop
      vertex 45.2 20 3
      vertex 38.2 17 3
      vertex 41.7 17 3
    endloop
  endfacet
  facet normal 0 0 1
    outer loop
      vertex 38.2 17 3
      vertex 32.95 10.35 3
      vertex 38.2 3 3
    endloop
  endfacet
  facet normal 0 0 1
    outer loop
      vertex 38.2 17 3
      vertex 27.35 10.35 3
      vertex 32.95 10.35 3
    endloop
  endfacet
  facet normal 0 0 1
    outer loop
      vertex 27.35 10.35 3
      vertex 17.85 10.35 3
      vertex 27.35 4.75 3
    endloop
  endfacet
  facet normal 0 0 1
    outer loop
      vertex 38.2 17 3
      vertex 17.85 10.35 3
      vertex 27.35 10.35 3
    endloop
  endfacet
  facet normal 0 0 1
    outer loop
      vertex 7 17 3
      vertex 38.2 17 3
      vertex 45.2 20 3
    endloop
  endfacet
  facet normal 0 0 1
    outer loop
      vertex 38.2 17 3
      vertex 7 17 3
      vertex 17.85 10.35 3
    endloop
  endfacet
  facet normal 0 0 1
    outer loop
      vertex 7 3 3
      vertex 12.25 10.35 3
      vertex 7 17 3
    endloop
  endfacet
  facet normal 0 0 1
    outer loop
      vertex 17.85 10.35 3
      vertex 7 17 3
      vertex 12.25 10.35 3
    endloop
  endfacet
  facet normal -0 0 1
    outer loop
      vertex 0 20 3
      vertex 7 17 3
      vertex 45.2 20 3
    endloop
  endfacet
  facet normal 0 0 1
    outer loop
      vertex 3.5 17 3
      vertex 0 20 3
      vertex 3.5 3 3
    endloop
  endfacet
  facet normal 0 0 1
    outer loop
      vertex 7 17 3
      vertex 0 20 3
      vertex 3.5 17 3
    endloop
  endfacet
  facet normal -0 0 1
    outer loop
      vertex 41.7 3 3
      vertex 45.2 0 3
      vertex 41.7 17 3
    endloop
  endfacet
  facet normal -0 0 1
    outer loop
      vertex 38.2 3 3
      vertex 45.2 0 3
      vertex 41.7 3 3
    endloop
  endfacet
  facet normal -0 0 1
    outer loop
      vertex 32.95 4.75 3
      vertex 38.2 3 3
      vertex 32.95 10.35 3
    endloop
  endfacet
  facet normal -0 0 1
    outer loop
      vertex 27.35 4.75 3
      vertex 38.2 3 3
      vertex 32.95 4.75 3
    endloop
  endfacet
  facet normal 0 0 1
    outer loop
      vertex 38.2 3 3
      vertex 27.35 4.75 3
      vertex 45.2 0 3
    endloop
  endfacet
  facet normal 0 0 1
    outer loop
      vertex 17.85 4.75 3
      vertex 27.35 4.75 3
      vertex 17.85 10.35 3
    endloop
  endfacet
  facet normal -0 0 1
    outer loop
      vertex 17.85 4.75 3
      vertex 45.2 0 3
      vertex 27.35 4.75 3
    endloop
  endfacet
  facet normal 0 0 1
    outer loop
      vertex 7 3 3
      vertex 17.85 4.75 3
      vertex 12.25 4.75 3
    endloop
  endfacet
  facet normal 0 0 1
    outer loop
      vertex 12.25 10.35 3
      vertex 7 3 3
      vertex 12.25 4.75 3
    endloop
  endfacet
  facet normal 0 0 1
    outer loop
      vertex 0 0 3
      vertex 17.85 4.75 3
      vertex 7 3 3
    endloop
  endfacet
  facet normal 0 0 1
    outer loop
      vertex 0 0 3
      vertex 7 3 3
      vertex 3.5 3 3
    endloop
  endfacet
  facet normal 0 0 1
    outer loop
      vertex 17.85 4.75 3
      vertex 0 0 3
      vertex 45.2 0 3
    endloop
  endfacet
  facet normal 0 0 1
    outer loop
      vertex 0 0 3
      vertex 3.5 3 3
      vertex 0 20 3
    endloop
  endfacet
  facet normal 1 -0 0
    outer loop
      vertex 45.2 0 3
      vertex 45.2 20 0
      vertex 45.2 20 3
    endloop
  endfacet
  facet normal 1 0 0
    outer loop
      vertex 45.2 20 0
      vertex 45.2 0 3
      vertex 45.2 0 0
    endloop
  endfacet
  facet normal 0 1 -0
    outer loop
      vertex 45.2 20 0
      vertex 0 20 3
      vertex 45.2 20 3
    endloop
  endfacet
  facet normal 0 1 0
    outer loop
      vertex 0 20 3
      vertex 45.2 20 0
      vertex 0 20 0
    endloop
  endfacet
  facet normal 0 0 -1
    outer loop
      vertex 45.2 0 0
      vertex 41.7 3 0
      vertex 45.2 20 0
    endloop
  endfacet
  facet normal 0 0 -1
    outer loop
      vertex 45.2 0 0
      vertex 38.2 3 0
      vertex 41.7 3 0
    endloop
  endfacet
  facet normal 0 0 -1
    outer loop
      vertex 31.6382 7.738 0
      vertex 38.2 3 0
      vertex 31.65 7.55 0
    endloop
  endfacet
  facet normal 0 0 -1
    outer loop
      vertex 38.2 3 0
      vertex 31.6382 7.362 0
      vertex 31.65 7.55 0
    endloop
  endfacet
  facet normal 0 0 -1
    outer loop
      vertex 38.2 3 0
      vertex 31.6029 7.17696 0
      vertex 31.6382 7.362 0
    endloop
  endfacet
  facet normal 0 0 -1
    outer loop
      vertex 38.2 3 0
      vertex 31.5447 6.99781 0
      vertex 31.6029 7.17696 0
    endloop
  endfacet
  facet normal 0 0 -1
    outer loop
      vertex 38.2 3 0
      vertex 31.4645 6.82737 0
      vertex 31.5447 6.99781 0
    endloop
  endfacet
  facet normal 0 0 -1
    outer loop
      vertex 38.2 3 0
      vertex 31.3635 6.66832 0
      vertex 31.4645 6.82737 0
    endloop
  endfacet
  facet normal 0 0 -1
    outer loop
      vertex 38.2 3 0
      vertex 31.2435 6.52318 0
      vertex 31.3635 6.66832 0
    endloop
  endfacet
  facet normal 0 0 -1
    outer loop
      vertex 38.2 3 0
      vertex 31.1061 6.39423 0
      vertex 31.2435 6.52318 0
    endloop
  endfacet
  facet normal 0 0 -1
    outer loop
      vertex 38.2 3 0
      vertex 30.9537 6.28351 0
      vertex 31.1061 6.39423 0
    endloop
  endfacet
  facet normal 0 0 -1
    outer loop
      vertex 38.2 3 0
      vertex 30.7887 6.19276 0
      vertex 30.9537 6.28351 0
    endloop
  endfacet
  facet normal 0 0 -1
    outer loop
      vertex 38.2 3 0
      vertex 30.6135 6.12341 0
      vertex 30.7887 6.19276 0
    endloop
  endfacet
  facet normal 0 0 -1
    outer loop
      vertex 7 3 0
      vertex 38.2 3 0
      vertex 45.2 0 0
    endloop
  endfacet
  facet normal 0 0 -1
    outer loop
      vertex 38.2 3 0
      vertex 30.4311 6.07657 0
      vertex 30.6135 6.12341 0
    endloop
  endfacet
  facet normal 0 0 -1
    outer loop
      vertex 38.2 3 0
      vertex 30.2442 6.05296 0
      vertex 30.4311 6.07657 0
    endloop
  endfacet
  facet normal 0 0 -1
    outer loop
      vertex 38.2 3 0
      vertex 30.0558 6.05296 0
      vertex 30.2442 6.05296 0
    endloop
  endfacet
  facet normal 0 0 -1
    outer loop
      vertex 38.2 3 0
      vertex 29.8689 6.07657 0
      vertex 30.0558 6.05296 0
    endloop
  endfacet
  facet normal 0 0 -1
    outer loop
      vertex 38.2 3 0
      vertex 7 3 0
      vertex 29.8689 6.07657 0
    endloop
  endfacet
  facet normal 0 0 -1
    outer loop
      vertex 28.6618 7.362 0
      vertex 16.55 7.55 0
      vertex 28.65 7.55 0
    endloop
  endfacet
  facet normal 0 0 -1
    outer loop
      vertex 16.5382 7.362 0
      vertex 28.6618 7.362 0
      vertex 28.6971 7.17696 0
    endloop
  endfacet
  facet normal 0 0 -1
    outer loop
      vertex 16.5029 7.17696 0
      vertex 28.6971 7.17696 0
      vertex 28.7553 6.99781 0
    endloop
  endfacet
  facet normal 0 0 -1
    outer loop
      vertex 16.4447 6.99781 0
      vertex 28.7553 6.99781 0
      vertex 28.8355 6.82737 0
    endloop
  endfacet
  facet normal 0 0 -1
    outer loop
      vertex 16.3645 6.82737 0
      vertex 28.8355 6.82737 0
      vertex 28.9365 6.66832 0
    endloop
  endfacet
  facet normal 0 0 -1
    outer loop
      vertex 16.2635 6.66832 0
      vertex 28.9365 6.66832 0
      vertex 29.0565 6.52318 0
    endloop
  endfacet
  facet normal 0 0 -1
    outer loop
      vertex 16.1435 6.52318 0
      vertex 29.0565 6.52318 0
      vertex 29.1939 6.39423 0
    endloop
  endfacet
  facet normal 0 0 -1
    outer loop
      vertex 16.0061 6.39423 0
      vertex 29.1939 6.39423 0
      vertex 29.3463 6.28351 0
    endloop
  endfacet
  facet normal 0 0 -1
    outer loop
      vertex 15.8537 6.28351 0
      vertex 29.3463 6.28351 0
      vertex 29.5113 6.19276 0
    endloop
  endfacet
  facet normal 0 0 -1
    outer loop
      vertex 15.6887 6.19276 0
      vertex 29.5113 6.19276 0
      vertex 29.6865 6.12341 0
    endloop
  endfacet
  facet normal 0 -0 -1
    outer loop
      vertex 15.3311 6.07657 0
      vertex 29.8689 6.07657 0
      vertex 7 3 0
    endloop
  endfacet
  facet normal 0 0 -1
    outer loop
      vertex 28.6618 7.362 0
      vertex 16.5382 7.362 0
      vertex 16.55 7.55 0
    endloop
  endfacet
  facet normal 0 0 -1
    outer loop
      vertex 28.6971 7.17696 0
      vertex 16.5029 7.17696 0
      vertex 16.5382 7.362 0
    endloop
  endfacet
  facet normal 0 0 -1
    outer loop
      vertex 28.7553 6.99781 0
      vertex 16.4447 6.99781 0
      vertex 16.5029 7.17696 0
    endloop
  endfacet
  facet normal 0 0 -1
    outer loop
      vertex 28.8355 6.82737 0
      vertex 16.3645 6.82737 0
      vertex 16.4447 6.99781 0
    endloop
  endfacet
  facet normal 0 0 -1
    outer loop
      vertex 28.9365 6.66832 0
      vertex 16.2635 6.66832 0
      vertex 16.3645 6.82737 0
    endloop
  endfacet
  facet normal 0 0 -1
    outer loop
      vertex 29.0565 6.52318 0
      vertex 16.1435 6.52318 0
      vertex 16.2635 6.66832 0
    endloop
  endfacet
  facet normal 0 0 -1
    outer loop
      vertex 29.1939 6.39423 0
      vertex 16.0061 6.39423 0
      vertex 16.1435 6.52318 0
    endloop
  endfacet
  facet normal 0 0 -1
    outer loop
      vertex 29.3463 6.28351 0
      vertex 15.8537 6.28351 0
      vertex 16.0061 6.39423 0
    endloop
  endfacet
  facet normal 0 0 -1
    outer loop
      vertex 29.5113 6.19276 0
      vertex 15.6887 6.19276 0
      vertex 15.8537 6.28351 0
    endloop
  endfacet
  facet normal 0 0 -1
    outer loop
      vertex 29.6865 6.12341 0
      vertex 15.5135 6.12341 0
      vertex 15.6887 6.19276 0
    endloop
  endfacet
  facet normal -0 0 -1
    outer loop
      vertex 29.6865 6.12341 0
      vertex 15.3311 6.07657 0
      vertex 15.5135 6.12341 0
    endloop
  endfacet
  facet normal 0 0 -1
    outer loop
      vertex 29.8689 6.07657 0
      vertex 15.3311 6.07657 0
      vertex 29.6865 6.12341 0
    endloop
  endfacet
  facet normal 0 0 -1
    outer loop
      vertex 15.3311 6.07657 0
      vertex 7 3 0
      vertex 15.1442 6.05296 0
    endloop
  endfacet
  facet normal -0 0 -1
    outer loop
      vertex 15.1442 6.05296 0
      vertex 7 3 0
      vertex 14.9558 6.05296 0
    endloop
  endfacet
  facet normal -0 0 -1
    outer loop
      vertex 13.5618 7.362 0
      vertex 7 3 0
      vertex 13.55 7.55 0
    endloop
  endfacet
  facet normal -0 0 -1
    outer loop
      vertex 13.5971 7.17696 0
      vertex 7 3 0
      vertex 13.5618 7.362 0
    endloop
  endfacet
  facet normal -0 0 -1
    outer loop
      vertex 13.6553 6.99781 0
      vertex 7 3 0
      vertex 13.5971 7.17696 0
    endloop
  endfacet
  facet normal -0 0 -1
    outer loop
      vertex 13.7355 6.82737 0
      vertex 7 3 0
      vertex 13.6553 6.99781 0
    endloop
  endfacet
  facet normal -0 0 -1
    outer loop
      vertex 13.8365 6.66832 0
      vertex 7 3 0
      vertex 13.7355 6.82737 0
    endloop
  endfacet
  facet normal -0 0 -1
    outer loop
      vertex 13.9565 6.52318 0
      vertex 7 3 0
      vertex 13.8365 6.66832 0
    endloop
  endfacet
  facet normal -0 0 -1
    outer loop
      vertex 14.0939 6.39423 0
      vertex 7 3 0
      vertex 13.9565 6.52318 0
    endloop
  endfacet
  facet normal -0 0 -1
    outer loop
      vertex 14.2463 6.28351 0
      vertex 7 3 0
      vertex 14.0939 6.39423 0
    endloop
  endfacet
  facet normal -0 0 -1
    outer loop
      vertex 14.4113 6.19276 0
      vertex 7 3 0
      vertex 14.2463 6.28351 0
    endloop
  endfacet
  facet normal -0 0 -1
    outer loop
      vertex 14.5865 6.12341 0
      vertex 7 3 0
      vertex 14.4113 6.19276 0
    endloop
  endfacet
  facet normal -0 0 -1
    outer loop
      vertex 14.7689 6.07657 0
      vertex 7 3 0
      vertex 14.5865 6.12341 0
    endloop
  endfacet
  facet normal -0 0 -1
    outer loop
      vertex 14.9558 6.05296 0
      vertex 7 3 0
      vertex 14.7689 6.07657 0
    endloop
  endfacet
  facet normal 0 0 -1
    outer loop
      vertex 0 0 0
      vertex 7 3 0
      vertex 45.2 0 0
    endloop
  endfacet
  facet normal -0 0 -1
    outer loop
      vertex 3.5 3 0
      vertex 0 0 0
      vertex 3.5 17 0
    endloop
  endfacet
  facet normal -0 0 -1
    outer loop
      vertex 7 3 0
      vertex 0 0 0
      vertex 3.5 3 0
    endloop
  endfacet
  facet normal 0 0 -1
    outer loop
      vertex 41.7 17 0
      vertex 45.2 20 0
      vertex 41.7 3 0
    endloop
  endfacet
  facet normal 0 0 -1
    outer loop
      vertex 38.2 17 0
      vertex 45.2 20 0
      vertex 41.7 17 0
    endloop
  endfacet
  facet normal 0 0 -1
    outer loop
      vertex 31.6029 7.92303 0
      vertex 38.2 3 0
      vertex 31.6382 7.738 0
    endloop
  endfacet
  facet normal 0 0 -1
    outer loop
      vertex 38.2 3 0
      vertex 31.6029 7.92303 0
      vertex 38.2 17 0
    endloop
  endfacet
  facet normal 0 0 -1
    outer loop
      vertex 31.5447 8.10219 0
      vertex 38.2 17 0
      vertex 31.6029 7.92303 0
    endloop
  endfacet
  facet normal 0 0 -1
    outer loop
      vertex 31.4645 8.27263 0
      vertex 38.2 17 0
      vertex 31.5447 8.10219 0
    endloop
  endfacet
  facet normal 0 0 -1
    outer loop
      vertex 31.3635 8.43168 0
      vertex 38.2 17 0
      vertex 31.4645 8.27263 0
    endloop
  endfacet
  facet normal 0 0 -1
    outer loop
      vertex 31.2435 8.57682 0
      vertex 38.2 17 0
      vertex 31.3635 8.43168 0
    endloop
  endfacet
  facet normal 0 0 -1
    outer loop
      vertex 31.1061 8.70577 0
      vertex 38.2 17 0
      vertex 31.2435 8.57682 0
    endloop
  endfacet
  facet normal 0 0 -1
    outer loop
      vertex 30.9537 8.81649 0
      vertex 38.2 17 0
      vertex 31.1061 8.70577 0
    endloop
  endfacet
  facet normal 0 0 -1
    outer loop
      vertex 30.7887 8.90724 0
      vertex 38.2 17 0
      vertex 30.9537 8.81649 0
    endloop
  endfacet
  facet normal 0 0 -1
    outer loop
      vertex 30.6135 8.97658 0
      vertex 38.2 17 0
      vertex 30.7887 8.90724 0
    endloop
  endfacet
  facet normal 0 0 -1
    outer loop
      vertex 30.4311 9.02343 0
      vertex 38.2 17 0
      vertex 30.6135 8.97658 0
    endloop
  endfacet
  facet normal 0 0 -1
    outer loop
      vertex 30.2442 9.04704 0
      vertex 38.2 17 0
      vertex 30.4311 9.02343 0
    endloop
  endfacet
  facet normal 0 0 -1
    outer loop
      vertex 30.0558 9.04704 0
      vertex 38.2 17 0
      vertex 30.2442 9.04704 0
    endloop
  endfacet
  facet normal 0 0 -1
    outer loop
      vertex 29.8689 9.02343 0
      vertex 38.2 17 0
      vertex 30.0558 9.04704 0
    endloop
  endfacet
  facet normal 0 0 -1
    outer loop
      vertex 29.6865 8.97658 0
      vertex 38.2 17 0
      vertex 29.8689 9.02343 0
    endloop
  endfacet
  facet normal 0 0 -1
    outer loop
      vertex 29.5113 8.90724 0
      vertex 38.2 17 0
      vertex 29.6865 8.97658 0
    endloop
  endfacet
  facet normal 0 0 -1
    outer loop
      vertex 15.6887 8.90724 0
      vertex 29.5113 8.90724 0
      vertex 29.3463 8.81649 0
    endloop
  endfacet
  facet normal 0 0 -1
    outer loop
      vertex 15.8537 8.81649 0
      vertex 29.3463 8.81649 0
      vertex 29.1939 8.70577 0
    endloop
  endfacet
  facet normal 0 0 -1
    outer loop
      vertex 16.55 7.55 0
      vertex 28.6618 7.738 0
      vertex 28.65 7.55 0
    endloop
  endfacet
  facet normal 0 0 -1
    outer loop
      vertex 16.5382 7.738 0
      vertex 28.6618 7.738 0
      vertex 16.55 7.55 0
    endloop
  endfacet
  facet normal 0 0 -1
    outer loop
      vertex 28.6618 7.738 0
      vertex 16.5382 7.738 0
      vertex 28.6971 7.92303 0
    endloop
  endfacet
  facet normal 0 0 -1
    outer loop
      vertex 16.5029 7.92303 0
      vertex 28.6971 7.92303 0
      vertex 16.5382 7.738 0
    endloop
  endfacet
  facet normal 0 0 -1
    outer loop
      vertex 28.6971 7.92303 0
      vertex 16.5029 7.92303 0
      vertex 28.7553 8.10219 0
    endloop
  endfacet
  facet normal 0 0 -1
    outer loop
      vertex 16.4447 8.10219 0
      vertex 28.7553 8.10219 0
      vertex 16.5029 7.92303 0
    endloop
  endfacet
  facet normal 0 0 -1
    outer loop
      vertex 28.7553 8.10219 0
      vertex 16.4447 8.10219 0
      vertex 28.8355 8.27263 0
    endloop
  endfacet
  facet normal 0 0 -1
    outer loop
      vertex 16.3645 8.27263 0
      vertex 28.8355 8.27263 0
      vertex 16.4447 8.10219 0
    endloop
  endfacet
  facet normal 0 0 -1
    outer loop
      vertex 28.8355 8.27263 0
      vertex 16.3645 8.27263 0
      vertex 28.9365 8.43168 0
    endloop
  endfacet
  facet normal 0 0 -1
    outer loop
      vertex 16.2635 8.43168 0
      vertex 28.9365 8.43168 0
      vertex 16.3645 8.27263 0
    endloop
  endfacet
  facet normal 0 0 -1
    outer loop
      vertex 28.9365 8.43168 0
      vertex 16.2635 8.43168 0
      vertex 29.0565 8.57682 0
    endloop
  endfacet
  facet normal 0 0 -1
    outer loop
      vertex 16.1435 8.57682 0
      vertex 29.0565 8.57682 0
      vertex 16.2635 8.43168 0
    endloop
  endfacet
  facet normal 0 0 -1
    outer loop
      vertex 29.0565 8.57682 0
      vertex 16.1435 8.57682 0
      vertex 29.1939 8.70577 0
    endloop
  endfacet
  facet normal 0 0 -1
    outer loop
      vertex 16.0061 8.70577 0
      vertex 29.1939 8.70577 0
      vertex 16.1435 8.57682 0
    endloop
  endfacet
  facet normal 0 0 -1
    outer loop
      vertex 15.8537 8.81649 0
      vertex 29.1939 8.70577 0
      vertex 16.0061 8.70577 0
    endloop
  endfacet
  facet normal 0 0 -1
    outer loop
      vertex 29.3463 8.81649 0
      vertex 15.8537 8.81649 0
      vertex 15.6887 8.90724 0
    endloop
  endfacet
  facet normal 0 0 -1
    outer loop
      vertex 29.5113 8.90724 0
      vertex 15.6887 8.90724 0
      vertex 38.2 17 0
    endloop
  endfacet
  facet normal 0 0 -1
    outer loop
      vertex 7 17 0
      vertex 38.2 17 0
      vertex 15.6887 8.90724 0
    endloop
  endfacet
  facet normal 0 0 -1
    outer loop
      vertex 7 17 0
      vertex 15.6887 8.90724 0
      vertex 15.5135 8.97658 0
    endloop
  endfacet
  facet normal 0 0 -1
    outer loop
      vertex 7 17 0
      vertex 15.5135 8.97658 0
      vertex 15.3311 9.02343 0
    endloop
  endfacet
  facet normal 0 0 -1
    outer loop
      vertex 7 17 0
      vertex 15.3311 9.02343 0
      vertex 15.1442 9.04704 0
    endloop
  endfacet
  facet normal 0 0 -1
    outer loop
      vertex 7 17 0
      vertex 15.1442 9.04704 0
      vertex 14.9558 9.04704 0
    endloop
  endfacet
  facet normal 0 0 -1
    outer loop
      vertex 7 17 0
      vertex 14.9558 9.04704 0
      vertex 14.7689 9.02343 0
    endloop
  endfacet
  facet normal 0 0 -1
    outer loop
      vertex 7 17 0
      vertex 14.7689 9.02343 0
      vertex 14.5865 8.97658 0
    endloop
  endfacet
  facet normal 0 0 -1
    outer loop
      vertex 7 3 0
      vertex 13.5618 7.738 0
      vertex 13.55 7.55 0
    endloop
  endfacet
  facet normal 0 0 -1
    outer loop
      vertex 7 3 0
      vertex 13.5971 7.92303 0
      vertex 13.5618 7.738 0
    endloop
  endfacet
  facet normal 0 0 -1
    outer loop
      vertex 7 17 0
      vertex 13.5971 7.92303 0
      vertex 7 3 0
    endloop
  endfacet
  facet normal 0 0 -1
    outer loop
      vertex 13.5971 7.92303 0
      vertex 7 17 0
      vertex 13.6553 8.10219 0
    endloop
  endfacet
  facet normal 0 0 -1
    outer loop
      vertex 13.6553 8.10219 0
      vertex 7 17 0
      vertex 13.7355 8.27263 0
    endloop
  endfacet
  facet normal 0 0 -1
    outer loop
      vertex 13.7355 8.27263 0
      vertex 7 17 0
      vertex 13.8365 8.43168 0
    endloop
  endfacet
  facet normal 0 0 -1
    outer loop
      vertex 13.8365 8.43168 0
      vertex 7 17 0
      vertex 13.9565 8.57682 0
    endloop
  endfacet
  facet normal 0 0 -1
    outer loop
      vertex 13.9565 8.57682 0
      vertex 7 17 0
      vertex 14.0939 8.70577 0
    endloop
  endfacet
  facet normal 0 0 -1
    outer loop
      vertex 7 17 0
      vertex 14.2463 8.81649 0
      vertex 14.0939 8.70577 0
    endloop
  endfacet
  facet normal 0 0 -1
    outer loop
      vertex 7 17 0
      vertex 14.4113 8.90724 0
      vertex 14.2463 8.81649 0
    endloop
  endfacet
  facet normal 0 0 -1
    outer loop
      vertex 7 17 0
      vertex 14.5865 8.97658 0
      vertex 14.4113 8.90724 0
    endloop
  endfacet
  facet normal 0 0 -1
    outer loop
      vertex 38.2 17 0
      vertex 7 17 0
      vertex 45.2 20 0
    endloop
  endfacet
  facet normal 0 0 -1
    outer loop
      vertex 0 20 0
      vertex 7 17 0
      vertex 3.5 17 0
    endloop
  endfacet
  facet normal 0 0 -1
    outer loop
      vertex 7 17 0
      vertex 0 20 0
      vertex 45.2 20 0
    endloop
  endfacet
  facet normal 0 0 -1
    outer loop
      vertex 0 20 0
      vertex 3.5 17 0
      vertex 0 0 0
    endloop
  endfacet
  facet normal 0 -1 0
    outer loop
      vertex 0 0 0
      vertex 45.2 0 3
      vertex 0 0 3
    endloop
  endfacet
  facet normal 0 -1 -0
    outer loop
      vertex 45.2 0 3
      vertex 0 0 0
      vertex 45.2 0 0
    endloop
  endfacet
  facet normal 1 -0 0
    outer loop
      vertex 3.5 3 3
      vertex 3.5 17 0
      vertex 3.5 17 3
    endloop
  endfacet
  facet normal 1 0 0
    outer loop
      vertex 3.5 17 0
      vertex 3.5 3 3
      vertex 3.5 3 0
    endloop
  endfacet
  facet normal -1 0 0
    outer loop
      vertex 7 3 0
      vertex 7 17 3
      vertex 7 17 0
    endloop
  endfacet
  facet normal -1 -0 0
    outer loop
      vertex 7 17 3
      vertex 7 3 0
      vertex 7 3 3
    endloop
  endfacet
  facet normal 0 1 -0
    outer loop
      vertex 7 3 0
      vertex 3.5 3 3
      vertex 7 3 3
    endloop
  endfacet
  facet normal 0 1 0
    outer loop
      vertex 3.5 3 3
      vertex 7 3 0
      vertex 3.5 3 0
    endloop
  endfacet
  facet normal 0 -1 0
    outer loop
      vertex 3.5 17 0
      vertex 7 17 3
      vertex 3.5 17 3
    endloop
  endfacet
  facet normal 0 -1 -0
    outer loop
      vertex 7 17 3
      vertex 3.5 17 0
      vertex 7 17 0
    endloop
  endfacet
  facet normal 1 -0 0
    outer loop
      vertex 38.2 3 3
      vertex 38.2 17 0
      vertex 38.2 17 3
    endloop
  endfacet
  facet normal 1 0 0
    outer loop
      vertex 38.2 17 0
      vertex 38.2 3 3
      vertex 38.2 3 0
    endloop
  endfacet
  facet normal -1 0 0
    outer loop
      vertex 41.7 3 0
      vertex 41.7 17 3
      vertex 41.7 17 0
    endloop
  endfacet
  facet normal -1 -0 0
    outer loop
      vertex 41.7 17 3
      vertex 41.7 3 0
      vertex 41.7 3 3
    endloop
  endfacet
  facet normal 0 1 -0
    outer loop
      vertex 41.7 3 0
      vertex 38.2 3 3
      vertex 41.7 3 3
    endloop
  endfacet
  facet normal 0 1 0
    outer loop
      vertex 38.2 3 3
      vertex 41.7 3 0
      vertex 38.2 3 0
    endloop
  endfacet
  facet normal 0 -1 0
    outer loop
      vertex 38.2 17 0
      vertex 41.7 17 3
      vertex 38.2 17 3
    endloop
  endfacet
  facet normal 0 -1 -0
    outer loop
      vertex 41.7 17 3
      vertex 38.2 17 0
      vertex 41.7 17 0
    endloop
  endfacet
  facet normal 0.951057 -0.309015 0
    outer loop
      vertex 13.5971 7.92303 1.5
      vertex 13.6553 8.10219 0
      vertex 13.6553 8.10219 1.5
    endloop
  endfacet
  facet normal 0.951057 -0.309015 0
    outer loop
      vertex 13.6553 8.10219 0
      vertex 13.5971 7.92303 1.5
      vertex 13.5971 7.92303 0
    endloop
  endfacet
  facet normal -0.844328 -0.535827 0
    outer loop
      vertex 16.3645 8.27263 0
      vertex 16.2635 8.43168 1.5
      vertex 16.2635 8.43168 0
    endloop
  endfacet
  facet normal -0.844328 -0.535827 0
    outer loop
      vertex 16.2635 8.43168 1.5
      vertex 16.3645 8.27263 0
      vertex 16.3645 8.27263 1.5
    endloop
  endfacet
  facet normal -0.368126 -0.929776 0
    outer loop
      vertex 15.5135 8.97658 0
      vertex 15.6887 8.90724 1.5
      vertex 15.5135 8.97658 1.5
    endloop
  endfacet
  facet normal -0.368126 -0.929776 -0
    outer loop
      vertex 15.6887 8.90724 1.5
      vertex 15.5135 8.97658 0
      vertex 15.6887 8.90724 0
    endloop
  endfacet
  facet normal 0.368125 -0.929776 0
    outer loop
      vertex 14.4113 8.90724 0
      vertex 14.5865 8.97658 1.5
      vertex 14.4113 8.90724 1.5
    endloop
  endfacet
  facet normal 0.368125 -0.929776 0
    outer loop
      vertex 14.5865 8.97658 1.5
      vertex 14.4113 8.90724 0
      vertex 14.5865 8.97658 0
    endloop
  endfacet
  facet normal 0.904826 -0.425781 0
    outer loop
      vertex 13.6553 8.10219 1.5
      vertex 13.7355 8.27263 0
      vertex 13.7355 8.27263 1.5
    endloop
  endfacet
  facet normal 0.904826 -0.425781 0
    outer loop
      vertex 13.7355 8.27263 0
      vertex 13.6553 8.10219 1.5
      vertex 13.6553 8.10219 0
    endloop
  endfacet
  facet normal -0.998027 0.062788 0
    outer loop
      vertex 16.5382 7.362 0
      vertex 16.55 7.55 1.5
      vertex 16.55 7.55 0
    endloop
  endfacet
  facet normal -0.998027 0.062788 0
    outer loop
      vertex 16.55 7.55 1.5
      vertex 16.5382 7.362 0
      vertex 16.5382 7.362 1.5
    endloop
  endfacet
  facet normal -0.982287 -0.187381 0
    outer loop
      vertex 16.5382 7.738 0
      vertex 16.5029 7.92303 1.5
      vertex 16.5029 7.92303 0
    endloop
  endfacet
  facet normal -0.982287 -0.187381 0
    outer loop
      vertex 16.5029 7.92303 1.5
      vertex 16.5382 7.738 0
      vertex 16.5382 7.738 1.5
    endloop
  endfacet
  facet normal -0.481754 -0.876307 0
    outer loop
      vertex 15.6887 8.90724 0
      vertex 15.8537 8.81649 1.5
      vertex 15.6887 8.90724 1.5
    endloop
  endfacet
  facet normal -0.481754 -0.876307 -0
    outer loop
      vertex 15.8537 8.81649 1.5
      vertex 15.6887 8.90724 0
      vertex 15.8537 8.81649 0
    endloop
  endfacet
  facet normal 0.982287 -0.187381 0
    outer loop
      vertex 13.5618 7.738 1.5
      vertex 13.5971 7.92303 0
      vertex 13.5971 7.92303 1.5
    endloop
  endfacet
  facet normal 0.982287 -0.187381 0
    outer loop
      vertex 13.5971 7.92303 0
      vertex 13.5618 7.738 1.5
      vertex 13.5618 7.738 0
    endloop
  endfacet
  facet normal 0.770513 -0.637424 0
    outer loop
      vertex 13.8365 8.43168 1.5
      vertex 13.9565 8.57682 0
      vertex 13.9565 8.57682 1.5
    endloop
  endfacet
  facet normal 0.770513 -0.637424 0
    outer loop
      vertex 13.9565 8.57682 0
      vertex 13.8365 8.43168 1.5
      vertex 13.8365 8.43168 0
    endloop
  endfacet
  facet normal 0.125333 -0.992115 0
    outer loop
      vertex 14.7689 9.02343 0
      vertex 14.9558 9.04704 1.5
      vertex 14.7689 9.02343 1.5
    endloop
  endfacet
  facet normal 0.125333 -0.992115 0
    outer loop
      vertex 14.9558 9.04704 1.5
      vertex 14.7689 9.02343 0
      vertex 14.9558 9.04704 0
    endloop
  endfacet
  facet normal 0.684548 -0.728968 0
    outer loop
      vertex 13.9565 8.57682 0
      vertex 14.0939 8.70577 1.5
      vertex 13.9565 8.57682 1.5
    endloop
  endfacet
  facet normal 0.684548 -0.728968 0
    outer loop
      vertex 14.0939 8.70577 1.5
      vertex 13.9565 8.57682 0
      vertex 14.0939 8.70577 0
    endloop
  endfacet
  facet normal -0.68455 -0.728966 0
    outer loop
      vertex 16.0061 8.70577 0
      vertex 16.1435 8.57682 1.5
      vertex 16.0061 8.70577 1.5
    endloop
  endfacet
  facet normal -0.68455 -0.728966 -0
    outer loop
      vertex 16.1435 8.57682 1.5
      vertex 16.0061 8.70577 0
      vertex 16.1435 8.57682 0
    endloop
  endfacet
  facet normal 0 -1 0
    outer loop
      vertex 14.9558 9.04704 0
      vertex 15.1442 9.04704 1.5
      vertex 14.9558 9.04704 1.5
    endloop
  endfacet
  facet normal 0 -1 -0
    outer loop
      vertex 15.1442 9.04704 1.5
      vertex 14.9558 9.04704 0
      vertex 15.1442 9.04704 0
    endloop
  endfacet
  facet normal -0.248692 -0.968583 0
    outer loop
      vertex 15.3311 9.02343 0
      vertex 15.5135 8.97658 1.5
      vertex 15.3311 9.02343 1.5
    endloop
  endfacet
  facet normal -0.248692 -0.968583 -0
    outer loop
      vertex 15.5135 8.97658 1.5
      vertex 15.3311 9.02343 0
      vertex 15.5135 8.97658 0
    endloop
  endfacet
  facet normal -0.587783 -0.809019 0
    outer loop
      vertex 15.8537 8.81649 0
      vertex 16.0061 8.70577 1.5
      vertex 15.8537 8.81649 1.5
    endloop
  endfacet
  facet normal -0.587783 -0.809019 -0
    outer loop
      vertex 16.0061 8.70577 1.5
      vertex 15.8537 8.81649 0
      vertex 16.0061 8.70577 0
    endloop
  endfacet
  facet normal 0.998027 -0.0627931 0
    outer loop
      vertex 13.55 7.55 1.5
      vertex 13.5618 7.738 0
      vertex 13.5618 7.738 1.5
    endloop
  endfacet
  facet normal 0.998027 -0.0627931 0
    outer loop
      vertex 13.5618 7.738 0
      vertex 13.55 7.55 1.5
      vertex 13.55 7.55 0
    endloop
  endfacet
  facet normal 0.844328 -0.535827 0
    outer loop
      vertex 13.7355 8.27263 1.5
      vertex 13.8365 8.43168 0
      vertex 13.8365 8.43168 1.5
    endloop
  endfacet
  facet normal 0.844328 -0.535827 0
    outer loop
      vertex 13.8365 8.43168 0
      vertex 13.7355 8.27263 1.5
      vertex 13.7355 8.27263 0
    endloop
  endfacet
  facet normal 0.248692 -0.968583 0
    outer loop
      vertex 14.5865 8.97658 0
      vertex 14.7689 9.02343 1.5
      vertex 14.5865 8.97658 1.5
    endloop
  endfacet
  facet normal 0.248692 -0.968583 0
    outer loop
      vertex 14.7689 9.02343 1.5
      vertex 14.5865 8.97658 0
      vertex 14.7689 9.02343 0
    endloop
  endfacet
  facet normal 0.587783 -0.809019 0
    outer loop
      vertex 14.0939 8.70577 0
      vertex 14.2463 8.81649 1.5
      vertex 14.0939 8.70577 1.5
    endloop
  endfacet
  facet normal 0.587783 -0.809019 0
    outer loop
      vertex 14.2463 8.81649 1.5
      vertex 14.0939 8.70577 0
      vertex 14.2463 8.81649 0
    endloop
  endfacet
  facet normal 0.481756 -0.876306 0
    outer loop
      vertex 14.2463 8.81649 0
      vertex 14.4113 8.90724 1.5
      vertex 14.2463 8.81649 1.5
    endloop
  endfacet
  facet normal 0.481756 -0.876306 0
    outer loop
      vertex 14.4113 8.90724 1.5
      vertex 14.2463 8.81649 0
      vertex 14.4113 8.90724 0
    endloop
  endfacet
  facet normal -0.998027 -0.062788 0
    outer loop
      vertex 16.55 7.55 0
      vertex 16.5382 7.738 1.5
      vertex 16.5382 7.738 0
    endloop
  endfacet
  facet normal -0.998027 -0.062788 0
    outer loop
      vertex 16.5382 7.738 1.5
      vertex 16.55 7.55 0
      vertex 16.55 7.55 1.5
    endloop
  endfacet
  facet normal -0.982287 0.187382 0
    outer loop
      vertex 16.5029 7.17696 0
      vertex 16.5382 7.362 1.5
      vertex 16.5382 7.362 0
    endloop
  endfacet
  facet normal -0.982287 0.187382 0
    outer loop
      vertex 16.5382 7.362 1.5
      vertex 16.5029 7.17696 0
      vertex 16.5029 7.17696 1.5
    endloop
  endfacet
  facet normal 0 1 -0
    outer loop
      vertex 15.1442 6.05296 0
      vertex 14.9558 6.05296 1.5
      vertex 15.1442 6.05296 1.5
    endloop
  endfacet
  facet normal 0 1 0
    outer loop
      vertex 14.9558 6.05296 1.5
      vertex 15.1442 6.05296 0
      vertex 14.9558 6.05296 0
    endloop
  endfacet
  facet normal 0.998027 0.0627931 0
    outer loop
      vertex 13.5618 7.362 1.5
      vertex 13.55 7.55 0
      vertex 13.55 7.55 1.5
    endloop
  endfacet
  facet normal 0.998027 0.0627931 0
    outer loop
      vertex 13.55 7.55 0
      vertex 13.5618 7.362 1.5
      vertex 13.5618 7.362 0
    endloop
  endfacet
  facet normal 0.904826 0.425781 0
    outer loop
      vertex 13.7355 6.82737 1.5
      vertex 13.6553 6.99781 0
      vertex 13.6553 6.99781 1.5
    endloop
  endfacet
  facet normal 0.904826 0.425781 0
    outer loop
      vertex 13.6553 6.99781 0
      vertex 13.7355 6.82737 1.5
      vertex 13.7355 6.82737 0
    endloop
  endfacet
  facet normal -0.125333 0.992115 0
    outer loop
      vertex 15.3311 6.07657 0
      vertex 15.1442 6.05296 1.5
      vertex 15.3311 6.07657 1.5
    endloop
  endfacet
  facet normal -0.125333 0.992115 0
    outer loop
      vertex 15.1442 6.05296 1.5
      vertex 15.3311 6.07657 0
      vertex 15.1442 6.05296 0
    endloop
  endfacet
  facet normal -0.368122 0.929777 0
    outer loop
      vertex 15.6887 6.19276 0
      vertex 15.5135 6.12341 1.5
      vertex 15.6887 6.19276 1.5
    endloop
  endfacet
  facet normal -0.368122 0.929777 0
    outer loop
      vertex 15.5135 6.12341 1.5
      vertex 15.6887 6.19276 0
      vertex 15.5135 6.12341 0
    endloop
  endfacet
  facet normal -0.904828 -0.425777 0
    outer loop
      vertex 16.4447 8.10219 0
      vertex 16.3645 8.27263 1.5
      vertex 16.3645 8.27263 0
    endloop
  endfacet
  facet normal -0.904828 -0.425777 0
    outer loop
      vertex 16.3645 8.27263 1.5
      vertex 16.4447 8.10219 0
      vertex 16.4447 8.10219 1.5
    endloop
  endfacet
  facet normal -0.951056 -0.309019 0
    outer loop
      vertex 16.5029 7.92303 0
      vertex 16.4447 8.10219 1.5
      vertex 16.4447 8.10219 0
    endloop
  endfacet
  facet normal -0.951056 -0.309019 0
    outer loop
      vertex 16.4447 8.10219 1.5
      vertex 16.5029 7.92303 0
      vertex 16.5029 7.92303 1.5
    endloop
  endfacet
  facet normal -0.770511 -0.637427 0
    outer loop
      vertex 16.2635 8.43168 0
      vertex 16.1435 8.57682 1.5
      vertex 16.1435 8.57682 0
    endloop
  endfacet
  facet normal -0.770511 -0.637427 0
    outer loop
      vertex 16.1435 8.57682 1.5
      vertex 16.2635 8.43168 0
      vertex 16.2635 8.43168 1.5
    endloop
  endfacet
  facet normal -0.125333 -0.992115 0
    outer loop
      vertex 15.1442 9.04704 0
      vertex 15.3311 9.02343 1.5
      vertex 15.1442 9.04704 1.5
    endloop
  endfacet
  facet normal -0.125333 -0.992115 -0
    outer loop
      vertex 15.3311 9.02343 1.5
      vertex 15.1442 9.04704 0
      vertex 15.3311 9.02343 0
    endloop
  endfacet
  facet normal -0.68455 0.728966 0
    outer loop
      vertex 16.1435 6.52318 0
      vertex 16.0061 6.39423 1.5
      vertex 16.1435 6.52318 1.5
    endloop
  endfacet
  facet normal -0.68455 0.728966 0
    outer loop
      vertex 16.0061 6.39423 1.5
      vertex 16.1435 6.52318 0
      vertex 16.0061 6.39423 0
    endloop
  endfacet
  facet normal -0.770511 0.637427 0
    outer loop
      vertex 16.1435 6.52318 0
      vertex 16.2635 6.66832 1.5
      vertex 16.2635 6.66832 0
    endloop
  endfacet
  facet normal -0.770511 0.637427 0
    outer loop
      vertex 16.2635 6.66832 1.5
      vertex 16.1435 6.52318 0
      vertex 16.1435 6.52318 1.5
    endloop
  endfacet
  facet normal -0.904828 0.425777 0
    outer loop
      vertex 16.3645 6.82737 0
      vertex 16.4447 6.99781 1.5
      vertex 16.4447 6.99781 0
    endloop
  endfacet
  facet normal -0.904828 0.425777 0
    outer loop
      vertex 16.4447 6.99781 1.5
      vertex 16.3645 6.82737 0
      vertex 16.3645 6.82737 1.5
    endloop
  endfacet
  facet normal -0.844326 0.535829 0
    outer loop
      vertex 16.2635 6.66832 0
      vertex 16.3645 6.82737 1.5
      vertex 16.3645 6.82737 0
    endloop
  endfacet
  facet normal -0.844326 0.535829 0
    outer loop
      vertex 16.3645 6.82737 1.5
      vertex 16.2635 6.66832 0
      vertex 16.2635 6.66832 1.5
    endloop
  endfacet
  facet normal 0.844326 0.535829 0
    outer loop
      vertex 13.8365 6.66832 1.5
      vertex 13.7355 6.82737 0
      vertex 13.7355 6.82737 1.5
    endloop
  endfacet
  facet normal 0.844326 0.535829 0
    outer loop
      vertex 13.7355 6.82737 0
      vertex 13.8365 6.66832 1.5
      vertex 13.8365 6.66832 0
    endloop
  endfacet
  facet normal 0.951058 0.309013 0
    outer loop
      vertex 13.6553 6.99781 1.5
      vertex 13.5971 7.17696 0
      vertex 13.5971 7.17696 1.5
    endloop
  endfacet
  facet normal 0.951058 0.309013 0
    outer loop
      vertex 13.5971 7.17696 0
      vertex 13.6553 6.99781 1.5
      vertex 13.6553 6.99781 0
    endloop
  endfacet
  facet normal 0.982287 0.187382 0
    outer loop
      vertex 13.5971 7.17696 1.5
      vertex 13.5618 7.362 0
      vertex 13.5618 7.362 1.5
    endloop
  endfacet
  facet normal 0.982287 0.187382 0
    outer loop
      vertex 13.5618 7.362 0
      vertex 13.5971 7.17696 1.5
      vertex 13.5971 7.17696 0
    endloop
  endfacet
  facet normal -0.248692 0.968583 0
    outer loop
      vertex 15.5135 6.12341 0
      vertex 15.3311 6.07657 1.5
      vertex 15.5135 6.12341 1.5
    endloop
  endfacet
  facet normal -0.248692 0.968583 0
    outer loop
      vertex 15.3311 6.07657 1.5
      vertex 15.5135 6.12341 0
      vertex 15.3311 6.07657 0
    endloop
  endfacet
  facet normal -0.587786 0.809016 0
    outer loop
      vertex 16.0061 6.39423 0
      vertex 15.8537 6.28351 1.5
      vertex 16.0061 6.39423 1.5
    endloop
  endfacet
  facet normal -0.587786 0.809016 0
    outer loop
      vertex 15.8537 6.28351 1.5
      vertex 16.0061 6.39423 0
      vertex 15.8537 6.28351 0
    endloop
  endfacet
  facet normal -0.481754 0.876307 0
    outer loop
      vertex 15.8537 6.28351 0
      vertex 15.6887 6.19276 1.5
      vertex 15.8537 6.28351 1.5
    endloop
  endfacet
  facet normal -0.481754 0.876307 0
    outer loop
      vertex 15.6887 6.19276 1.5
      vertex 15.8537 6.28351 0
      vertex 15.6887 6.19276 0
    endloop
  endfacet
  facet normal -0.951056 0.309018 0
    outer loop
      vertex 16.4447 6.99781 0
      vertex 16.5029 7.17696 1.5
      vertex 16.5029 7.17696 0
    endloop
  endfacet
  facet normal -0.951056 0.309018 0
    outer loop
      vertex 16.5029 7.17696 1.5
      vertex 16.4447 6.99781 0
      vertex 16.4447 6.99781 1.5
    endloop
  endfacet
  facet normal 0.36812 0.929778 -0
    outer loop
      vertex 14.5865 6.12341 0
      vertex 14.4113 6.19276 1.5
      vertex 14.5865 6.12341 1.5
    endloop
  endfacet
  facet normal 0.36812 0.929778 0
    outer loop
      vertex 14.4113 6.19276 1.5
      vertex 14.5865 6.12341 0
      vertex 14.4113 6.19276 0
    endloop
  endfacet
  facet normal 0.125333 0.992115 -0
    outer loop
      vertex 14.9558 6.05296 0
      vertex 14.7689 6.07657 1.5
      vertex 14.9558 6.05296 1.5
    endloop
  endfacet
  facet normal 0.125333 0.992115 0
    outer loop
      vertex 14.7689 6.07657 1.5
      vertex 14.9558 6.05296 0
      vertex 14.7689 6.07657 0
    endloop
  endfacet
  facet normal 0.684548 0.728968 -0
    outer loop
      vertex 14.0939 6.39423 0
      vertex 13.9565 6.52318 1.5
      vertex 14.0939 6.39423 1.5
    endloop
  endfacet
  facet normal 0.684548 0.728968 0
    outer loop
      vertex 13.9565 6.52318 1.5
      vertex 14.0939 6.39423 0
      vertex 13.9565 6.52318 0
    endloop
  endfacet
  facet normal 0.248692 0.968583 -0
    outer loop
      vertex 14.7689 6.07657 0
      vertex 14.5865 6.12341 1.5
      vertex 14.7689 6.07657 1.5
    endloop
  endfacet
  facet normal 0.248692 0.968583 0
    outer loop
      vertex 14.5865 6.12341 1.5
      vertex 14.7689 6.07657 0
      vertex 14.5865 6.12341 0
    endloop
  endfacet
  facet normal 0.770513 0.637424 0
    outer loop
      vertex 13.9565 6.52318 1.5
      vertex 13.8365 6.66832 0
      vertex 13.8365 6.66832 1.5
    endloop
  endfacet
  facet normal 0.770513 0.637424 0
    outer loop
      vertex 13.8365 6.66832 0
      vertex 13.9565 6.52318 1.5
      vertex 13.9565 6.52318 0
    endloop
  endfacet
  facet normal 0.481756 0.876306 -0
    outer loop
      vertex 14.4113 6.19276 0
      vertex 14.2463 6.28351 1.5
      vertex 14.4113 6.19276 1.5
    endloop
  endfacet
  facet normal 0.481756 0.876306 0
    outer loop
      vertex 14.2463 6.28351 1.5
      vertex 14.4113 6.19276 0
      vertex 14.2463 6.28351 0
    endloop
  endfacet
  facet normal 0.587786 0.809016 -0
    outer loop
      vertex 14.2463 6.28351 0
      vertex 14.0939 6.39423 1.5
      vertex 14.2463 6.28351 1.5
    endloop
  endfacet
  facet normal 0.587786 0.809016 0
    outer loop
      vertex 14.0939 6.39423 1.5
      vertex 14.2463 6.28351 0
      vertex 14.0939 6.39423 0
    endloop
  endfacet
  facet normal 1 -0 0
    outer loop
      vertex 12.25 4.75 3
      vertex 12.25 10.35 1.5
      vertex 12.25 10.35 3
    endloop
  endfacet
  facet normal 1 0 0
    outer loop
      vertex 12.25 10.35 1.5
      vertex 12.25 4.75 3
      vertex 12.25 4.75 1.5
    endloop
  endfacet
  facet normal -1 0 0
    outer loop
      vertex 17.85 4.75 1.5
      vertex 17.85 10.35 3
      vertex 17.85 10.35 1.5
    endloop
  endfacet
  facet normal -1 -0 0
    outer loop
      vertex 17.85 10.35 3
      vertex 17.85 4.75 1.5
      vertex 17.85 4.75 3
    endloop
  endfacet
  facet normal 0 0 1
    outer loop
      vertex 17.85 10.35 1.5
      vertex 16.55 7.55 1.5
      vertex 17.85 4.75 1.5
    endloop
  endfacet
  facet normal 0 0 1
    outer loop
      vertex 17.85 10.35 1.5
      vertex 16.5382 7.738 1.5
      vertex 16.55 7.55 1.5
    endloop
  endfacet
  facet normal 0 0 1
    outer loop
      vertex 17.85 10.35 1.5
      vertex 16.5029 7.92303 1.5
      vertex 16.5382 7.738 1.5
    endloop
  endfacet
  facet normal 0 0 1
    outer loop
      vertex 17.85 10.35 1.5
      vertex 16.4447 8.10219 1.5
      vertex 16.5029 7.92303 1.5
    endloop
  endfacet
  facet normal 0 0 1
    outer loop
      vertex 17.85 10.35 1.5
      vertex 16.3645 8.27263 1.5
      vertex 16.4447 8.10219 1.5
    endloop
  endfacet
  facet normal 0 0 1
    outer loop
      vertex 17.85 10.35 1.5
      vertex 16.2635 8.43168 1.5
      vertex 16.3645 8.27263 1.5
    endloop
  endfacet
  facet normal 0 0 1
    outer loop
      vertex 17.85 10.35 1.5
      vertex 16.1435 8.57682 1.5
      vertex 16.2635 8.43168 1.5
    endloop
  endfacet
  facet normal 0 0 1
    outer loop
      vertex 17.85 10.35 1.5
      vertex 16.0061 8.70577 1.5
      vertex 16.1435 8.57682 1.5
    endloop
  endfacet
  facet normal 0 0 1
    outer loop
      vertex 17.85 10.35 1.5
      vertex 15.8537 8.81649 1.5
      vertex 16.0061 8.70577 1.5
    endloop
  endfacet
  facet normal 0 0 1
    outer loop
      vertex 17.85 10.35 1.5
      vertex 15.6887 8.90724 1.5
      vertex 15.8537 8.81649 1.5
    endloop
  endfacet
  facet normal 0 0 1
    outer loop
      vertex 17.85 10.35 1.5
      vertex 15.5135 8.97658 1.5
      vertex 15.6887 8.90724 1.5
    endloop
  endfacet
  facet normal 0 0 1
    outer loop
      vertex 17.85 10.35 1.5
      vertex 15.3311 9.02343 1.5
      vertex 15.5135 8.97658 1.5
    endloop
  endfacet
  facet normal 0 0 1
    outer loop
      vertex 17.85 10.35 1.5
      vertex 15.1442 9.04704 1.5
      vertex 15.3311 9.02343 1.5
    endloop
  endfacet
  facet normal 0 0 1
    outer loop
      vertex 17.85 10.35 1.5
      vertex 14.9558 9.04704 1.5
      vertex 15.1442 9.04704 1.5
    endloop
  endfacet
  facet normal -0 0 1
    outer loop
      vertex 12.25 10.35 1.5
      vertex 14.9558 9.04704 1.5
      vertex 17.85 10.35 1.5
    endloop
  endfacet
  facet normal 0 0 1
    outer loop
      vertex 14.9558 9.04704 1.5
      vertex 12.25 10.35 1.5
      vertex 14.7689 9.02343 1.5
    endloop
  endfacet
  facet normal 0 0 1
    outer loop
      vertex 14.7689 9.02343 1.5
      vertex 12.25 10.35 1.5
      vertex 14.5865 8.97658 1.5
    endloop
  endfacet
  facet normal 0 0 1
    outer loop
      vertex 13.5618 7.738 1.5
      vertex 12.25 10.35 1.5
      vertex 13.55 7.55 1.5
    endloop
  endfacet
  facet normal 0 0 1
    outer loop
      vertex 13.5971 7.92303 1.5
      vertex 12.25 10.35 1.5
      vertex 13.5618 7.738 1.5
    endloop
  endfacet
  facet normal 0 0 1
    outer loop
      vertex 13.6553 8.10219 1.5
      vertex 12.25 10.35 1.5
      vertex 13.5971 7.92303 1.5
    endloop
  endfacet
  facet normal 0 0 1
    outer loop
      vertex 13.7355 8.27263 1.5
      vertex 12.25 10.35 1.5
      vertex 13.6553 8.10219 1.5
    endloop
  endfacet
  facet normal 0 0 1
    outer loop
      vertex 13.8365 8.43168 1.5
      vertex 12.25 10.35 1.5
      vertex 13.7355 8.27263 1.5
    endloop
  endfacet
  facet normal 0 0 1
    outer loop
      vertex 13.9565 8.57682 1.5
      vertex 12.25 10.35 1.5
      vertex 13.8365 8.43168 1.5
    endloop
  endfacet
  facet normal 0 0 1
    outer loop
      vertex 14.0939 8.70577 1.5
      vertex 12.25 10.35 1.5
      vertex 13.9565 8.57682 1.5
    endloop
  endfacet
  facet normal 0 0 1
    outer loop
      vertex 14.2463 8.81649 1.5
      vertex 12.25 10.35 1.5
      vertex 14.0939 8.70577 1.5
    endloop
  endfacet
  facet normal 0 0 1
    outer loop
      vertex 14.4113 8.90724 1.5
      vertex 12.25 10.35 1.5
      vertex 14.2463 8.81649 1.5
    endloop
  endfacet
  facet normal 0 0 1
    outer loop
      vertex 14.5865 8.97658 1.5
      vertex 12.25 10.35 1.5
      vertex 14.4113 8.90724 1.5
    endloop
  endfacet
  facet normal -0 0 1
    outer loop
      vertex 16.5382 7.362 1.5
      vertex 17.85 4.75 1.5
      vertex 16.55 7.55 1.5
    endloop
  endfacet
  facet normal -0 0 1
    outer loop
      vertex 16.5029 7.17696 1.5
      vertex 17.85 4.75 1.5
      vertex 16.5382 7.362 1.5
    endloop
  endfacet
  facet normal -0 0 1
    outer loop
      vertex 16.4447 6.99781 1.5
      vertex 17.85 4.75 1.5
      vertex 16.5029 7.17696 1.5
    endloop
  endfacet
  facet normal -0 0 1
    outer loop
      vertex 16.3645 6.82737 1.5
      vertex 17.85 4.75 1.5
      vertex 16.4447 6.99781 1.5
    endloop
  endfacet
  facet normal -0 0 1
    outer loop
      vertex 16.2635 6.66832 1.5
      vertex 17.85 4.75 1.5
      vertex 16.3645 6.82737 1.5
    endloop
  endfacet
  facet normal -0 0 1
    outer loop
      vertex 16.1435 6.52318 1.5
      vertex 17.85 4.75 1.5
      vertex 16.2635 6.66832 1.5
    endloop
  endfacet
  facet normal -0 0 1
    outer loop
      vertex 16.0061 6.39423 1.5
      vertex 17.85 4.75 1.5
      vertex 16.1435 6.52318 1.5
    endloop
  endfacet
  facet normal -0 0 1
    outer loop
      vertex 15.8537 6.28351 1.5
      vertex 17.85 4.75 1.5
      vertex 16.0061 6.39423 1.5
    endloop
  endfacet
  facet normal -0 0 1
    outer loop
      vertex 15.6887 6.19276 1.5
      vertex 17.85 4.75 1.5
      vertex 15.8537 6.28351 1.5
    endloop
  endfacet
  facet normal -0 0 1
    outer loop
      vertex 15.5135 6.12341 1.5
      vertex 17.85 4.75 1.5
      vertex 15.6887 6.19276 1.5
    endloop
  endfacet
  facet normal -0 0 1
    outer loop
      vertex 15.3311 6.07657 1.5
      vertex 17.85 4.75 1.5
      vertex 15.5135 6.12341 1.5
    endloop
  endfacet
  facet normal -0 0 1
    outer loop
      vertex 15.1442 6.05296 1.5
      vertex 17.85 4.75 1.5
      vertex 15.3311 6.07657 1.5
    endloop
  endfacet
  facet normal -0 0 1
    outer loop
      vertex 14.9558 6.05296 1.5
      vertex 17.85 4.75 1.5
      vertex 15.1442 6.05296 1.5
    endloop
  endfacet
  facet normal 0 0 1
    outer loop
      vertex 12.25 4.75 1.5
      vertex 14.9558 6.05296 1.5
      vertex 14.7689 6.07657 1.5
    endloop
  endfacet
  facet normal 0 0 1
    outer loop
      vertex 12.25 4.75 1.5
      vertex 14.7689 6.07657 1.5
      vertex 14.5865 6.12341 1.5
    endloop
  endfacet
  facet normal 0 0 1
    outer loop
      vertex 12.25 4.75 1.5
      vertex 14.5865 6.12341 1.5
      vertex 14.4113 6.19276 1.5
    endloop
  endfacet
  facet normal 0 0 1
    outer loop
      vertex 12.25 4.75 1.5
      vertex 13.55 7.55 1.5
      vertex 12.25 10.35 1.5
    endloop
  endfacet
  facet normal 0 0 1
    outer loop
      vertex 13.55 7.55 1.5
      vertex 12.25 4.75 1.5
      vertex 13.5618 7.362 1.5
    endloop
  endfacet
  facet normal 0 0 1
    outer loop
      vertex 13.5618 7.362 1.5
      vertex 12.25 4.75 1.5
      vertex 13.5971 7.17696 1.5
    endloop
  endfacet
  facet normal 0 0 1
    outer loop
      vertex 14.9558 6.05296 1.5
      vertex 12.25 4.75 1.5
      vertex 17.85 4.75 1.5
    endloop
  endfacet
  facet normal 0 0 1
    outer loop
      vertex 14.2463 6.28351 1.5
      vertex 12.25 4.75 1.5
      vertex 14.4113 6.19276 1.5
    endloop
  endfacet
  facet normal 0 0 1
    outer loop
      vertex 14.0939 6.39423 1.5
      vertex 12.25 4.75 1.5
      vertex 14.2463 6.28351 1.5
    endloop
  endfacet
  facet normal 0 0 1
    outer loop
      vertex 13.9565 6.52318 1.5
      vertex 12.25 4.75 1.5
      vertex 14.0939 6.39423 1.5
    endloop
  endfacet
  facet normal 0 0 1
    outer loop
      vertex 13.8365 6.66832 1.5
      vertex 12.25 4.75 1.5
      vertex 13.9565 6.52318 1.5
    endloop
  endfacet
  facet normal 0 0 1
    outer loop
      vertex 13.7355 6.82737 1.5
      vertex 12.25 4.75 1.5
      vertex 13.8365 6.66832 1.5
    endloop
  endfacet
  facet normal 0 0 1
    outer loop
      vertex 13.6553 6.99781 1.5
      vertex 12.25 4.75 1.5
      vertex 13.7355 6.82737 1.5
    endloop
  endfacet
  facet normal 0 0 1
    outer loop
      vertex 13.5971 7.17696 1.5
      vertex 12.25 4.75 1.5
      vertex 13.6553 6.99781 1.5
    endloop
  endfacet
  facet normal 0 1 -0
    outer loop
      vertex 17.85 4.75 1.5
      vertex 12.25 4.75 3
      vertex 17.85 4.75 3
    endloop
  endfacet
  facet normal 0 1 0
    outer loop
      vertex 12.25 4.75 3
      vertex 17.85 4.75 1.5
      vertex 12.25 4.75 1.5
    endloop
  endfacet
  facet normal 0 -1 0
    outer loop
      vertex 12.25 10.35 1.5
      vertex 17.85 10.35 3
      vertex 12.25 10.35 3
    endloop
  endfacet
  facet normal 0 -1 -0
    outer loop
      vertex 17.85 10.35 3
      vertex 12.25 10.35 1.5
      vertex 17.85 10.35 1.5
    endloop
  endfacet
  facet normal -0.998027 -0.062788 0
    outer loop
      vertex 31.65 7.55 0
      vertex 31.6382 7.738 1.5
      vertex 31.6382 7.738 0
    endloop
  endfacet
  facet normal -0.998027 -0.062788 0
    outer loop
      vertex 31.6382 7.738 1.5
      vertex 31.65 7.55 0
      vertex 31.65 7.55 1.5
    endloop
  endfacet
  facet normal 0 -1 0
    outer loop
      vertex 30.0558 9.04704 0
      vertex 30.2442 9.04704 1.5
      vertex 30.0558 9.04704 1.5
    endloop
  endfacet
  facet normal 0 -1 -0
    outer loop
      vertex 30.2442 9.04704 1.5
      vertex 30.0558 9.04704 0
      vertex 30.2442 9.04704 0
    endloop
  endfacet
  facet normal -0.68455 -0.728966 0
    outer loop
      vertex 31.1061 8.70577 0
      vertex 31.2435 8.57682 1.5
      vertex 31.1061 8.70577 1.5
    endloop
  endfacet
  facet normal -0.68455 -0.728966 -0
    outer loop
      vertex 31.2435 8.57682 1.5
      vertex 31.1061 8.70577 0
      vertex 31.2435 8.57682 0
    endloop
  endfacet
  facet normal 0.770516 -0.637421 0
    outer loop
      vertex 28.9365 8.43168 1.5
      vertex 29.0565 8.57682 0
      vertex 29.0565 8.57682 1.5
    endloop
  endfacet
  facet normal 0.770516 -0.637421 0
    outer loop
      vertex 29.0565 8.57682 0
      vertex 28.9365 8.43168 1.5
      vertex 28.9365 8.43168 0
    endloop
  endfacet
  facet normal 0.481758 -0.876304 0
    outer loop
      vertex 29.3463 8.81649 0
      vertex 29.5113 8.90724 1.5
      vertex 29.3463 8.81649 1.5
    endloop
  endfacet
  facet normal 0.481758 -0.876304 0
    outer loop
      vertex 29.5113 8.90724 1.5
      vertex 29.3463 8.81649 0
      vertex 29.5113 8.90724 0
    endloop
  endfacet
  facet normal -0.904824 -0.425785 0
    outer loop
      vertex 31.5447 8.10219 0
      vertex 31.4645 8.27263 1.5
      vertex 31.4645 8.27263 0
    endloop
  endfacet
  facet normal -0.904824 -0.425785 0
    outer loop
      vertex 31.4645 8.27263 1.5
      vertex 31.5447 8.10219 0
      vertex 31.5447 8.10219 1.5
    endloop
  endfacet
  facet normal -0.844333 -0.53582 0
    outer loop
      vertex 31.4645 8.27263 0
      vertex 31.3635 8.43168 1.5
      vertex 31.3635 8.43168 0
    endloop
  endfacet
  facet normal -0.844333 -0.53582 0
    outer loop
      vertex 31.3635 8.43168 1.5
      vertex 31.4645 8.27263 0
      vertex 31.4645 8.27263 1.5
    endloop
  endfacet
  facet normal -0.368125 -0.929776 0
    outer loop
      vertex 30.6135 8.97658 0
      vertex 30.7887 8.90724 1.5
      vertex 30.6135 8.97658 1.5
    endloop
  endfacet
  facet normal -0.368125 -0.929776 -0
    outer loop
      vertex 30.7887 8.90724 1.5
      vertex 30.6135 8.97658 0
      vertex 30.7887 8.90724 0
    endloop
  endfacet
  facet normal -0.248692 -0.968583 0
    outer loop
      vertex 30.4311 9.02343 0
      vertex 30.6135 8.97658 1.5
      vertex 30.4311 9.02343 1.5
    endloop
  endfacet
  facet normal -0.248692 -0.968583 -0
    outer loop
      vertex 30.6135 8.97658 1.5
      vertex 30.4311 9.02343 0
      vertex 30.6135 8.97658 0
    endloop
  endfacet
  facet normal -0.58778 -0.809021 0
    outer loop
      vertex 30.9537 8.81649 0
      vertex 31.1061 8.70577 1.5
      vertex 30.9537 8.81649 1.5
    endloop
  endfacet
  facet normal -0.58778 -0.809021 -0
    outer loop
      vertex 31.1061 8.70577 1.5
      vertex 30.9537 8.81649 0
      vertex 31.1061 8.70577 0
    endloop
  endfacet
  facet normal 0.951056 -0.309019 0
    outer loop
      vertex 28.6971 7.92303 1.5
      vertex 28.7553 8.10219 0
      vertex 28.7553 8.10219 1.5
    endloop
  endfacet
  facet normal 0.951056 -0.309019 0
    outer loop
      vertex 28.7553 8.10219 0
      vertex 28.6971 7.92303 1.5
      vertex 28.6971 7.92303 0
    endloop
  endfacet
  facet normal 0.904824 -0.425785 0
    outer loop
      vertex 28.7553 8.10219 1.5
      vertex 28.8355 8.27263 0
      vertex 28.8355 8.27263 1.5
    endloop
  endfacet
  facet normal 0.904824 -0.425785 0
    outer loop
      vertex 28.8355 8.27263 0
      vertex 28.7553 8.10219 1.5
      vertex 28.7553 8.10219 0
    endloop
  endfacet
  facet normal 0.982287 -0.187381 0
    outer loop
      vertex 28.6618 7.738 1.5
      vertex 28.6971 7.92303 0
      vertex 28.6971 7.92303 1.5
    endloop
  endfacet
  facet normal 0.982287 -0.187381 0
    outer loop
      vertex 28.6971 7.92303 0
      vertex 28.6618 7.738 1.5
      vertex 28.6618 7.738 0
    endloop
  endfacet
  facet normal 0.684545 -0.72897 0
    outer loop
      vertex 29.0565 8.57682 0
      vertex 29.1939 8.70577 1.5
      vertex 29.0565 8.57682 1.5
    endloop
  endfacet
  facet normal 0.684545 -0.72897 0
    outer loop
      vertex 29.1939 8.70577 1.5
      vertex 29.0565 8.57682 0
      vertex 29.1939 8.70577 0
    endloop
  endfacet
  facet normal 0.248692 -0.968583 0
    outer loop
      vertex 29.6865 8.97658 0
      vertex 29.8689 9.02343 1.5
      vertex 29.6865 8.97658 1.5
    endloop
  endfacet
  facet normal 0.248692 -0.968583 0
    outer loop
      vertex 29.8689 9.02343 1.5
      vertex 29.6865 8.97658 0
      vertex 29.8689 9.02343 0
    endloop
  endfacet
  facet normal -0.951056 0.309018 0
    outer loop
      vertex 31.5447 6.99781 0
      vertex 31.6029 7.17696 1.5
      vertex 31.6029 7.17696 0
    endloop
  endfacet
  facet normal -0.951056 0.309018 0
    outer loop
      vertex 31.6029 7.17696 1.5
      vertex 31.5447 6.99781 0
      vertex 31.5447 6.99781 1.5
    endloop
  endfacet
  facet normal -0.36812 0.929778 0
    outer loop
      vertex 30.7887 6.19276 0
      vertex 30.6135 6.12341 1.5
      vertex 30.7887 6.19276 1.5
    endloop
  endfacet
  facet normal -0.36812 0.929778 0
    outer loop
      vertex 30.6135 6.12341 1.5
      vertex 30.7887 6.19276 0
      vertex 30.6135 6.12341 0
    endloop
  endfacet
  facet normal -0.770511 0.637427 0
    outer loop
      vertex 31.2435 6.52318 0
      vertex 31.3635 6.66832 1.5
      vertex 31.3635 6.66832 0
    endloop
  endfacet
  facet normal -0.770511 0.637427 0
    outer loop
      vertex 31.3635 6.66832 1.5
      vertex 31.2435 6.52318 0
      vertex 31.2435 6.52318 1.5
    endloop
  endfacet
  facet normal -0.587784 0.809018 0
    outer loop
      vertex 31.1061 6.39423 0
      vertex 30.9537 6.28351 1.5
      vertex 31.1061 6.39423 1.5
    endloop
  endfacet
  facet normal -0.587784 0.809018 0
    outer loop
      vertex 30.9537 6.28351 1.5
      vertex 31.1061 6.39423 0
      vertex 30.9537 6.28351 0
    endloop
  endfacet
  facet normal 0.587784 0.809018 -0
    outer loop
      vertex 29.3463 6.28351 0
      vertex 29.1939 6.39423 1.5
      vertex 29.3463 6.28351 1.5
    endloop
  endfacet
  facet normal 0.587784 0.809018 0
    outer loop
      vertex 29.1939 6.39423 1.5
      vertex 29.3463 6.28351 0
      vertex 29.1939 6.39423 0
    endloop
  endfacet
  facet normal 0.248692 0.968583 -0
    outer loop
      vertex 29.8689 6.07657 0
      vertex 29.6865 6.12341 1.5
      vertex 29.8689 6.07657 1.5
    endloop
  endfacet
  facet normal 0.248692 0.968583 0
    outer loop
      vertex 29.6865 6.12341 1.5
      vertex 29.8689 6.07657 0
      vertex 29.6865 6.12341 0
    endloop
  endfacet
  facet normal 0.684545 0.72897 -0
    outer loop
      vertex 29.1939 6.39423 0
      vertex 29.0565 6.52318 1.5
      vertex 29.1939 6.39423 1.5
    endloop
  endfacet
  facet normal 0.684545 0.72897 0
    outer loop
      vertex 29.0565 6.52318 1.5
      vertex 29.1939 6.39423 0
      vertex 29.0565 6.52318 0
    endloop
  endfacet
  facet normal -0.951056 -0.309019 0
    outer loop
      vertex 31.6029 7.92303 0
      vertex 31.5447 8.10219 1.5
      vertex 31.5447 8.10219 0
    endloop
  endfacet
  facet normal -0.951056 -0.309019 0
    outer loop
      vertex 31.5447 8.10219 1.5
      vertex 31.6029 7.92303 0
      vertex 31.6029 7.92303 1.5
    endloop
  endfacet
  facet normal -0.982287 -0.187381 0
    outer loop
      vertex 31.6382 7.738 0
      vertex 31.6029 7.92303 1.5
      vertex 31.6029 7.92303 0
    endloop
  endfacet
  facet normal -0.982287 -0.187381 0
    outer loop
      vertex 31.6029 7.92303 1.5
      vertex 31.6382 7.738 0
      vertex 31.6382 7.738 1.5
    endloop
  endfacet
  facet normal -0.770511 -0.637427 0
    outer loop
      vertex 31.3635 8.43168 0
      vertex 31.2435 8.57682 1.5
      vertex 31.2435 8.57682 0
    endloop
  endfacet
  facet normal -0.770511 -0.637427 0
    outer loop
      vertex 31.2435 8.57682 1.5
      vertex 31.3635 8.43168 0
      vertex 31.3635 8.43168 1.5
    endloop
  endfacet
  facet normal -0.125333 -0.992115 0
    outer loop
      vertex 30.2442 9.04704 0
      vertex 30.4311 9.02343 1.5
      vertex 30.2442 9.04704 1.5
    endloop
  endfacet
  facet normal -0.125333 -0.992115 -0
    outer loop
      vertex 30.4311 9.02343 1.5
      vertex 30.2442 9.04704 0
      vertex 30.4311 9.02343 0
    endloop
  endfacet
  facet normal 0.998027 -0.062788 0
    outer loop
      vertex 28.65 7.55 1.5
      vertex 28.6618 7.738 0
      vertex 28.6618 7.738 1.5
    endloop
  endfacet
  facet normal 0.998027 -0.062788 0
    outer loop
      vertex 28.6618 7.738 0
      vertex 28.65 7.55 1.5
      vertex 28.65 7.55 0
    endloop
  endfacet
  facet normal 0.368125 -0.929776 0
    outer loop
      vertex 29.5113 8.90724 0
      vertex 29.6865 8.97658 1.5
      vertex 29.5113 8.90724 1.5
    endloop
  endfacet
  facet normal 0.368125 -0.929776 0
    outer loop
      vertex 29.6865 8.97658 1.5
      vertex 29.5113 8.90724 0
      vertex 29.6865 8.97658 0
    endloop
  endfacet
  facet normal 0.125333 -0.992115 0
    outer loop
      vertex 29.8689 9.02343 0
      vertex 30.0558 9.04704 1.5
      vertex 29.8689 9.02343 1.5
    endloop
  endfacet
  facet normal 0.125333 -0.992115 0
    outer loop
      vertex 30.0558 9.04704 1.5
      vertex 29.8689 9.02343 0
      vertex 30.0558 9.04704 0
    endloop
  endfacet
  facet normal -0.998027 0.062788 0
    outer loop
      vertex 31.6382 7.362 0
      vertex 31.65 7.55 1.5
      vertex 31.65 7.55 0
    endloop
  endfacet
  facet normal -0.998027 0.062788 0
    outer loop
      vertex 31.65 7.55 1.5
      vertex 31.6382 7.362 0
      vertex 31.6382 7.362 1.5
    endloop
  endfacet
  facet normal -0.125333 0.992115 0
    outer loop
      vertex 30.4311 6.07657 0
      vertex 30.2442 6.05296 1.5
      vertex 30.4311 6.07657 1.5
    endloop
  endfacet
  facet normal -0.125333 0.992115 0
    outer loop
      vertex 30.2442 6.05296 1.5
      vertex 30.4311 6.07657 0
      vertex 30.2442 6.05296 0
    endloop
  endfacet
  facet normal -0.68455 0.728966 0
    outer loop
      vertex 31.2435 6.52318 0
      vertex 31.1061 6.39423 1.5
      vertex 31.2435 6.52318 1.5
    endloop
  endfacet
  facet normal -0.68455 0.728966 0
    outer loop
      vertex 31.1061 6.39423 1.5
      vertex 31.2435 6.52318 0
      vertex 31.1061 6.39423 0
    endloop
  endfacet
  facet normal -0.844331 0.535822 0
    outer loop
      vertex 31.3635 6.66832 0
      vertex 31.4645 6.82737 1.5
      vertex 31.4645 6.82737 0
    endloop
  endfacet
  facet normal -0.844331 0.535822 0
    outer loop
      vertex 31.4645 6.82737 1.5
      vertex 31.3635 6.66832 0
      vertex 31.3635 6.66832 1.5
    endloop
  endfacet
  facet normal 0.481758 0.876304 -0
    outer loop
      vertex 29.5113 6.19276 0
      vertex 29.3463 6.28351 1.5
      vertex 29.5113 6.19276 1.5
    endloop
  endfacet
  facet normal 0.481758 0.876304 0
    outer loop
      vertex 29.3463 6.28351 1.5
      vertex 29.5113 6.19276 0
      vertex 29.3463 6.28351 0
    endloop
  endfacet
  facet normal 0.36812 0.929778 -0
    outer loop
      vertex 29.6865 6.12341 0
      vertex 29.5113 6.19276 1.5
      vertex 29.6865 6.12341 1.5
    endloop
  endfacet
  facet normal 0.36812 0.929778 0
    outer loop
      vertex 29.5113 6.19276 1.5
      vertex 29.6865 6.12341 0
      vertex 29.5113 6.19276 0
    endloop
  endfacet
  facet normal 0.125333 0.992115 -0
    outer loop
      vertex 30.0558 6.05296 0
      vertex 29.8689 6.07657 1.5
      vertex 30.0558 6.05296 1.5
    endloop
  endfacet
  facet normal 0.125333 0.992115 0
    outer loop
      vertex 29.8689 6.07657 1.5
      vertex 30.0558 6.05296 0
      vertex 29.8689 6.07657 0
    endloop
  endfacet
  facet normal 0.844331 0.535822 0
    outer loop
      vertex 28.9365 6.66832 1.5
      vertex 28.8355 6.82737 0
      vertex 28.8355 6.82737 1.5
    endloop
  endfacet
  facet normal 0.844331 0.535822 0
    outer loop
      vertex 28.8355 6.82737 0
      vertex 28.9365 6.66832 1.5
      vertex 28.9365 6.66832 0
    endloop
  endfacet
  facet normal 0.904824 0.425785 0
    outer loop
      vertex 28.8355 6.82737 1.5
      vertex 28.7553 6.99781 0
      vertex 28.7553 6.99781 1.5
    endloop
  endfacet
  facet normal 0.904824 0.425785 0
    outer loop
      vertex 28.7553 6.99781 0
      vertex 28.8355 6.82737 1.5
      vertex 28.8355 6.82737 0
    endloop
  endfacet
  facet normal 0.982287 0.187382 0
    outer loop
      vertex 28.6971 7.17696 1.5
      vertex 28.6618 7.362 0
      vertex 28.6618 7.362 1.5
    endloop
  endfacet
  facet normal 0.982287 0.187382 0
    outer loop
      vertex 28.6618 7.362 0
      vertex 28.6971 7.17696 1.5
      vertex 28.6971 7.17696 0
    endloop
  endfacet
  facet normal -0.481758 -0.876304 0
    outer loop
      vertex 30.7887 8.90724 0
      vertex 30.9537 8.81649 1.5
      vertex 30.7887 8.90724 1.5
    endloop
  endfacet
  facet normal -0.481758 -0.876304 -0
    outer loop
      vertex 30.9537 8.81649 1.5
      vertex 30.7887 8.90724 0
      vertex 30.9537 8.81649 0
    endloop
  endfacet
  facet normal 0.844333 -0.53582 0
    outer loop
      vertex 28.8355 8.27263 1.5
      vertex 28.9365 8.43168 0
      vertex 28.9365 8.43168 1.5
    endloop
  endfacet
  facet normal 0.844333 -0.53582 0
    outer loop
      vertex 28.9365 8.43168 0
      vertex 28.8355 8.27263 1.5
      vertex 28.8355 8.27263 0
    endloop
  endfacet
  facet normal 0.998027 0.062788 0
    outer loop
      vertex 28.6618 7.362 1.5
      vertex 28.65 7.55 0
      vertex 28.65 7.55 1.5
    endloop
  endfacet
  facet normal 0.998027 0.062788 0
    outer loop
      vertex 28.65 7.55 0
      vertex 28.6618 7.362 1.5
      vertex 28.6618 7.362 0
    endloop
  endfacet
  facet normal 0.58778 -0.809021 0
    outer loop
      vertex 29.1939 8.70577 0
      vertex 29.3463 8.81649 1.5
      vertex 29.1939 8.70577 1.5
    endloop
  endfacet
  facet normal 0.58778 -0.809021 0
    outer loop
      vertex 29.3463 8.81649 1.5
      vertex 29.1939 8.70577 0
      vertex 29.3463 8.81649 0
    endloop
  endfacet
  facet normal -0.248692 0.968583 0
    outer loop
      vertex 30.6135 6.12341 0
      vertex 30.4311 6.07657 1.5
      vertex 30.6135 6.12341 1.5
    endloop
  endfacet
  facet normal -0.248692 0.968583 0
    outer loop
      vertex 30.4311 6.07657 1.5
      vertex 30.6135 6.12341 0
      vertex 30.4311 6.07657 0
    endloop
  endfacet
  facet normal -0.481758 0.876304 0
    outer loop
      vertex 30.9537 6.28351 0
      vertex 30.7887 6.19276 1.5
      vertex 30.9537 6.28351 1.5
    endloop
  endfacet
  facet normal -0.481758 0.876304 0
    outer loop
      vertex 30.7887 6.19276 1.5
      vertex 30.9537 6.28351 0
      vertex 30.7887 6.19276 0
    endloop
  endfacet
  facet normal -0.982287 0.187382 0
    outer loop
      vertex 31.6029 7.17696 0
      vertex 31.6382 7.362 1.5
      vertex 31.6382 7.362 0
    endloop
  endfacet
  facet normal -0.982287 0.187382 0
    outer loop
      vertex 31.6382 7.362 1.5
      vertex 31.6029 7.17696 0
      vertex 31.6029 7.17696 1.5
    endloop
  endfacet
  facet normal -0.904824 0.425785 0
    outer loop
      vertex 31.4645 6.82737 0
      vertex 31.5447 6.99781 1.5
      vertex 31.5447 6.99781 0
    endloop
  endfacet
  facet normal -0.904824 0.425785 0
    outer loop
      vertex 31.5447 6.99781 1.5
      vertex 31.4645 6.82737 0
      vertex 31.4645 6.82737 1.5
    endloop
  endfacet
  facet normal 0 1 -0
    outer loop
      vertex 30.2442 6.05296 0
      vertex 30.0558 6.05296 1.5
      vertex 30.2442 6.05296 1.5
    endloop
  endfacet
  facet normal 0 1 0
    outer loop
      vertex 30.0558 6.05296 1.5
      vertex 30.2442 6.05296 0
      vertex 30.0558 6.05296 0
    endloop
  endfacet
  facet normal 0.770516 0.637421 0
    outer loop
      vertex 29.0565 6.52318 1.5
      vertex 28.9365 6.66832 0
      vertex 28.9365 6.66832 1.5
    endloop
  endfacet
  facet normal 0.770516 0.637421 0
    outer loop
      vertex 28.9365 6.66832 0
      vertex 29.0565 6.52318 1.5
      vertex 29.0565 6.52318 0
    endloop
  endfacet
  facet normal 0.951056 0.309018 0
    outer loop
      vertex 28.7553 6.99781 1.5
      vertex 28.6971 7.17696 0
      vertex 28.6971 7.17696 1.5
    endloop
  endfacet
  facet normal 0.951056 0.309018 0
    outer loop
      vertex 28.6971 7.17696 0
      vertex 28.7553 6.99781 1.5
      vertex 28.7553 6.99781 0
    endloop
  endfacet
  facet normal 1 -0 0
    outer loop
      vertex 27.35 4.75 3
      vertex 27.35 10.35 1.5
      vertex 27.35 10.35 3
    endloop
  endfacet
  facet normal 1 0 0
    outer loop
      vertex 27.35 10.35 1.5
      vertex 27.35 4.75 3
      vertex 27.35 4.75 1.5
    endloop
  endfacet
  facet normal -1 0 0
    outer loop
      vertex 32.95 4.75 1.5
      vertex 32.95 10.35 3
      vertex 32.95 10.35 1.5
    endloop
  endfacet
  facet normal -1 -0 0
    outer loop
      vertex 32.95 10.35 3
      vertex 32.95 4.75 1.5
      vertex 32.95 4.75 3
    endloop
  endfacet
  facet normal 0 -1 0
    outer loop
      vertex 27.35 10.35 1.5
      vertex 32.95 10.35 3
      vertex 27.35 10.35 3
    endloop
  endfacet
  facet normal 0 -1 -0
    outer loop
      vertex 32.95 10.35 3
      vertex 27.35 10.35 1.5
      vertex 32.95 10.35 1.5
    endloop
  endfacet
  facet normal 0 0 1
    outer loop
      vertex 32.95 10.35 1.5
      vertex 31.65 7.55 1.5
      vertex 32.95 4.75 1.5
    endloop
  endfacet
  facet normal 0 0 1
    outer loop
      vertex 32.95 10.35 1.5
      vertex 31.6382 7.738 1.5
      vertex 31.65 7.55 1.5
    endloop
  endfacet
  facet normal 0 0 1
    outer loop
      vertex 32.95 10.35 1.5
      vertex 31.6029 7.92303 1.5
      vertex 31.6382 7.738 1.5
    endloop
  endfacet
  facet normal 0 0 1
    outer loop
      vertex 32.95 10.35 1.5
      vertex 31.5447 8.10219 1.5
      vertex 31.6029 7.92303 1.5
    endloop
  endfacet
  facet normal 0 0 1
    outer loop
      vertex 32.95 10.35 1.5
      vertex 31.4645 8.27263 1.5
      vertex 31.5447 8.10219 1.5
    endloop
  endfacet
  facet normal 0 0 1
    outer loop
      vertex 32.95 10.35 1.5
      vertex 31.3635 8.43168 1.5
      vertex 31.4645 8.27263 1.5
    endloop
  endfacet
  facet normal 0 0 1
    outer loop
      vertex 32.95 10.35 1.5
      vertex 31.2435 8.57682 1.5
      vertex 31.3635 8.43168 1.5
    endloop
  endfacet
  facet normal 0 0 1
    outer loop
      vertex 32.95 10.35 1.5
      vertex 31.1061 8.70577 1.5
      vertex 31.2435 8.57682 1.5
    endloop
  endfacet
  facet normal 0 0 1
    outer loop
      vertex 32.95 10.35 1.5
      vertex 30.9537 8.81649 1.5
      vertex 31.1061 8.70577 1.5
    endloop
  endfacet
  facet normal 0 0 1
    outer loop
      vertex 32.95 10.35 1.5
      vertex 30.7887 8.90724 1.5
      vertex 30.9537 8.81649 1.5
    endloop
  endfacet
  facet normal 0 0 1
    outer loop
      vertex 32.95 10.35 1.5
      vertex 30.6135 8.97658 1.5
      vertex 30.7887 8.90724 1.5
    endloop
  endfacet
  facet normal 0 0 1
    outer loop
      vertex 32.95 10.35 1.5
      vertex 30.4311 9.02343 1.5
      vertex 30.6135 8.97658 1.5
    endloop
  endfacet
  facet normal 0 0 1
    outer loop
      vertex 32.95 10.35 1.5
      vertex 30.2442 9.04704 1.5
      vertex 30.4311 9.02343 1.5
    endloop
  endfacet
  facet normal 0 0 1
    outer loop
      vertex 32.95 10.35 1.5
      vertex 30.0558 9.04704 1.5
      vertex 30.2442 9.04704 1.5
    endloop
  endfacet
  facet normal -0 0 1
    outer loop
      vertex 27.35 10.35 1.5
      vertex 30.0558 9.04704 1.5
      vertex 32.95 10.35 1.5
    endloop
  endfacet
  facet normal 0 0 1
    outer loop
      vertex 30.0558 9.04704 1.5
      vertex 27.35 10.35 1.5
      vertex 29.8689 9.02343 1.5
    endloop
  endfacet
  facet normal 0 0 1
    outer loop
      vertex 29.8689 9.02343 1.5
      vertex 27.35 10.35 1.5
      vertex 29.6865 8.97658 1.5
    endloop
  endfacet
  facet normal 0 0 1
    outer loop
      vertex 28.6618 7.738 1.5
      vertex 27.35 10.35 1.5
      vertex 28.65 7.55 1.5
    endloop
  endfacet
  facet normal 0 0 1
    outer loop
      vertex 28.6971 7.92303 1.5
      vertex 27.35 10.35 1.5
      vertex 28.6618 7.738 1.5
    endloop
  endfacet
  facet normal 0 0 1
    outer loop
      vertex 28.7553 8.10219 1.5
      vertex 27.35 10.35 1.5
      vertex 28.6971 7.92303 1.5
    endloop
  endfacet
  facet normal 0 0 1
    outer loop
      vertex 28.8355 8.27263 1.5
      vertex 27.35 10.35 1.5
      vertex 28.7553 8.10219 1.5
    endloop
  endfacet
  facet normal 0 0 1
    outer loop
      vertex 28.9365 8.43168 1.5
      vertex 27.35 10.35 1.5
      vertex 28.8355 8.27263 1.5
    endloop
  endfacet
  facet normal 0 0 1
    outer loop
      vertex 29.0565 8.57682 1.5
      vertex 27.35 10.35 1.5
      vertex 28.9365 8.43168 1.5
    endloop
  endfacet
  facet normal 0 0 1
    outer loop
      vertex 29.1939 8.70577 1.5
      vertex 27.35 10.35 1.5
      vertex 29.0565 8.57682 1.5
    endloop
  endfacet
  facet normal 0 0 1
    outer loop
      vertex 29.3463 8.81649 1.5
      vertex 27.35 10.35 1.5
      vertex 29.1939 8.70577 1.5
    endloop
  endfacet
  facet normal 0 0 1
    outer loop
      vertex 29.5113 8.90724 1.5
      vertex 27.35 10.35 1.5
      vertex 29.3463 8.81649 1.5
    endloop
  endfacet
  facet normal 0 0 1
    outer loop
      vertex 29.6865 8.97658 1.5
      vertex 27.35 10.35 1.5
      vertex 29.5113 8.90724 1.5
    endloop
  endfacet
  facet normal -0 0 1
    outer loop
      vertex 31.6382 7.362 1.5
      vertex 32.95 4.75 1.5
      vertex 31.65 7.55 1.5
    endloop
  endfacet
  facet normal -0 0 1
    outer loop
      vertex 31.6029 7.17696 1.5
      vertex 32.95 4.75 1.5
      vertex 31.6382 7.362 1.5
    endloop
  endfacet
  facet normal -0 0 1
    outer loop
      vertex 31.5447 6.99781 1.5
      vertex 32.95 4.75 1.5
      vertex 31.6029 7.17696 1.5
    endloop
  endfacet
  facet normal -0 0 1
    outer loop
      vertex 31.4645 6.82737 1.5
      vertex 32.95 4.75 1.5
      vertex 31.5447 6.99781 1.5
    endloop
  endfacet
  facet normal -0 0 1
    outer loop
      vertex 31.3635 6.66832 1.5
      vertex 32.95 4.75 1.5
      vertex 31.4645 6.82737 1.5
    endloop
  endfacet
  facet normal -0 0 1
    outer loop
      vertex 31.2435 6.52318 1.5
      vertex 32.95 4.75 1.5
      vertex 31.3635 6.66832 1.5
    endloop
  endfacet
  facet normal -0 0 1
    outer loop
      vertex 31.1061 6.39423 1.5
      vertex 32.95 4.75 1.5
      vertex 31.2435 6.52318 1.5
    endloop
  endfacet
  facet normal -0 0 1
    outer loop
      vertex 30.9537 6.28351 1.5
      vertex 32.95 4.75 1.5
      vertex 31.1061 6.39423 1.5
    endloop
  endfacet
  facet normal -0 0 1
    outer loop
      vertex 30.7887 6.19276 1.5
      vertex 32.95 4.75 1.5
      vertex 30.9537 6.28351 1.5
    endloop
  endfacet
  facet normal -0 0 1
    outer loop
      vertex 30.6135 6.12341 1.5
      vertex 32.95 4.75 1.5
      vertex 30.7887 6.19276 1.5
    endloop
  endfacet
  facet normal -0 0 1
    outer loop
      vertex 30.4311 6.07657 1.5
      vertex 32.95 4.75 1.5
      vertex 30.6135 6.12341 1.5
    endloop
  endfacet
  facet normal -0 0 1
    outer loop
      vertex 30.2442 6.05296 1.5
      vertex 32.95 4.75 1.5
      vertex 30.4311 6.07657 1.5
    endloop
  endfacet
  facet normal -0 0 1
    outer loop
      vertex 30.0558 6.05296 1.5
      vertex 32.95 4.75 1.5
      vertex 30.2442 6.05296 1.5
    endloop
  endfacet
  facet normal 0 0 1
    outer loop
      vertex 27.35 4.75 1.5
      vertex 30.0558 6.05296 1.5
      vertex 29.8689 6.07657 1.5
    endloop
  endfacet
  facet normal 0 0 1
    outer loop
      vertex 27.35 4.75 1.5
      vertex 29.8689 6.07657 1.5
      vertex 29.6865 6.12341 1.5
    endloop
  endfacet
  facet normal 0 0 1
    outer loop
      vertex 27.35 4.75 1.5
      vertex 29.6865 6.12341 1.5
      vertex 29.5113 6.19276 1.5
    endloop
  endfacet
  facet normal 0 0 1
    outer loop
      vertex 27.35 4.75 1.5
      vertex 28.65 7.55 1.5
      vertex 27.35 10.35 1.5
    endloop
  endfacet
  facet normal 0 0 1
    outer loop
      vertex 28.65 7.55 1.5
      vertex 27.35 4.75 1.5
      vertex 28.6618 7.362 1.5
    endloop
  endfacet
  facet normal 0 0 1
    outer loop
      vertex 28.6618 7.362 1.5
      vertex 27.35 4.75 1.5
      vertex 28.6971 7.17696 1.5
    endloop
  endfacet
  facet normal 0 0 1
    outer loop
      vertex 30.0558 6.05296 1.5
      vertex 27.35 4.75 1.5
      vertex 32.95 4.75 1.5
    endloop
  endfacet
  facet normal 0 0 1
    outer loop
      vertex 29.3463 6.28351 1.5
      vertex 27.35 4.75 1.5
      vertex 29.5113 6.19276 1.5
    endloop
  endfacet
  facet normal 0 0 1
    outer loop
      vertex 29.1939 6.39423 1.5
      vertex 27.35 4.75 1.5
      vertex 29.3463 6.28351 1.5
    endloop
  endfacet
  facet normal 0 0 1
    outer loop
      vertex 29.0565 6.52318 1.5
      vertex 27.35 4.75 1.5
      vertex 29.1939 6.39423 1.5
    endloop
  endfacet
  facet normal 0 0 1
    outer loop
      vertex 28.9365 6.66832 1.5
      vertex 27.35 4.75 1.5
      vertex 29.0565 6.52318 1.5
    endloop
  endfacet
  facet normal 0 0 1
    outer loop
      vertex 28.8355 6.82737 1.5
      vertex 27.35 4.75 1.5
      vertex 28.9365 6.66832 1.5
    endloop
  endfacet
  facet normal 0 0 1
    outer loop
      vertex 28.7553 6.99781 1.5
      vertex 27.35 4.75 1.5
      vertex 28.8355 6.82737 1.5
    endloop
  endfacet
  facet normal 0 0 1
    outer loop
      vertex 28.6971 7.17696 1.5
      vertex 27.35 4.75 1.5
      vertex 28.7553 6.99781 1.5
    endloop
  endfacet
  facet normal 0 1 -0
    outer loop
      vertex 32.95 4.75 1.5
      vertex 27.35 4.75 3
      vertex 32.95 4.75 3
    endloop
  endfacet
  facet normal 0 1 0
    outer loop
      vertex 27.35 4.75 3
      vertex 32.95 4.75 1.5
      vertex 27.35 4.75 1.5
    endloop
  endfacet
endsolid OpenSCAD_Model
