solid OpenSCAD_Model
  facet normal 0.998027 0.0627907 0
    outer loop
      vertex 11.25 0 2.5
      vertex 11.1613 1.41 0
      vertex 11.1613 1.41 2.5
    endloop
  endfacet
  facet normal 0.998027 0.0627907 0
    outer loop
      vertex 11.1613 1.41 0
      vertex 11.25 0 2.5
      vertex 11.25 0 0
    endloop
  endfacet
  facet normal -0.998027 0.0627907 0
    outer loop
      vertex -11.25 0 0
      vertex -11.1613 1.41 2.5
      vertex -11.1613 1.41 0
    endloop
  endfacet
  facet normal -0.998027 0.0627907 0
    outer loop
      vertex -11.1613 1.41 2.5
      vertex -11.25 0 0
      vertex -11.25 0 2.5
    endloop
  endfacet
  facet normal 0 1 -0
    outer loop
      vertex 0.706393 11.2278 0
      vertex -0.706393 11.2278 2.5
      vertex 0.706393 11.2278 2.5
    endloop
  endfacet
  facet normal 0 1 0
    outer loop
      vertex -0.706393 11.2278 2.5
      vertex 0.706393 11.2278 0
      vertex -0.706393 11.2278 0
    endloop
  endfacet
  facet normal 0 -1 0
    outer loop
      vertex -0.706393 -11.2278 0
      vertex 0.706393 -11.2278 2.5
      vertex -0.706393 -11.2278 2.5
    endloop
  endfacet
  facet normal 0 -1 -0
    outer loop
      vertex 0.706393 -11.2278 2.5
      vertex -0.706393 -11.2278 0
      vertex 0.706393 -11.2278 0
    endloop
  endfacet
  facet normal 0.684547 0.728968 -0
    outer loop
      vertex 8.2009 7.70115 0
      vertex 7.17102 8.66827 2.5
      vertex 8.2009 7.70115 2.5
    endloop
  endfacet
  facet normal 0.684547 0.728968 0
    outer loop
      vertex 7.17102 8.66827 2.5
      vertex 8.2009 7.70115 0
      vertex 7.17102 8.66827 0
    endloop
  endfacet
  facet normal -0.684547 0.728968 0
    outer loop
      vertex -7.17102 8.66827 0
      vertex -8.2009 7.70115 2.5
      vertex -7.17102 8.66827 2.5
    endloop
  endfacet
  facet normal -0.684547 0.728968 0
    outer loop
      vertex -8.2009 7.70115 2.5
      vertex -7.17102 8.66827 0
      vertex -8.2009 7.70115 0
    endloop
  endfacet
  facet normal -0.368125 0.929776 0
    outer loop
      vertex -3.47644 10.6994 0
      vertex -4.79002 10.1793 2.5
      vertex -3.47644 10.6994 2.5
    endloop
  endfacet
  facet normal -0.368125 0.929776 0
    outer loop
      vertex -4.79002 10.1793 2.5
      vertex -3.47644 10.6994 0
      vertex -4.79002 10.1793 0
    endloop
  endfacet
  facet normal 0.904827 0.425779 0
    outer loop
      vertex 10.46 4.1414 2.5
      vertex 9.85845 5.41973 0
      vertex 9.85845 5.41973 2.5
    endloop
  endfacet
  facet normal 0.904827 0.425779 0
    outer loop
      vertex 9.85845 5.41973 0
      vertex 10.46 4.1414 2.5
      vertex 10.46 4.1414 0
    endloop
  endfacet
  facet normal 0.982287 0.187382 0
    outer loop
      vertex 11.1613 1.41 2.5
      vertex 10.8966 2.79776 0
      vertex 10.8966 2.79776 2.5
    endloop
  endfacet
  facet normal 0.982287 0.187382 0
    outer loop
      vertex 10.8966 2.79776 0
      vertex 11.1613 1.41 2.5
      vertex 11.1613 1.41 0
    endloop
  endfacet
  facet normal 0.368125 0.929776 -0
    outer loop
      vertex 4.79002 10.1793 0
      vertex 3.47644 10.6994 2.5
      vertex 4.79002 10.1793 2.5
    endloop
  endfacet
  facet normal 0.368125 0.929776 0
    outer loop
      vertex 3.47644 10.6994 2.5
      vertex 4.79002 10.1793 0
      vertex 3.47644 10.6994 0
    endloop
  endfacet
  facet normal 0.587785 0.809017 -0
    outer loop
      vertex 7.17102 8.66827 0
      vertex 6.02805 9.49869 2.5
      vertex 7.17102 8.66827 2.5
    endloop
  endfacet
  facet normal 0.587785 0.809017 0
    outer loop
      vertex 6.02805 9.49869 2.5
      vertex 7.17102 8.66827 0
      vertex 6.02805 9.49869 0
    endloop
  endfacet
  facet normal -0.904827 0.425779 0
    outer loop
      vertex -10.46 4.1414 0
      vertex -9.85845 5.41973 2.5
      vertex -9.85845 5.41973 0
    endloop
  endfacet
  facet normal -0.904827 0.425779 0
    outer loop
      vertex -9.85845 5.41973 2.5
      vertex -10.46 4.1414 0
      vertex -10.46 4.1414 2.5
    endloop
  endfacet
  facet normal 0 0 1
    outer loop
      vertex 3 0 2.5
      vertex 11.25 0 2.5
      vertex 11.1613 1.41 2.5
    endloop
  endfacet
  facet normal 0 0 1
    outer loop
      vertex 2.97634 0.375999 2.5
      vertex 11.1613 1.41 2.5
      vertex 10.8966 2.79776 2.5
    endloop
  endfacet
  facet normal 0 0 1
    outer loop
      vertex 11.25 0 2.5
      vertex 3 0 2.5
      vertex 11.1613 -1.41 2.5
    endloop
  endfacet
  facet normal 0 0 1
    outer loop
      vertex 2.90575 0.746069 2.5
      vertex 10.8966 2.79776 2.5
      vertex 10.46 4.1414 2.5
    endloop
  endfacet
  facet normal -0 0 1
    outer loop
      vertex 2.97634 -0.375999 2.5
      vertex 11.1613 -1.41 2.5
      vertex 3 0 2.5
    endloop
  endfacet
  facet normal 0 0 1
    outer loop
      vertex 2.78933 1.10437 2.5
      vertex 10.46 4.1414 2.5
      vertex 9.85845 5.41973 2.5
    endloop
  endfacet
  facet normal 0 0 1
    outer loop
      vertex 11.1613 -1.41 2.5
      vertex 2.97634 -0.375999 2.5
      vertex 10.8966 -2.79776 2.5
    endloop
  endfacet
  facet normal 0 0 1
    outer loop
      vertex 2.62892 1.44526 2.5
      vertex 9.85845 5.41973 2.5
      vertex 9.10144 6.61258 2.5
    endloop
  endfacet
  facet normal -0 0 1
    outer loop
      vertex 2.90575 -0.746069 2.5
      vertex 10.8966 -2.79776 2.5
      vertex 2.97634 -0.375999 2.5
    endloop
  endfacet
  facet normal 0 0 1
    outer loop
      vertex 2.42705 1.76336 2.5
      vertex 9.10144 6.61258 2.5
      vertex 8.2009 7.70115 2.5
    endloop
  endfacet
  facet normal 0 0 1
    outer loop
      vertex 10.8966 -2.79776 2.5
      vertex 2.90575 -0.746069 2.5
      vertex 10.46 -4.1414 2.5
    endloop
  endfacet
  facet normal 0 0 1
    outer loop
      vertex 2.18691 2.05364 2.5
      vertex 8.2009 7.70115 2.5
      vertex 7.17102 8.66827 2.5
    endloop
  endfacet
  facet normal -0 0 1
    outer loop
      vertex 2.78933 -1.10437 2.5
      vertex 10.46 -4.1414 2.5
      vertex 2.90575 -0.746069 2.5
    endloop
  endfacet
  facet normal 0 0 1
    outer loop
      vertex 1.91227 2.31154 2.5
      vertex 7.17102 8.66827 2.5
      vertex 6.02805 9.49869 2.5
    endloop
  endfacet
  facet normal 0 0 1
    outer loop
      vertex 10.46 -4.1414 2.5
      vertex 2.78933 -1.10437 2.5
      vertex 9.85845 -5.41973 2.5
    endloop
  endfacet
  facet normal 0 0 1
    outer loop
      vertex 1.60748 2.53298 2.5
      vertex 6.02805 9.49869 2.5
      vertex 4.79002 10.1793 2.5
    endloop
  endfacet
  facet normal -0 0 1
    outer loop
      vertex 2.62892 -1.44526 2.5
      vertex 9.85845 -5.41973 2.5
      vertex 2.78933 -1.10437 2.5
    endloop
  endfacet
  facet normal 0 0 1
    outer loop
      vertex 1.27734 2.71448 2.5
      vertex 4.79002 10.1793 2.5
      vertex 3.47644 10.6994 2.5
    endloop
  endfacet
  facet normal 0 0 1
    outer loop
      vertex 9.85845 -5.41973 2.5
      vertex 2.62892 -1.44526 2.5
      vertex 9.10144 -6.61258 2.5
    endloop
  endfacet
  facet normal -0 0 1
    outer loop
      vertex 2.42705 -1.76336 2.5
      vertex 9.10144 -6.61258 2.5
      vertex 2.62892 -1.44526 2.5
    endloop
  endfacet
  facet normal 0 0 1
    outer loop
      vertex 11.1613 1.41 2.5
      vertex 2.97634 0.375999 2.5
      vertex 3 0 2.5
    endloop
  endfacet
  facet normal 0 0 1
    outer loop
      vertex 10.8966 2.79776 2.5
      vertex 2.90575 0.746069 2.5
      vertex 2.97634 0.375999 2.5
    endloop
  endfacet
  facet normal 0 0 1
    outer loop
      vertex 10.46 4.1414 2.5
      vertex 2.78933 1.10437 2.5
      vertex 2.90575 0.746069 2.5
    endloop
  endfacet
  facet normal 0 0 1
    outer loop
      vertex 9.85845 5.41973 2.5
      vertex 2.62892 1.44526 2.5
      vertex 2.78933 1.10437 2.5
    endloop
  endfacet
  facet normal 0 0 1
    outer loop
      vertex 9.10144 6.61258 2.5
      vertex 2.42705 1.76336 2.5
      vertex 2.62892 1.44526 2.5
    endloop
  endfacet
  facet normal 0 0 1
    outer loop
      vertex 8.2009 7.70115 2.5
      vertex 2.18691 2.05364 2.5
      vertex 2.42705 1.76336 2.5
    endloop
  endfacet
  facet normal 0 0 1
    outer loop
      vertex 0.927051 2.85317 2.5
      vertex 3.47644 10.6994 2.5
      vertex 2.10804 11.0507 2.5
    endloop
  endfacet
  facet normal 0 0 1
    outer loop
      vertex 7.17102 8.66827 2.5
      vertex 1.91227 2.31154 2.5
      vertex 2.18691 2.05364 2.5
    endloop
  endfacet
  facet normal 0 0 1
    outer loop
      vertex 6.02805 9.49869 2.5
      vertex 1.60748 2.53298 2.5
      vertex 1.91227 2.31154 2.5
    endloop
  endfacet
  facet normal 0 0 1
    outer loop
      vertex 4.79002 10.1793 2.5
      vertex 1.27734 2.71448 2.5
      vertex 1.60748 2.53298 2.5
    endloop
  endfacet
  facet normal 0 0 1
    outer loop
      vertex 3.47644 10.6994 2.5
      vertex 0.927051 2.85317 2.5
      vertex 1.27734 2.71448 2.5
    endloop
  endfacet
  facet normal 0 0 1
    outer loop
      vertex 0.562143 2.94686 2.5
      vertex 2.10804 11.0507 2.5
      vertex 0.706393 11.2278 2.5
    endloop
  endfacet
  facet normal 0 0 1
    outer loop
      vertex 2.10804 11.0507 2.5
      vertex 0.562143 2.94686 2.5
      vertex 0.927051 2.85317 2.5
    endloop
  endfacet
  facet normal 0 0 1
    outer loop
      vertex 0.706393 11.2278 2.5
      vertex 0.188371 2.99408 2.5
      vertex 0.562143 2.94686 2.5
    endloop
  endfacet
  facet normal 0 0 1
    outer loop
      vertex 0.706393 11.2278 2.5
      vertex -0.188371 2.99408 2.5
      vertex 0.188371 2.99408 2.5
    endloop
  endfacet
  facet normal -0 0 1
    outer loop
      vertex -0.706393 11.2278 2.5
      vertex -0.188371 2.99408 2.5
      vertex 0.706393 11.2278 2.5
    endloop
  endfacet
  facet normal 0 0 1
    outer loop
      vertex -0.188371 2.99408 2.5
      vertex -0.706393 11.2278 2.5
      vertex -0.562143 2.94686 2.5
    endloop
  endfacet
  facet normal -0 0 1
    outer loop
      vertex -2.10804 11.0507 2.5
      vertex -0.562143 2.94686 2.5
      vertex -0.706393 11.2278 2.5
    endloop
  endfacet
  facet normal 0 0 1
    outer loop
      vertex -0.562143 2.94686 2.5
      vertex -2.10804 11.0507 2.5
      vertex -0.927051 2.85317 2.5
    endloop
  endfacet
  facet normal -0 0 1
    outer loop
      vertex -3.47644 10.6994 2.5
      vertex -0.927051 2.85317 2.5
      vertex -2.10804 11.0507 2.5
    endloop
  endfacet
  facet normal 0 0 1
    outer loop
      vertex -0.927051 2.85317 2.5
      vertex -3.47644 10.6994 2.5
      vertex -1.27734 2.71448 2.5
    endloop
  endfacet
  facet normal -0 0 1
    outer loop
      vertex -4.79002 10.1793 2.5
      vertex -1.27734 2.71448 2.5
      vertex -3.47644 10.6994 2.5
    endloop
  endfacet
  facet normal 0 0 1
    outer loop
      vertex -1.27734 2.71448 2.5
      vertex -4.79002 10.1793 2.5
      vertex -1.60748 2.53298 2.5
    endloop
  endfacet
  facet normal -0 0 1
    outer loop
      vertex -6.02805 9.49869 2.5
      vertex -1.60748 2.53298 2.5
      vertex -4.79002 10.1793 2.5
    endloop
  endfacet
  facet normal 0 0 1
    outer loop
      vertex -1.60748 2.53298 2.5
      vertex -6.02805 9.49869 2.5
      vertex -1.91227 2.31154 2.5
    endloop
  endfacet
  facet normal -0 0 1
    outer loop
      vertex -7.17102 8.66827 2.5
      vertex -1.91227 2.31154 2.5
      vertex -6.02805 9.49869 2.5
    endloop
  endfacet
  facet normal 0 0 1
    outer loop
      vertex -1.91227 2.31154 2.5
      vertex -7.17102 8.66827 2.5
      vertex -2.18691 2.05364 2.5
    endloop
  endfacet
  facet normal -0 0 1
    outer loop
      vertex -8.2009 7.70115 2.5
      vertex -2.18691 2.05364 2.5
      vertex -7.17102 8.66827 2.5
    endloop
  endfacet
  facet normal -0 0 1
    outer loop
      vertex -9.10144 6.61258 2.5
      vertex -2.42705 1.76336 2.5
      vertex -8.2009 7.70115 2.5
    endloop
  endfacet
  facet normal 0 0 1
    outer loop
      vertex -2.18691 2.05364 2.5
      vertex -8.2009 7.70115 2.5
      vertex -2.42705 1.76336 2.5
    endloop
  endfacet
  facet normal 0 0 1
    outer loop
      vertex 9.10144 -6.61258 2.5
      vertex 2.42705 -1.76336 2.5
      vertex 8.2009 -7.70115 2.5
    endloop
  endfacet
  facet normal -0 0 1
    outer loop
      vertex 2.18691 -2.05364 2.5
      vertex 8.2009 -7.70115 2.5
      vertex 2.42705 -1.76336 2.5
    endloop
  endfacet
  facet normal 0 0 1
    outer loop
      vertex 8.2009 -7.70115 2.5
      vertex 2.18691 -2.05364 2.5
      vertex 7.17102 -8.66827 2.5
    endloop
  endfacet
  facet normal -0 0 1
    outer loop
      vertex 1.91227 -2.31154 2.5
      vertex 7.17102 -8.66827 2.5
      vertex 2.18691 -2.05364 2.5
    endloop
  endfacet
  facet normal 0 0 1
    outer loop
      vertex 7.17102 -8.66827 2.5
      vertex 1.91227 -2.31154 2.5
      vertex 6.02805 -9.49869 2.5
    endloop
  endfacet
  facet normal -0 0 1
    outer loop
      vertex 1.60748 -2.53298 2.5
      vertex 6.02805 -9.49869 2.5
      vertex 1.91227 -2.31154 2.5
    endloop
  endfacet
  facet normal 0 0 1
    outer loop
      vertex 6.02805 -9.49869 2.5
      vertex 1.60748 -2.53298 2.5
      vertex 4.79002 -10.1793 2.5
    endloop
  endfacet
  facet normal -0 0 1
    outer loop
      vertex 1.27734 -2.71448 2.5
      vertex 4.79002 -10.1793 2.5
      vertex 1.60748 -2.53298 2.5
    endloop
  endfacet
  facet normal 0 0 1
    outer loop
      vertex 4.79002 -10.1793 2.5
      vertex 1.27734 -2.71448 2.5
      vertex 3.47644 -10.6994 2.5
    endloop
  endfacet
  facet normal -0 0 1
    outer loop
      vertex 0.927051 -2.85317 2.5
      vertex 3.47644 -10.6994 2.5
      vertex 1.27734 -2.71448 2.5
    endloop
  endfacet
  facet normal 0 0 1
    outer loop
      vertex 3.47644 -10.6994 2.5
      vertex 0.927051 -2.85317 2.5
      vertex 2.10804 -11.0507 2.5
    endloop
  endfacet
  facet normal -0 0 1
    outer loop
      vertex 0.562143 -2.94686 2.5
      vertex 2.10804 -11.0507 2.5
      vertex 0.927051 -2.85317 2.5
    endloop
  endfacet
  facet normal 0 0 1
    outer loop
      vertex 2.10804 -11.0507 2.5
      vertex 0.562143 -2.94686 2.5
      vertex 0.706393 -11.2278 2.5
    endloop
  endfacet
  facet normal -0 0 1
    outer loop
      vertex 0.188371 -2.99408 2.5
      vertex 0.706393 -11.2278 2.5
      vertex 0.562143 -2.94686 2.5
    endloop
  endfacet
  facet normal -0 0 1
    outer loop
      vertex -0.188371 -2.99408 2.5
      vertex 0.706393 -11.2278 2.5
      vertex 0.188371 -2.99408 2.5
    endloop
  endfacet
  facet normal 0 0 1
    outer loop
      vertex -0.706393 -11.2278 2.5
      vertex -0.188371 -2.99408 2.5
      vertex -0.562143 -2.94686 2.5
    endloop
  endfacet
  facet normal 0 0 1
    outer loop
      vertex -0.188371 -2.99408 2.5
      vertex -0.706393 -11.2278 2.5
      vertex 0.706393 -11.2278 2.5
    endloop
  endfacet
  facet normal 0 0 1
    outer loop
      vertex -2.10804 -11.0507 2.5
      vertex -0.562143 -2.94686 2.5
      vertex -0.927051 -2.85317 2.5
    endloop
  endfacet
  facet normal 0 0 1
    outer loop
      vertex -3.47644 -10.6994 2.5
      vertex -0.927051 -2.85317 2.5
      vertex -1.27734 -2.71448 2.5
    endloop
  endfacet
  facet normal 0 0 1
    outer loop
      vertex -4.79002 -10.1793 2.5
      vertex -1.27734 -2.71448 2.5
      vertex -1.60748 -2.53298 2.5
    endloop
  endfacet
  facet normal 0 0 1
    outer loop
      vertex -6.02805 -9.49869 2.5
      vertex -1.60748 -2.53298 2.5
      vertex -1.91227 -2.31154 2.5
    endloop
  endfacet
  facet normal 0 0 1
    outer loop
      vertex -0.562143 -2.94686 2.5
      vertex -2.10804 -11.0507 2.5
      vertex -0.706393 -11.2278 2.5
    endloop
  endfacet
  facet normal 0 0 1
    outer loop
      vertex -7.17102 -8.66827 2.5
      vertex -1.91227 -2.31154 2.5
      vertex -2.18691 -2.05364 2.5
    endloop
  endfacet
  facet normal 0 0 1
    outer loop
      vertex -8.2009 -7.70115 2.5
      vertex -2.18691 -2.05364 2.5
      vertex -2.42705 -1.76336 2.5
    endloop
  endfacet
  facet normal 0 0 1
    outer loop
      vertex -9.10144 -6.61258 2.5
      vertex -2.42705 -1.76336 2.5
      vertex -2.62892 -1.44526 2.5
    endloop
  endfacet
  facet normal 0 0 1
    outer loop
      vertex -9.85845 -5.41973 2.5
      vertex -2.62892 -1.44526 2.5
      vertex -2.78933 -1.10437 2.5
    endloop
  endfacet
  facet normal 0 0 1
    outer loop
      vertex -10.46 -4.1414 2.5
      vertex -2.78933 -1.10437 2.5
      vertex -2.90575 -0.746069 2.5
    endloop
  endfacet
  facet normal 0 0 1
    outer loop
      vertex -10.8966 -2.79776 2.5
      vertex -2.90575 -0.746069 2.5
      vertex -2.97634 -0.375999 2.5
    endloop
  endfacet
  facet normal 0 0 1
    outer loop
      vertex -0.927051 -2.85317 2.5
      vertex -3.47644 -10.6994 2.5
      vertex -2.10804 -11.0507 2.5
    endloop
  endfacet
  facet normal 0 0 1
    outer loop
      vertex -11.1613 -1.41 2.5
      vertex -2.97634 -0.375999 2.5
      vertex -3 0 2.5
    endloop
  endfacet
  facet normal 0 0 1
    outer loop
      vertex -2.42705 1.76336 2.5
      vertex -9.10144 6.61258 2.5
      vertex -2.62892 1.44526 2.5
    endloop
  endfacet
  facet normal -0 0 1
    outer loop
      vertex -9.85845 5.41973 2.5
      vertex -2.62892 1.44526 2.5
      vertex -9.10144 6.61258 2.5
    endloop
  endfacet
  facet normal 0 0 1
    outer loop
      vertex -1.27734 -2.71448 2.5
      vertex -4.79002 -10.1793 2.5
      vertex -3.47644 -10.6994 2.5
    endloop
  endfacet
  facet normal 0 0 1
    outer loop
      vertex -2.62892 1.44526 2.5
      vertex -9.85845 5.41973 2.5
      vertex -2.78933 1.10437 2.5
    endloop
  endfacet
  facet normal 0 0 1
    outer loop
      vertex -1.60748 -2.53298 2.5
      vertex -6.02805 -9.49869 2.5
      vertex -4.79002 -10.1793 2.5
    endloop
  endfacet
  facet normal -0 0 1
    outer loop
      vertex -10.46 4.1414 2.5
      vertex -2.78933 1.10437 2.5
      vertex -9.85845 5.41973 2.5
    endloop
  endfacet
  facet normal 0 0 1
    outer loop
      vertex -1.91227 -2.31154 2.5
      vertex -7.17102 -8.66827 2.5
      vertex -6.02805 -9.49869 2.5
    endloop
  endfacet
  facet normal 0 0 1
    outer loop
      vertex -2.78933 1.10437 2.5
      vertex -10.46 4.1414 2.5
      vertex -2.90575 0.746069 2.5
    endloop
  endfacet
  facet normal 0 0 1
    outer loop
      vertex -2.18691 -2.05364 2.5
      vertex -8.2009 -7.70115 2.5
      vertex -7.17102 -8.66827 2.5
    endloop
  endfacet
  facet normal -0 0 1
    outer loop
      vertex -10.8966 2.79776 2.5
      vertex -2.90575 0.746069 2.5
      vertex -10.46 4.1414 2.5
    endloop
  endfacet
  facet normal 0 0 1
    outer loop
      vertex -2.42705 -1.76336 2.5
      vertex -9.10144 -6.61258 2.5
      vertex -8.2009 -7.70115 2.5
    endloop
  endfacet
  facet normal 0 0 1
    outer loop
      vertex -2.90575 0.746069 2.5
      vertex -10.8966 2.79776 2.5
      vertex -2.97634 0.375999 2.5
    endloop
  endfacet
  facet normal 0 0 1
    outer loop
      vertex -2.62892 -1.44526 2.5
      vertex -9.85845 -5.41973 2.5
      vertex -9.10144 -6.61258 2.5
    endloop
  endfacet
  facet normal -0 0 1
    outer loop
      vertex -11.1613 1.41 2.5
      vertex -2.97634 0.375999 2.5
      vertex -10.8966 2.79776 2.5
    endloop
  endfacet
  facet normal 0 0 1
    outer loop
      vertex -2.78933 -1.10437 2.5
      vertex -10.46 -4.1414 2.5
      vertex -9.85845 -5.41973 2.5
    endloop
  endfacet
  facet normal 0 0 1
    outer loop
      vertex -2.97634 0.375999 2.5
      vertex -11.1613 1.41 2.5
      vertex -3 0 2.5
    endloop
  endfacet
  facet normal 0 0 1
    outer loop
      vertex -2.90575 -0.746069 2.5
      vertex -10.8966 -2.79776 2.5
      vertex -10.46 -4.1414 2.5
    endloop
  endfacet
  facet normal 0 0 1
    outer loop
      vertex -11.25 0 2.5
      vertex -3 0 2.5
      vertex -11.1613 1.41 2.5
    endloop
  endfacet
  facet normal 0 0 1
    outer loop
      vertex -2.97634 -0.375999 2.5
      vertex -11.1613 -1.41 2.5
      vertex -10.8966 -2.79776 2.5
    endloop
  endfacet
  facet normal 0 0 1
    outer loop
      vertex -3 0 2.5
      vertex -11.25 0 2.5
      vertex -11.1613 -1.41 2.5
    endloop
  endfacet
  facet normal -0.248689 0.968583 0
    outer loop
      vertex -2.10804 11.0507 0
      vertex -3.47644 10.6994 2.5
      vertex -2.10804 11.0507 2.5
    endloop
  endfacet
  facet normal -0.248689 0.968583 0
    outer loop
      vertex -3.47644 10.6994 2.5
      vertex -2.10804 11.0507 0
      vertex -3.47644 10.6994 0
    endloop
  endfacet
  facet normal 0.844328 -0.535827 0
    outer loop
      vertex 9.10144 -6.61258 2.5
      vertex 9.85845 -5.41973 0
      vertex 9.85845 -5.41973 2.5
    endloop
  endfacet
  facet normal 0.844328 -0.535827 0
    outer loop
      vertex 9.85845 -5.41973 0
      vertex 9.10144 -6.61258 2.5
      vertex 9.10144 -6.61258 0
    endloop
  endfacet
  facet normal -0.770513 -0.637424 0
    outer loop
      vertex -8.2009 -7.70115 0
      vertex -9.10144 -6.61258 2.5
      vertex -9.10144 -6.61258 0
    endloop
  endfacet
  facet normal -0.770513 -0.637424 0
    outer loop
      vertex -9.10144 -6.61258 2.5
      vertex -8.2009 -7.70115 0
      vertex -8.2009 -7.70115 2.5
    endloop
  endfacet
  facet normal 0.368125 -0.929776 0
    outer loop
      vertex 3.47644 -10.6994 0
      vertex 4.79002 -10.1793 2.5
      vertex 3.47644 -10.6994 2.5
    endloop
  endfacet
  facet normal 0.368125 -0.929776 0
    outer loop
      vertex 4.79002 -10.1793 2.5
      vertex 3.47644 -10.6994 0
      vertex 4.79002 -10.1793 0
    endloop
  endfacet
  facet normal 0.951057 0.309017 0
    outer loop
      vertex 10.8966 2.79776 2.5
      vertex 10.46 4.1414 0
      vertex 10.46 4.1414 2.5
    endloop
  endfacet
  facet normal 0.951057 0.309017 0
    outer loop
      vertex 10.46 4.1414 0
      vertex 10.8966 2.79776 2.5
      vertex 10.8966 2.79776 0
    endloop
  endfacet
  facet normal 0.770513 0.637424 0
    outer loop
      vertex 9.10144 6.61258 2.5
      vertex 8.2009 7.70115 0
      vertex 8.2009 7.70115 2.5
    endloop
  endfacet
  facet normal 0.770513 0.637424 0
    outer loop
      vertex 8.2009 7.70115 0
      vertex 9.10144 6.61258 2.5
      vertex 9.10144 6.61258 0
    endloop
  endfacet
  facet normal 0.844328 0.535827 0
    outer loop
      vertex 9.85845 5.41973 2.5
      vertex 9.10144 6.61258 0
      vertex 9.10144 6.61258 2.5
    endloop
  endfacet
  facet normal 0.844328 0.535827 0
    outer loop
      vertex 9.10144 6.61258 0
      vertex 9.85845 5.41973 2.5
      vertex 9.85845 5.41973 0
    endloop
  endfacet
  facet normal 0.248689 0.968583 -0
    outer loop
      vertex 3.47644 10.6994 0
      vertex 2.10804 11.0507 2.5
      vertex 3.47644 10.6994 2.5
    endloop
  endfacet
  facet normal 0.248689 0.968583 0
    outer loop
      vertex 2.10804 11.0507 2.5
      vertex 3.47644 10.6994 0
      vertex 2.10804 11.0507 0
    endloop
  endfacet
  facet normal 0.125334 0.992115 -0
    outer loop
      vertex 2.10804 11.0507 0
      vertex 0.706393 11.2278 2.5
      vertex 2.10804 11.0507 2.5
    endloop
  endfacet
  facet normal 0.125334 0.992115 0
    outer loop
      vertex 0.706393 11.2278 2.5
      vertex 2.10804 11.0507 0
      vertex 0.706393 11.2278 0
    endloop
  endfacet
  facet normal 0.481754 0.876307 -0
    outer loop
      vertex 6.02805 9.49869 0
      vertex 4.79002 10.1793 2.5
      vertex 6.02805 9.49869 2.5
    endloop
  endfacet
  facet normal 0.481754 0.876307 0
    outer loop
      vertex 4.79002 10.1793 2.5
      vertex 6.02805 9.49869 0
      vertex 4.79002 10.1793 0
    endloop
  endfacet
  facet normal -0.844328 0.535827 0
    outer loop
      vertex -9.85845 5.41973 0
      vertex -9.10144 6.61258 2.5
      vertex -9.10144 6.61258 0
    endloop
  endfacet
  facet normal -0.844328 0.535827 0
    outer loop
      vertex -9.10144 6.61258 2.5
      vertex -9.85845 5.41973 0
      vertex -9.85845 5.41973 2.5
    endloop
  endfacet
  facet normal -0.770513 0.637424 0
    outer loop
      vertex -9.10144 6.61258 0
      vertex -8.2009 7.70115 2.5
      vertex -8.2009 7.70115 0
    endloop
  endfacet
  facet normal -0.770513 0.637424 0
    outer loop
      vertex -8.2009 7.70115 2.5
      vertex -9.10144 6.61258 0
      vertex -9.10144 6.61258 2.5
    endloop
  endfacet
  facet normal -0.951057 0.309017 0
    outer loop
      vertex -10.8966 2.79776 0
      vertex -10.46 4.1414 2.5
      vertex -10.46 4.1414 0
    endloop
  endfacet
  facet normal -0.951057 0.309017 0
    outer loop
      vertex -10.46 4.1414 2.5
      vertex -10.8966 2.79776 0
      vertex -10.8966 2.79776 2.5
    endloop
  endfacet
  facet normal -0.982287 0.187382 0
    outer loop
      vertex -11.1613 1.41 0
      vertex -10.8966 2.79776 2.5
      vertex -10.8966 2.79776 0
    endloop
  endfacet
  facet normal -0.982287 0.187382 0
    outer loop
      vertex -10.8966 2.79776 2.5
      vertex -11.1613 1.41 0
      vertex -11.1613 1.41 2.5
    endloop
  endfacet
  facet normal -0.481754 0.876307 0
    outer loop
      vertex -4.79002 10.1793 0
      vertex -6.02805 9.49869 2.5
      vertex -4.79002 10.1793 2.5
    endloop
  endfacet
  facet normal -0.481754 0.876307 0
    outer loop
      vertex -6.02805 9.49869 2.5
      vertex -4.79002 10.1793 0
      vertex -6.02805 9.49869 0
    endloop
  endfacet
  facet normal -0.587785 0.809017 0
    outer loop
      vertex -6.02805 9.49869 0
      vertex -7.17102 8.66827 2.5
      vertex -6.02805 9.49869 2.5
    endloop
  endfacet
  facet normal -0.587785 0.809017 0
    outer loop
      vertex -7.17102 8.66827 2.5
      vertex -6.02805 9.49869 0
      vertex -7.17102 8.66827 0
    endloop
  endfacet
  facet normal -0.125334 0.992115 0
    outer loop
      vertex -0.706393 11.2278 0
      vertex -2.10804 11.0507 2.5
      vertex -0.706393 11.2278 2.5
    endloop
  endfacet
  facet normal -0.125334 0.992115 0
    outer loop
      vertex -2.10804 11.0507 2.5
      vertex -0.706393 11.2278 0
      vertex -2.10804 11.0507 0
    endloop
  endfacet
  facet normal 0.998027 -0.0627907 0
    outer loop
      vertex 11.1613 -1.41 2.5
      vertex 11.25 0 0
      vertex 11.25 0 2.5
    endloop
  endfacet
  facet normal 0.998027 -0.0627907 0
    outer loop
      vertex 11.25 0 0
      vertex 11.1613 -1.41 2.5
      vertex 11.1613 -1.41 0
    endloop
  endfacet
  facet normal 0.684547 -0.728968 0
    outer loop
      vertex 7.17102 -8.66827 0
      vertex 8.2009 -7.70115 2.5
      vertex 7.17102 -8.66827 2.5
    endloop
  endfacet
  facet normal 0.684547 -0.728968 0
    outer loop
      vertex 8.2009 -7.70115 2.5
      vertex 7.17102 -8.66827 0
      vertex 8.2009 -7.70115 0
    endloop
  endfacet
  facet normal 0.904827 -0.425779 0
    outer loop
      vertex 9.85845 -5.41973 2.5
      vertex 10.46 -4.1414 0
      vertex 10.46 -4.1414 2.5
    endloop
  endfacet
  facet normal 0.904827 -0.425779 0
    outer loop
      vertex 10.46 -4.1414 0
      vertex 9.85845 -5.41973 2.5
      vertex 9.85845 -5.41973 0
    endloop
  endfacet
  facet normal -0.951057 -0.309017 0
    outer loop
      vertex -10.46 -4.1414 0
      vertex -10.8966 -2.79776 2.5
      vertex -10.8966 -2.79776 0
    endloop
  endfacet
  facet normal -0.951057 -0.309017 0
    outer loop
      vertex -10.8966 -2.79776 2.5
      vertex -10.46 -4.1414 0
      vertex -10.46 -4.1414 2.5
    endloop
  endfacet
  facet normal 0.770513 -0.637424 0
    outer loop
      vertex 8.2009 -7.70115 2.5
      vertex 9.10144 -6.61258 0
      vertex 9.10144 -6.61258 2.5
    endloop
  endfacet
  facet normal 0.770513 -0.637424 0
    outer loop
      vertex 9.10144 -6.61258 0
      vertex 8.2009 -7.70115 2.5
      vertex 8.2009 -7.70115 0
    endloop
  endfacet
  facet normal 0.982287 -0.187382 0
    outer loop
      vertex 10.8966 -2.79776 2.5
      vertex 11.1613 -1.41 0
      vertex 11.1613 -1.41 2.5
    endloop
  endfacet
  facet normal 0.982287 -0.187382 0
    outer loop
      vertex 11.1613 -1.41 0
      vertex 10.8966 -2.79776 2.5
      vertex 10.8966 -2.79776 0
    endloop
  endfacet
  facet normal 0.951057 -0.309017 0
    outer loop
      vertex 10.46 -4.1414 2.5
      vertex 10.8966 -2.79776 0
      vertex 10.8966 -2.79776 2.5
    endloop
  endfacet
  facet normal 0.951057 -0.309017 0
    outer loop
      vertex 10.8966 -2.79776 0
      vertex 10.46 -4.1414 2.5
      vertex 10.46 -4.1414 0
    endloop
  endfacet
  facet normal -0.684547 -0.728968 0
    outer loop
      vertex -8.2009 -7.70115 0
      vertex -7.17102 -8.66827 2.5
      vertex -8.2009 -7.70115 2.5
    endloop
  endfacet
  facet normal -0.684547 -0.728968 -0
    outer loop
      vertex -7.17102 -8.66827 2.5
      vertex -8.2009 -7.70115 0
      vertex -7.17102 -8.66827 0
    endloop
  endfacet
  facet normal -0.844328 -0.535827 0
    outer loop
      vertex -9.10144 -6.61258 0
      vertex -9.85845 -5.41973 2.5
      vertex -9.85845 -5.41973 0
    endloop
  endfacet
  facet normal -0.844328 -0.535827 0
    outer loop
      vertex -9.85845 -5.41973 2.5
      vertex -9.10144 -6.61258 0
      vertex -9.10144 -6.61258 2.5
    endloop
  endfacet
  facet normal 0 0 -1
    outer loop
      vertex 3 0 0
      vertex 11.25 0 0
      vertex 11.1613 -1.41 0
    endloop
  endfacet
  facet normal 0 0 -1
    outer loop
      vertex 2.97634 -0.375999 0
      vertex 11.1613 -1.41 0
      vertex 10.8966 -2.79776 0
    endloop
  endfacet
  facet normal 0 0 -1
    outer loop
      vertex 11.25 0 0
      vertex 3 0 0
      vertex 11.1613 1.41 0
    endloop
  endfacet
  facet normal 0 0 -1
    outer loop
      vertex 2.90575 -0.746069 0
      vertex 10.8966 -2.79776 0
      vertex 10.46 -4.1414 0
    endloop
  endfacet
  facet normal 0 0 -1
    outer loop
      vertex 2.97634 0.375999 0
      vertex 11.1613 1.41 0
      vertex 3 0 0
    endloop
  endfacet
  facet normal 0 0 -1
    outer loop
      vertex 2.78933 -1.10437 0
      vertex 10.46 -4.1414 0
      vertex 9.85845 -5.41973 0
    endloop
  endfacet
  facet normal -0 0 -1
    outer loop
      vertex 11.1613 1.41 0
      vertex 2.97634 0.375999 0
      vertex 10.8966 2.79776 0
    endloop
  endfacet
  facet normal 0 0 -1
    outer loop
      vertex 2.62892 -1.44526 0
      vertex 9.85845 -5.41973 0
      vertex 9.10144 -6.61258 0
    endloop
  endfacet
  facet normal 0 0 -1
    outer loop
      vertex 2.90575 0.746069 0
      vertex 10.8966 2.79776 0
      vertex 2.97634 0.375999 0
    endloop
  endfacet
  facet normal 0 0 -1
    outer loop
      vertex 2.42705 -1.76336 0
      vertex 9.10144 -6.61258 0
      vertex 8.2009 -7.70115 0
    endloop
  endfacet
  facet normal -0 0 -1
    outer loop
      vertex 10.8966 2.79776 0
      vertex 2.90575 0.746069 0
      vertex 10.46 4.1414 0
    endloop
  endfacet
  facet normal 0 0 -1
    outer loop
      vertex 2.18691 -2.05364 0
      vertex 8.2009 -7.70115 0
      vertex 7.17102 -8.66827 0
    endloop
  endfacet
  facet normal 0 0 -1
    outer loop
      vertex 2.78933 1.10437 0
      vertex 10.46 4.1414 0
      vertex 2.90575 0.746069 0
    endloop
  endfacet
  facet normal 0 0 -1
    outer loop
      vertex 1.91227 -2.31154 0
      vertex 7.17102 -8.66827 0
      vertex 6.02805 -9.49869 0
    endloop
  endfacet
  facet normal -0 0 -1
    outer loop
      vertex 10.46 4.1414 0
      vertex 2.78933 1.10437 0
      vertex 9.85845 5.41973 0
    endloop
  endfacet
  facet normal 0 0 -1
    outer loop
      vertex 1.60748 -2.53298 0
      vertex 6.02805 -9.49869 0
      vertex 4.79002 -10.1793 0
    endloop
  endfacet
  facet normal 0 0 -1
    outer loop
      vertex 2.62892 1.44526 0
      vertex 9.85845 5.41973 0
      vertex 2.78933 1.10437 0
    endloop
  endfacet
  facet normal 0 0 -1
    outer loop
      vertex 1.27734 -2.71448 0
      vertex 4.79002 -10.1793 0
      vertex 3.47644 -10.6994 0
    endloop
  endfacet
  facet normal -0 0 -1
    outer loop
      vertex 9.85845 5.41973 0
      vertex 2.62892 1.44526 0
      vertex 9.10144 6.61258 0
    endloop
  endfacet
  facet normal 0 0 -1
    outer loop
      vertex 2.42705 1.76336 0
      vertex 9.10144 6.61258 0
      vertex 2.62892 1.44526 0
    endloop
  endfacet
  facet normal 0 0 -1
    outer loop
      vertex 11.1613 -1.41 0
      vertex 2.97634 -0.375999 0
      vertex 3 0 0
    endloop
  endfacet
  facet normal 0 0 -1
    outer loop
      vertex 10.8966 -2.79776 0
      vertex 2.90575 -0.746069 0
      vertex 2.97634 -0.375999 0
    endloop
  endfacet
  facet normal 0 0 -1
    outer loop
      vertex 10.46 -4.1414 0
      vertex 2.78933 -1.10437 0
      vertex 2.90575 -0.746069 0
    endloop
  endfacet
  facet normal 0 0 -1
    outer loop
      vertex 9.85845 -5.41973 0
      vertex 2.62892 -1.44526 0
      vertex 2.78933 -1.10437 0
    endloop
  endfacet
  facet normal 0 0 -1
    outer loop
      vertex 9.10144 -6.61258 0
      vertex 2.42705 -1.76336 0
      vertex 2.62892 -1.44526 0
    endloop
  endfacet
  facet normal 0 0 -1
    outer loop
      vertex 8.2009 -7.70115 0
      vertex 2.18691 -2.05364 0
      vertex 2.42705 -1.76336 0
    endloop
  endfacet
  facet normal 0 0 -1
    outer loop
      vertex 0.927051 -2.85317 0
      vertex 3.47644 -10.6994 0
      vertex 2.10804 -11.0507 0
    endloop
  endfacet
  facet normal 0 0 -1
    outer loop
      vertex 7.17102 -8.66827 0
      vertex 1.91227 -2.31154 0
      vertex 2.18691 -2.05364 0
    endloop
  endfacet
  facet normal 0 0 -1
    outer loop
      vertex 6.02805 -9.49869 0
      vertex 1.60748 -2.53298 0
      vertex 1.91227 -2.31154 0
    endloop
  endfacet
  facet normal 0 0 -1
    outer loop
      vertex 4.79002 -10.1793 0
      vertex 1.27734 -2.71448 0
      vertex 1.60748 -2.53298 0
    endloop
  endfacet
  facet normal 0 0 -1
    outer loop
      vertex 3.47644 -10.6994 0
      vertex 0.927051 -2.85317 0
      vertex 1.27734 -2.71448 0
    endloop
  endfacet
  facet normal 0 0 -1
    outer loop
      vertex 0.562143 -2.94686 0
      vertex 2.10804 -11.0507 0
      vertex 0.706393 -11.2278 0
    endloop
  endfacet
  facet normal 0 0 -1
    outer loop
      vertex 2.10804 -11.0507 0
      vertex 0.562143 -2.94686 0
      vertex 0.927051 -2.85317 0
    endloop
  endfacet
  facet normal 0 0 -1
    outer loop
      vertex 0.706393 -11.2278 0
      vertex 0.188371 -2.99408 0
      vertex 0.562143 -2.94686 0
    endloop
  endfacet
  facet normal 0 0 -1
    outer loop
      vertex 0.706393 -11.2278 0
      vertex -0.188371 -2.99408 0
      vertex 0.188371 -2.99408 0
    endloop
  endfacet
  facet normal 0 0 -1
    outer loop
      vertex -0.706393 -11.2278 0
      vertex -0.188371 -2.99408 0
      vertex 0.706393 -11.2278 0
    endloop
  endfacet
  facet normal -0 0 -1
    outer loop
      vertex -0.188371 -2.99408 0
      vertex -0.706393 -11.2278 0
      vertex -0.562143 -2.94686 0
    endloop
  endfacet
  facet normal 0 0 -1
    outer loop
      vertex -2.10804 -11.0507 0
      vertex -0.562143 -2.94686 0
      vertex -0.706393 -11.2278 0
    endloop
  endfacet
  facet normal -0 0 -1
    outer loop
      vertex -0.562143 -2.94686 0
      vertex -2.10804 -11.0507 0
      vertex -0.927051 -2.85317 0
    endloop
  endfacet
  facet normal 0 0 -1
    outer loop
      vertex -3.47644 -10.6994 0
      vertex -0.927051 -2.85317 0
      vertex -2.10804 -11.0507 0
    endloop
  endfacet
  facet normal -0 0 -1
    outer loop
      vertex -0.927051 -2.85317 0
      vertex -3.47644 -10.6994 0
      vertex -1.27734 -2.71448 0
    endloop
  endfacet
  facet normal 0 0 -1
    outer loop
      vertex -4.79002 -10.1793 0
      vertex -1.27734 -2.71448 0
      vertex -3.47644 -10.6994 0
    endloop
  endfacet
  facet normal -0 0 -1
    outer loop
      vertex -1.27734 -2.71448 0
      vertex -4.79002 -10.1793 0
      vertex -1.60748 -2.53298 0
    endloop
  endfacet
  facet normal 0 0 -1
    outer loop
      vertex -6.02805 -9.49869 0
      vertex -1.60748 -2.53298 0
      vertex -4.79002 -10.1793 0
    endloop
  endfacet
  facet normal -0 0 -1
    outer loop
      vertex -1.60748 -2.53298 0
      vertex -6.02805 -9.49869 0
      vertex -1.91227 -2.31154 0
    endloop
  endfacet
  facet normal 0 0 -1
    outer loop
      vertex -7.17102 -8.66827 0
      vertex -1.91227 -2.31154 0
      vertex -6.02805 -9.49869 0
    endloop
  endfacet
  facet normal -0 0 -1
    outer loop
      vertex -1.91227 -2.31154 0
      vertex -7.17102 -8.66827 0
      vertex -2.18691 -2.05364 0
    endloop
  endfacet
  facet normal 0 0 -1
    outer loop
      vertex -8.2009 -7.70115 0
      vertex -2.18691 -2.05364 0
      vertex -7.17102 -8.66827 0
    endloop
  endfacet
  facet normal 0 0 -1
    outer loop
      vertex -9.10144 -6.61258 0
      vertex -2.42705 -1.76336 0
      vertex -8.2009 -7.70115 0
    endloop
  endfacet
  facet normal -0 0 -1
    outer loop
      vertex -2.18691 -2.05364 0
      vertex -8.2009 -7.70115 0
      vertex -2.42705 -1.76336 0
    endloop
  endfacet
  facet normal -0 0 -1
    outer loop
      vertex 9.10144 6.61258 0
      vertex 2.42705 1.76336 0
      vertex 8.2009 7.70115 0
    endloop
  endfacet
  facet normal 0 0 -1
    outer loop
      vertex 2.18691 2.05364 0
      vertex 8.2009 7.70115 0
      vertex 2.42705 1.76336 0
    endloop
  endfacet
  facet normal -0 0 -1
    outer loop
      vertex 8.2009 7.70115 0
      vertex 2.18691 2.05364 0
      vertex 7.17102 8.66827 0
    endloop
  endfacet
  facet normal 0 0 -1
    outer loop
      vertex 1.91227 2.31154 0
      vertex 7.17102 8.66827 0
      vertex 2.18691 2.05364 0
    endloop
  endfacet
  facet normal -0 0 -1
    outer loop
      vertex 7.17102 8.66827 0
      vertex 1.91227 2.31154 0
      vertex 6.02805 9.49869 0
    endloop
  endfacet
  facet normal 0 0 -1
    outer loop
      vertex 1.60748 2.53298 0
      vertex 6.02805 9.49869 0
      vertex 1.91227 2.31154 0
    endloop
  endfacet
  facet normal -0 0 -1
    outer loop
      vertex 6.02805 9.49869 0
      vertex 1.60748 2.53298 0
      vertex 4.79002 10.1793 0
    endloop
  endfacet
  facet normal 0 0 -1
    outer loop
      vertex 1.27734 2.71448 0
      vertex 4.79002 10.1793 0
      vertex 1.60748 2.53298 0
    endloop
  endfacet
  facet normal -0 0 -1
    outer loop
      vertex 4.79002 10.1793 0
      vertex 1.27734 2.71448 0
      vertex 3.47644 10.6994 0
    endloop
  endfacet
  facet normal 0 0 -1
    outer loop
      vertex 0.927051 2.85317 0
      vertex 3.47644 10.6994 0
      vertex 1.27734 2.71448 0
    endloop
  endfacet
  facet normal -0 0 -1
    outer loop
      vertex 3.47644 10.6994 0
      vertex 0.927051 2.85317 0
      vertex 2.10804 11.0507 0
    endloop
  endfacet
  facet normal 0 0 -1
    outer loop
      vertex 0.562143 2.94686 0
      vertex 2.10804 11.0507 0
      vertex 0.927051 2.85317 0
    endloop
  endfacet
  facet normal -0 0 -1
    outer loop
      vertex 2.10804 11.0507 0
      vertex 0.562143 2.94686 0
      vertex 0.706393 11.2278 0
    endloop
  endfacet
  facet normal 0 0 -1
    outer loop
      vertex 0.188371 2.99408 0
      vertex 0.706393 11.2278 0
      vertex 0.562143 2.94686 0
    endloop
  endfacet
  facet normal 0 0 -1
    outer loop
      vertex -0.188371 2.99408 0
      vertex 0.706393 11.2278 0
      vertex 0.188371 2.99408 0
    endloop
  endfacet
  facet normal 0 0 -1
    outer loop
      vertex -0.706393 11.2278 0
      vertex -0.188371 2.99408 0
      vertex -0.562143 2.94686 0
    endloop
  endfacet
  facet normal 0 0 -1
    outer loop
      vertex -0.188371 2.99408 0
      vertex -0.706393 11.2278 0
      vertex 0.706393 11.2278 0
    endloop
  endfacet
  facet normal 0 0 -1
    outer loop
      vertex -2.10804 11.0507 0
      vertex -0.562143 2.94686 0
      vertex -0.927051 2.85317 0
    endloop
  endfacet
  facet normal 0 0 -1
    outer loop
      vertex -3.47644 10.6994 0
      vertex -0.927051 2.85317 0
      vertex -1.27734 2.71448 0
    endloop
  endfacet
  facet normal 0 0 -1
    outer loop
      vertex -4.79002 10.1793 0
      vertex -1.27734 2.71448 0
      vertex -1.60748 2.53298 0
    endloop
  endfacet
  facet normal 0 0 -1
    outer loop
      vertex -6.02805 9.49869 0
      vertex -1.60748 2.53298 0
      vertex -1.91227 2.31154 0
    endloop
  endfacet
  facet normal 0 0 -1
    outer loop
      vertex -0.562143 2.94686 0
      vertex -2.10804 11.0507 0
      vertex -0.706393 11.2278 0
    endloop
  endfacet
  facet normal 0 0 -1
    outer loop
      vertex -7.17102 8.66827 0
      vertex -1.91227 2.31154 0
      vertex -2.18691 2.05364 0
    endloop
  endfacet
  facet normal 0 0 -1
    outer loop
      vertex -8.2009 7.70115 0
      vertex -2.18691 2.05364 0
      vertex -2.42705 1.76336 0
    endloop
  endfacet
  facet normal 0 0 -1
    outer loop
      vertex -9.10144 6.61258 0
      vertex -2.42705 1.76336 0
      vertex -2.62892 1.44526 0
    endloop
  endfacet
  facet normal 0 0 -1
    outer loop
      vertex -9.85845 5.41973 0
      vertex -2.62892 1.44526 0
      vertex -2.78933 1.10437 0
    endloop
  endfacet
  facet normal 0 0 -1
    outer loop
      vertex -10.46 4.1414 0
      vertex -2.78933 1.10437 0
      vertex -2.90575 0.746069 0
    endloop
  endfacet
  facet normal 0 0 -1
    outer loop
      vertex -10.8966 2.79776 0
      vertex -2.90575 0.746069 0
      vertex -2.97634 0.375999 0
    endloop
  endfacet
  facet normal 0 0 -1
    outer loop
      vertex -0.927051 2.85317 0
      vertex -3.47644 10.6994 0
      vertex -2.10804 11.0507 0
    endloop
  endfacet
  facet normal 0 0 -1
    outer loop
      vertex -11.1613 1.41 0
      vertex -2.97634 0.375999 0
      vertex -3 0 0
    endloop
  endfacet
  facet normal -0 0 -1
    outer loop
      vertex -2.42705 -1.76336 0
      vertex -9.10144 -6.61258 0
      vertex -2.62892 -1.44526 0
    endloop
  endfacet
  facet normal 0 0 -1
    outer loop
      vertex -9.85845 -5.41973 0
      vertex -2.62892 -1.44526 0
      vertex -9.10144 -6.61258 0
    endloop
  endfacet
  facet normal 0 0 -1
    outer loop
      vertex -1.27734 2.71448 0
      vertex -4.79002 10.1793 0
      vertex -3.47644 10.6994 0
    endloop
  endfacet
  facet normal -0 0 -1
    outer loop
      vertex -2.62892 -1.44526 0
      vertex -9.85845 -5.41973 0
      vertex -2.78933 -1.10437 0
    endloop
  endfacet
  facet normal 0 0 -1
    outer loop
      vertex -1.60748 2.53298 0
      vertex -6.02805 9.49869 0
      vertex -4.79002 10.1793 0
    endloop
  endfacet
  facet normal 0 0 -1
    outer loop
      vertex -10.46 -4.1414 0
      vertex -2.78933 -1.10437 0
      vertex -9.85845 -5.41973 0
    endloop
  endfacet
  facet normal 0 0 -1
    outer loop
      vertex -1.91227 2.31154 0
      vertex -7.17102 8.66827 0
      vertex -6.02805 9.49869 0
    endloop
  endfacet
  facet normal -0 0 -1
    outer loop
      vertex -2.78933 -1.10437 0
      vertex -10.46 -4.1414 0
      vertex -2.90575 -0.746069 0
    endloop
  endfacet
  facet normal 0 0 -1
    outer loop
      vertex -2.18691 2.05364 0
      vertex -8.2009 7.70115 0
      vertex -7.17102 8.66827 0
    endloop
  endfacet
  facet normal 0 0 -1
    outer loop
      vertex -10.8966 -2.79776 0
      vertex -2.90575 -0.746069 0
      vertex -10.46 -4.1414 0
    endloop
  endfacet
  facet normal 0 0 -1
    outer loop
      vertex -2.42705 1.76336 0
      vertex -9.10144 6.61258 0
      vertex -8.2009 7.70115 0
    endloop
  endfacet
  facet normal -0 0 -1
    outer loop
      vertex -2.90575 -0.746069 0
      vertex -10.8966 -2.79776 0
      vertex -2.97634 -0.375999 0
    endloop
  endfacet
  facet normal 0 0 -1
    outer loop
      vertex -2.62892 1.44526 0
      vertex -9.85845 5.41973 0
      vertex -9.10144 6.61258 0
    endloop
  endfacet
  facet normal 0 0 -1
    outer loop
      vertex -11.1613 -1.41 0
      vertex -2.97634 -0.375999 0
      vertex -10.8966 -2.79776 0
    endloop
  endfacet
  facet normal 0 0 -1
    outer loop
      vertex -2.78933 1.10437 0
      vertex -10.46 4.1414 0
      vertex -9.85845 5.41973 0
    endloop
  endfacet
  facet normal -0 0 -1
    outer loop
      vertex -2.97634 -0.375999 0
      vertex -11.1613 -1.41 0
      vertex -3 0 0
    endloop
  endfacet
  facet normal 0 0 -1
    outer loop
      vertex -2.90575 0.746069 0
      vertex -10.8966 2.79776 0
      vertex -10.46 4.1414 0
    endloop
  endfacet
  facet normal 0 0 -1
    outer loop
      vertex -11.25 0 0
      vertex -3 0 0
      vertex -11.1613 -1.41 0
    endloop
  endfacet
  facet normal 0 0 -1
    outer loop
      vertex -2.97634 0.375999 0
      vertex -11.1613 1.41 0
      vertex -10.8966 2.79776 0
    endloop
  endfacet
  facet normal 0 0 -1
    outer loop
      vertex -3 0 0
      vertex -11.25 0 0
      vertex -11.1613 1.41 0
    endloop
  endfacet
  facet normal 0.248689 -0.968583 0
    outer loop
      vertex 2.10804 -11.0507 0
      vertex 3.47644 -10.6994 2.5
      vertex 2.10804 -11.0507 2.5
    endloop
  endfacet
  facet normal 0.248689 -0.968583 0
    outer loop
      vertex 3.47644 -10.6994 2.5
      vertex 2.10804 -11.0507 0
      vertex 3.47644 -10.6994 0
    endloop
  endfacet
  facet normal 0.125334 -0.992115 0
    outer loop
      vertex 0.706393 -11.2278 0
      vertex 2.10804 -11.0507 2.5
      vertex 0.706393 -11.2278 2.5
    endloop
  endfacet
  facet normal 0.125334 -0.992115 0
    outer loop
      vertex 2.10804 -11.0507 2.5
      vertex 0.706393 -11.2278 0
      vertex 2.10804 -11.0507 0
    endloop
  endfacet
  facet normal 0.587785 -0.809017 0
    outer loop
      vertex 6.02805 -9.49869 0
      vertex 7.17102 -8.66827 2.5
      vertex 6.02805 -9.49869 2.5
    endloop
  endfacet
  facet normal 0.587785 -0.809017 0
    outer loop
      vertex 7.17102 -8.66827 2.5
      vertex 6.02805 -9.49869 0
      vertex 7.17102 -8.66827 0
    endloop
  endfacet
  facet normal 0.481754 -0.876307 0
    outer loop
      vertex 4.79002 -10.1793 0
      vertex 6.02805 -9.49869 2.5
      vertex 4.79002 -10.1793 2.5
    endloop
  endfacet
  facet normal 0.481754 -0.876307 0
    outer loop
      vertex 6.02805 -9.49869 2.5
      vertex 4.79002 -10.1793 0
      vertex 6.02805 -9.49869 0
    endloop
  endfacet
  facet normal -0.481754 -0.876307 0
    outer loop
      vertex -6.02805 -9.49869 0
      vertex -4.79002 -10.1793 2.5
      vertex -6.02805 -9.49869 2.5
    endloop
  endfacet
  facet normal -0.481754 -0.876307 -0
    outer loop
      vertex -4.79002 -10.1793 2.5
      vertex -6.02805 -9.49869 0
      vertex -4.79002 -10.1793 0
    endloop
  endfacet
  facet normal -0.587785 -0.809017 0
    outer loop
      vertex -7.17102 -8.66827 0
      vertex -6.02805 -9.49869 2.5
      vertex -7.17102 -8.66827 2.5
    endloop
  endfacet
  facet normal -0.587785 -0.809017 -0
    outer loop
      vertex -6.02805 -9.49869 2.5
      vertex -7.17102 -8.66827 0
      vertex -6.02805 -9.49869 0
    endloop
  endfacet
  facet normal -0.248689 -0.968583 0
    outer loop
      vertex -3.47644 -10.6994 0
      vertex -2.10804 -11.0507 2.5
      vertex -3.47644 -10.6994 2.5
    endloop
  endfacet
  facet normal -0.248689 -0.968583 -0
    outer loop
      vertex -2.10804 -11.0507 2.5
      vertex -3.47644 -10.6994 0
      vertex -2.10804 -11.0507 0
    endloop
  endfacet
  facet normal -0.904827 -0.425779 0
    outer loop
      vertex -9.85845 -5.41973 0
      vertex -10.46 -4.1414 2.5
      vertex -10.46 -4.1414 0
    endloop
  endfacet
  facet normal -0.904827 -0.425779 0
    outer loop
      vertex -10.46 -4.1414 2.5
      vertex -9.85845 -5.41973 0
      vertex -9.85845 -5.41973 2.5
    endloop
  endfacet
  facet normal -0.982287 -0.187382 0
    outer loop
      vertex -10.8966 -2.79776 0
      vertex -11.1613 -1.41 2.5
      vertex -11.1613 -1.41 0
    endloop
  endfacet
  facet normal -0.982287 -0.187382 0
    outer loop
      vertex -11.1613 -1.41 2.5
      vertex -10.8966 -2.79776 0
      vertex -10.8966 -2.79776 2.5
    endloop
  endfacet
  facet normal -0.998027 -0.0627907 0
    outer loop
      vertex -11.1613 -1.41 0
      vertex -11.25 0 2.5
      vertex -11.25 0 0
    endloop
  endfacet
  facet normal -0.998027 -0.0627907 0
    outer loop
      vertex -11.25 0 2.5
      vertex -11.1613 -1.41 0
      vertex -11.1613 -1.41 2.5
    endloop
  endfacet
  facet normal -0.368125 -0.929776 0
    outer loop
      vertex -4.79002 -10.1793 0
      vertex -3.47644 -10.6994 2.5
      vertex -4.79002 -10.1793 2.5
    endloop
  endfacet
  facet normal -0.368125 -0.929776 -0
    outer loop
      vertex -3.47644 -10.6994 2.5
      vertex -4.79002 -10.1793 0
      vertex -3.47644 -10.6994 0
    endloop
  endfacet
  facet normal -0.125334 -0.992115 0
    outer loop
      vertex -2.10804 -11.0507 0
      vertex -0.706393 -11.2278 2.5
      vertex -2.10804 -11.0507 2.5
    endloop
  endfacet
  facet normal -0.125334 -0.992115 -0
    outer loop
      vertex -0.706393 -11.2278 2.5
      vertex -2.10804 -11.0507 0
      vertex -0.706393 -11.2278 0
    endloop
  endfacet
  facet normal 0.951056 -0.309019 0
    outer loop
      vertex -2.90575 0.746069 2.5
      vertex -2.78933 1.10437 0
      vertex -2.78933 1.10437 2.5
    endloop
  endfacet
  facet normal 0.951056 -0.309019 0
    outer loop
      vertex -2.78933 1.10437 0
      vertex -2.90575 0.746069 2.5
      vertex -2.90575 0.746069 0
    endloop
  endfacet
  facet normal -0.844328 -0.535827 0
    outer loop
      vertex 2.62892 1.44526 0
      vertex 2.42705 1.76336 2.5
      vertex 2.42705 1.76336 0
    endloop
  endfacet
  facet normal -0.844328 -0.535827 0
    outer loop
      vertex 2.42705 1.76336 2.5
      vertex 2.62892 1.44526 0
      vertex 2.62892 1.44526 2.5
    endloop
  endfacet
  facet normal -0.248689 -0.968583 0
    outer loop
      vertex 0.562143 2.94686 0
      vertex 0.927051 2.85317 2.5
      vertex 0.562143 2.94686 2.5
    endloop
  endfacet
  facet normal -0.248689 -0.968583 -0
    outer loop
      vertex 0.927051 2.85317 2.5
      vertex 0.562143 2.94686 0
      vertex 0.927051 2.85317 0
    endloop
  endfacet
  facet normal -0.368126 -0.929776 0
    outer loop
      vertex 0.927051 2.85317 0
      vertex 1.27734 2.71448 2.5
      vertex 0.927051 2.85317 2.5
    endloop
  endfacet
  facet normal -0.368126 -0.929776 -0
    outer loop
      vertex 1.27734 2.71448 2.5
      vertex 0.927051 2.85317 0
      vertex 1.27734 2.71448 0
    endloop
  endfacet
  facet normal 0.368126 -0.929776 0
    outer loop
      vertex -1.27734 2.71448 0
      vertex -0.927051 2.85317 2.5
      vertex -1.27734 2.71448 2.5
    endloop
  endfacet
  facet normal 0.368126 -0.929776 0
    outer loop
      vertex -0.927051 2.85317 2.5
      vertex -1.27734 2.71448 0
      vertex -0.927051 2.85317 0
    endloop
  endfacet
  facet normal 0.904828 -0.425778 0
    outer loop
      vertex -2.78933 1.10437 2.5
      vertex -2.62892 1.44526 0
      vertex -2.62892 1.44526 2.5
    endloop
  endfacet
  facet normal 0.904828 -0.425778 0
    outer loop
      vertex -2.62892 1.44526 0
      vertex -2.78933 1.10437 2.5
      vertex -2.78933 1.10437 0
    endloop
  endfacet
  facet normal -0.998027 0.0627931 0
    outer loop
      vertex 2.97634 -0.375999 0
      vertex 3 0 2.5
      vertex 3 0 0
    endloop
  endfacet
  facet normal -0.998027 0.0627931 0
    outer loop
      vertex 3 0 2.5
      vertex 2.97634 -0.375999 0
      vertex 2.97634 -0.375999 2.5
    endloop
  endfacet
  facet normal -0.368126 0.929776 0
    outer loop
      vertex 1.27734 -2.71448 0
      vertex 0.927051 -2.85317 2.5
      vertex 1.27734 -2.71448 2.5
    endloop
  endfacet
  facet normal -0.368126 0.929776 0
    outer loop
      vertex 0.927051 -2.85317 2.5
      vertex 1.27734 -2.71448 0
      vertex 0.927051 -2.85317 0
    endloop
  endfacet
  facet normal -0.684548 -0.728968 0
    outer loop
      vertex 1.91227 2.31154 0
      vertex 2.18691 2.05364 2.5
      vertex 1.91227 2.31154 2.5
    endloop
  endfacet
  facet normal -0.684548 -0.728968 -0
    outer loop
      vertex 2.18691 2.05364 2.5
      vertex 1.91227 2.31154 0
      vertex 2.18691 2.05364 0
    endloop
  endfacet
  facet normal -0.587784 -0.809018 0
    outer loop
      vertex 1.60748 2.53298 0
      vertex 1.91227 2.31154 2.5
      vertex 1.60748 2.53298 2.5
    endloop
  endfacet
  facet normal -0.587784 -0.809018 -0
    outer loop
      vertex 1.91227 2.31154 2.5
      vertex 1.60748 2.53298 0
      vertex 1.91227 2.31154 0
    endloop
  endfacet
  facet normal 0.770513 -0.637424 0
    outer loop
      vertex -2.42705 1.76336 2.5
      vertex -2.18691 2.05364 0
      vertex -2.18691 2.05364 2.5
    endloop
  endfacet
  facet normal 0.770513 -0.637424 0
    outer loop
      vertex -2.18691 2.05364 0
      vertex -2.42705 1.76336 2.5
      vertex -2.42705 1.76336 0
    endloop
  endfacet
  facet normal 0.684548 -0.728968 0
    outer loop
      vertex -2.18691 2.05364 0
      vertex -1.91227 2.31154 2.5
      vertex -2.18691 2.05364 2.5
    endloop
  endfacet
  facet normal 0.684548 -0.728968 0
    outer loop
      vertex -1.91227 2.31154 2.5
      vertex -2.18691 2.05364 0
      vertex -1.91227 2.31154 0
    endloop
  endfacet
  facet normal -0.998027 -0.0627931 0
    outer loop
      vertex 3 0 0
      vertex 2.97634 0.375999 2.5
      vertex 2.97634 0.375999 0
    endloop
  endfacet
  facet normal -0.998027 -0.0627931 0
    outer loop
      vertex 2.97634 0.375999 2.5
      vertex 3 0 0
      vertex 3 0 2.5
    endloop
  endfacet
  facet normal 0.248689 0.968583 -0
    outer loop
      vertex -0.562143 -2.94686 0
      vertex -0.927051 -2.85317 2.5
      vertex -0.562143 -2.94686 2.5
    endloop
  endfacet
  facet normal 0.248689 0.968583 0
    outer loop
      vertex -0.927051 -2.85317 2.5
      vertex -0.562143 -2.94686 0
      vertex -0.927051 -2.85317 0
    endloop
  endfacet
  facet normal -0.248689 0.968583 0
    outer loop
      vertex 0.927051 -2.85317 0
      vertex 0.562143 -2.94686 2.5
      vertex 0.927051 -2.85317 2.5
    endloop
  endfacet
  facet normal -0.248689 0.968583 0
    outer loop
      vertex 0.562143 -2.94686 2.5
      vertex 0.927051 -2.85317 0
      vertex 0.562143 -2.94686 0
    endloop
  endfacet
  facet normal -0.770513 -0.637424 0
    outer loop
      vertex 2.42705 1.76336 0
      vertex 2.18691 2.05364 2.5
      vertex 2.18691 2.05364 0
    endloop
  endfacet
  facet normal -0.770513 -0.637424 0
    outer loop
      vertex 2.18691 2.05364 2.5
      vertex 2.42705 1.76336 0
      vertex 2.42705 1.76336 2.5
    endloop
  endfacet
  facet normal 0 -1 0
    outer loop
      vertex -0.188371 2.99408 0
      vertex 0.188371 2.99408 2.5
      vertex -0.188371 2.99408 2.5
    endloop
  endfacet
  facet normal 0 -1 -0
    outer loop
      vertex 0.188371 2.99408 2.5
      vertex -0.188371 2.99408 0
      vertex 0.188371 2.99408 0
    endloop
  endfacet
  facet normal 0.998027 -0.0627931 0
    outer loop
      vertex -3 0 2.5
      vertex -2.97634 0.375999 0
      vertex -2.97634 0.375999 2.5
    endloop
  endfacet
  facet normal 0.998027 -0.0627931 0
    outer loop
      vertex -2.97634 0.375999 0
      vertex -3 0 2.5
      vertex -3 0 0
    endloop
  endfacet
  facet normal 0.844328 -0.535827 0
    outer loop
      vertex -2.62892 1.44526 2.5
      vertex -2.42705 1.76336 0
      vertex -2.42705 1.76336 2.5
    endloop
  endfacet
  facet normal 0.844328 -0.535827 0
    outer loop
      vertex -2.42705 1.76336 0
      vertex -2.62892 1.44526 2.5
      vertex -2.62892 1.44526 0
    endloop
  endfacet
  facet normal 0.125333 -0.992115 0
    outer loop
      vertex -0.562143 2.94686 0
      vertex -0.188371 2.99408 2.5
      vertex -0.562143 2.94686 2.5
    endloop
  endfacet
  facet normal 0.125333 -0.992115 0
    outer loop
      vertex -0.188371 2.99408 2.5
      vertex -0.562143 2.94686 0
      vertex -0.188371 2.99408 0
    endloop
  endfacet
  facet normal 0.248689 -0.968583 0
    outer loop
      vertex -0.927051 2.85317 0
      vertex -0.562143 2.94686 2.5
      vertex -0.927051 2.85317 2.5
    endloop
  endfacet
  facet normal 0.248689 -0.968583 0
    outer loop
      vertex -0.562143 2.94686 2.5
      vertex -0.927051 2.85317 0
      vertex -0.562143 2.94686 0
    endloop
  endfacet
  facet normal 0.481754 -0.876307 0
    outer loop
      vertex -1.60748 2.53298 0
      vertex -1.27734 2.71448 2.5
      vertex -1.60748 2.53298 2.5
    endloop
  endfacet
  facet normal 0.481754 -0.876307 0
    outer loop
      vertex -1.27734 2.71448 2.5
      vertex -1.60748 2.53298 0
      vertex -1.27734 2.71448 0
    endloop
  endfacet
  facet normal 0.587784 -0.809018 0
    outer loop
      vertex -1.91227 2.31154 0
      vertex -1.60748 2.53298 2.5
      vertex -1.91227 2.31154 2.5
    endloop
  endfacet
  facet normal 0.587784 -0.809018 0
    outer loop
      vertex -1.60748 2.53298 2.5
      vertex -1.91227 2.31154 0
      vertex -1.60748 2.53298 0
    endloop
  endfacet
  facet normal -0.982288 0.18738 0
    outer loop
      vertex 2.90575 -0.746069 0
      vertex 2.97634 -0.375999 2.5
      vertex 2.97634 -0.375999 0
    endloop
  endfacet
  facet normal -0.982288 0.18738 0
    outer loop
      vertex 2.97634 -0.375999 2.5
      vertex 2.90575 -0.746069 0
      vertex 2.90575 -0.746069 2.5
    endloop
  endfacet
  facet normal -0.125333 0.992115 0
    outer loop
      vertex 0.562143 -2.94686 0
      vertex 0.188371 -2.99408 2.5
      vertex 0.562143 -2.94686 2.5
    endloop
  endfacet
  facet normal -0.125333 0.992115 0
    outer loop
      vertex 0.188371 -2.99408 2.5
      vertex 0.562143 -2.94686 0
      vertex 0.188371 -2.99408 0
    endloop
  endfacet
  facet normal -0.904828 -0.425778 0
    outer loop
      vertex 2.78933 1.10437 0
      vertex 2.62892 1.44526 2.5
      vertex 2.62892 1.44526 0
    endloop
  endfacet
  facet normal -0.904828 -0.425778 0
    outer loop
      vertex 2.62892 1.44526 2.5
      vertex 2.78933 1.10437 0
      vertex 2.78933 1.10437 2.5
    endloop
  endfacet
  facet normal -0.951056 -0.309019 0
    outer loop
      vertex 2.90575 0.746069 0
      vertex 2.78933 1.10437 2.5
      vertex 2.78933 1.10437 0
    endloop
  endfacet
  facet normal -0.951056 -0.309019 0
    outer loop
      vertex 2.78933 1.10437 2.5
      vertex 2.90575 0.746069 0
      vertex 2.90575 0.746069 2.5
    endloop
  endfacet
  facet normal -0.982288 -0.18738 0
    outer loop
      vertex 2.97634 0.375999 0
      vertex 2.90575 0.746069 2.5
      vertex 2.90575 0.746069 0
    endloop
  endfacet
  facet normal -0.982288 -0.18738 0
    outer loop
      vertex 2.90575 0.746069 2.5
      vertex 2.97634 0.375999 0
      vertex 2.97634 0.375999 2.5
    endloop
  endfacet
  facet normal -0.125333 -0.992115 0
    outer loop
      vertex 0.188371 2.99408 0
      vertex 0.562143 2.94686 2.5
      vertex 0.188371 2.99408 2.5
    endloop
  endfacet
  facet normal -0.125333 -0.992115 -0
    outer loop
      vertex 0.562143 2.94686 2.5
      vertex 0.188371 2.99408 0
      vertex 0.562143 2.94686 0
    endloop
  endfacet
  facet normal -0.481754 -0.876307 0
    outer loop
      vertex 1.27734 2.71448 0
      vertex 1.60748 2.53298 2.5
      vertex 1.27734 2.71448 2.5
    endloop
  endfacet
  facet normal -0.481754 -0.876307 -0
    outer loop
      vertex 1.60748 2.53298 2.5
      vertex 1.27734 2.71448 0
      vertex 1.60748 2.53298 0
    endloop
  endfacet
  facet normal 0.982288 -0.18738 0
    outer loop
      vertex -2.97634 0.375999 2.5
      vertex -2.90575 0.746069 0
      vertex -2.90575 0.746069 2.5
    endloop
  endfacet
  facet normal 0.982288 -0.18738 0
    outer loop
      vertex -2.90575 0.746069 0
      vertex -2.97634 0.375999 2.5
      vertex -2.97634 0.375999 0
    endloop
  endfacet
  facet normal -0.481754 0.876307 0
    outer loop
      vertex 1.60748 -2.53298 0
      vertex 1.27734 -2.71448 2.5
      vertex 1.60748 -2.53298 2.5
    endloop
  endfacet
  facet normal -0.481754 0.876307 0
    outer loop
      vertex 1.27734 -2.71448 2.5
      vertex 1.60748 -2.53298 0
      vertex 1.27734 -2.71448 0
    endloop
  endfacet
  facet normal -0.684548 0.728968 0
    outer loop
      vertex 2.18691 -2.05364 0
      vertex 1.91227 -2.31154 2.5
      vertex 2.18691 -2.05364 2.5
    endloop
  endfacet
  facet normal -0.684548 0.728968 0
    outer loop
      vertex 1.91227 -2.31154 2.5
      vertex 2.18691 -2.05364 0
      vertex 1.91227 -2.31154 0
    endloop
  endfacet
  facet normal -0.770513 0.637424 0
    outer loop
      vertex 2.18691 -2.05364 0
      vertex 2.42705 -1.76336 2.5
      vertex 2.42705 -1.76336 0
    endloop
  endfacet
  facet normal -0.770513 0.637424 0
    outer loop
      vertex 2.42705 -1.76336 2.5
      vertex 2.18691 -2.05364 0
      vertex 2.18691 -2.05364 2.5
    endloop
  endfacet
  facet normal 0.125333 0.992115 -0
    outer loop
      vertex -0.188371 -2.99408 0
      vertex -0.562143 -2.94686 2.5
      vertex -0.188371 -2.99408 2.5
    endloop
  endfacet
  facet normal 0.125333 0.992115 0
    outer loop
      vertex -0.562143 -2.94686 2.5
      vertex -0.188371 -2.99408 0
      vertex -0.562143 -2.94686 0
    endloop
  endfacet
  facet normal 0.998027 0.0627931 0
    outer loop
      vertex -2.97634 -0.375999 2.5
      vertex -3 0 0
      vertex -3 0 2.5
    endloop
  endfacet
  facet normal 0.998027 0.0627931 0
    outer loop
      vertex -3 0 0
      vertex -2.97634 -0.375999 2.5
      vertex -2.97634 -0.375999 0
    endloop
  endfacet
  facet normal 0.904828 0.425778 0
    outer loop
      vertex -2.62892 -1.44526 2.5
      vertex -2.78933 -1.10437 0
      vertex -2.78933 -1.10437 2.5
    endloop
  endfacet
  facet normal 0.904828 0.425778 0
    outer loop
      vertex -2.78933 -1.10437 0
      vertex -2.62892 -1.44526 2.5
      vertex -2.62892 -1.44526 0
    endloop
  endfacet
  facet normal 0.951056 0.309019 0
    outer loop
      vertex -2.78933 -1.10437 2.5
      vertex -2.90575 -0.746069 0
      vertex -2.90575 -0.746069 2.5
    endloop
  endfacet
  facet normal 0.951056 0.309019 0
    outer loop
      vertex -2.90575 -0.746069 0
      vertex -2.78933 -1.10437 2.5
      vertex -2.78933 -1.10437 0
    endloop
  endfacet
  facet normal 0.684548 0.728968 -0
    outer loop
      vertex -1.91227 -2.31154 0
      vertex -2.18691 -2.05364 2.5
      vertex -1.91227 -2.31154 2.5
    endloop
  endfacet
  facet normal 0.684548 0.728968 0
    outer loop
      vertex -2.18691 -2.05364 2.5
      vertex -1.91227 -2.31154 0
      vertex -2.18691 -2.05364 0
    endloop
  endfacet
  facet normal -0.951056 0.309019 0
    outer loop
      vertex 2.78933 -1.10437 0
      vertex 2.90575 -0.746069 2.5
      vertex 2.90575 -0.746069 0
    endloop
  endfacet
  facet normal -0.951056 0.309019 0
    outer loop
      vertex 2.90575 -0.746069 2.5
      vertex 2.78933 -1.10437 0
      vertex 2.78933 -1.10437 2.5
    endloop
  endfacet
  facet normal -0.904828 0.425778 0
    outer loop
      vertex 2.62892 -1.44526 0
      vertex 2.78933 -1.10437 2.5
      vertex 2.78933 -1.10437 0
    endloop
  endfacet
  facet normal -0.904828 0.425778 0
    outer loop
      vertex 2.78933 -1.10437 2.5
      vertex 2.62892 -1.44526 0
      vertex 2.62892 -1.44526 2.5
    endloop
  endfacet
  facet normal -0.587784 0.809018 0
    outer loop
      vertex 1.91227 -2.31154 0
      vertex 1.60748 -2.53298 2.5
      vertex 1.91227 -2.31154 2.5
    endloop
  endfacet
  facet normal -0.587784 0.809018 0
    outer loop
      vertex 1.60748 -2.53298 2.5
      vertex 1.91227 -2.31154 0
      vertex 1.60748 -2.53298 0
    endloop
  endfacet
  facet normal -0.844328 0.535827 0
    outer loop
      vertex 2.42705 -1.76336 0
      vertex 2.62892 -1.44526 2.5
      vertex 2.62892 -1.44526 0
    endloop
  endfacet
  facet normal -0.844328 0.535827 0
    outer loop
      vertex 2.62892 -1.44526 2.5
      vertex 2.42705 -1.76336 0
      vertex 2.42705 -1.76336 2.5
    endloop
  endfacet
  facet normal 0.587784 0.809018 -0
    outer loop
      vertex -1.60748 -2.53298 0
      vertex -1.91227 -2.31154 2.5
      vertex -1.60748 -2.53298 2.5
    endloop
  endfacet
  facet normal 0.587784 0.809018 0
    outer loop
      vertex -1.91227 -2.31154 2.5
      vertex -1.60748 -2.53298 0
      vertex -1.91227 -2.31154 0
    endloop
  endfacet
  facet normal 0 1 -0
    outer loop
      vertex 0.188371 -2.99408 0
      vertex -0.188371 -2.99408 2.5
      vertex 0.188371 -2.99408 2.5
    endloop
  endfacet
  facet normal 0 1 0
    outer loop
      vertex -0.188371 -2.99408 2.5
      vertex 0.188371 -2.99408 0
      vertex -0.188371 -2.99408 0
    endloop
  endfacet
  facet normal 0.982288 0.18738 0
    outer loop
      vertex -2.90575 -0.746069 2.5
      vertex -2.97634 -0.375999 0
      vertex -2.97634 -0.375999 2.5
    endloop
  endfacet
  facet normal 0.982288 0.18738 0
    outer loop
      vertex -2.97634 -0.375999 0
      vertex -2.90575 -0.746069 2.5
      vertex -2.90575 -0.746069 0
    endloop
  endfacet
  facet normal 0.844328 0.535827 0
    outer loop
      vertex -2.42705 -1.76336 2.5
      vertex -2.62892 -1.44526 0
      vertex -2.62892 -1.44526 2.5
    endloop
  endfacet
  facet normal 0.844328 0.535827 0
    outer loop
      vertex -2.62892 -1.44526 0
      vertex -2.42705 -1.76336 2.5
      vertex -2.42705 -1.76336 0
    endloop
  endfacet
  facet normal 0.481754 0.876307 -0
    outer loop
      vertex -1.27734 -2.71448 0
      vertex -1.60748 -2.53298 2.5
      vertex -1.27734 -2.71448 2.5
    endloop
  endfacet
  facet normal 0.481754 0.876307 0
    outer loop
      vertex -1.60748 -2.53298 2.5
      vertex -1.27734 -2.71448 0
      vertex -1.60748 -2.53298 0
    endloop
  endfacet
  facet normal 0.368126 0.929776 -0
    outer loop
      vertex -0.927051 -2.85317 0
      vertex -1.27734 -2.71448 2.5
      vertex -0.927051 -2.85317 2.5
    endloop
  endfacet
  facet normal 0.368126 0.929776 0
    outer loop
      vertex -1.27734 -2.71448 2.5
      vertex -0.927051 -2.85317 0
      vertex -1.27734 -2.71448 0
    endloop
  endfacet
  facet normal 0.770513 0.637424 0
    outer loop
      vertex -2.18691 -2.05364 2.5
      vertex -2.42705 -1.76336 0
      vertex -2.42705 -1.76336 2.5
    endloop
  endfacet
  facet normal 0.770513 0.637424 0
    outer loop
      vertex -2.42705 -1.76336 0
      vertex -2.18691 -2.05364 2.5
      vertex -2.18691 -2.05364 0
    endloop
  endfacet
endsolid OpenSCAD_Model
