solid OpenSCAD_Model
  facet normal -1 0 0
    outer loop
      vertex 0 0 0
      vertex 0 22.2 3
      vertex 0 22.2 0
    endloop
  endfacet
  facet normal -1 -0 0
    outer loop
      vertex 0 22.2 3
      vertex 0 0 0
      vertex 0 0 3
    endloop
  endfacet
  facet normal 0 0 1
    outer loop
      vertex 45.2 22.2 3
      vertex 41.2 19.2 3
      vertex 45.2 0 3
    endloop
  endfacet
  facet normal 0 0 1
    outer loop
      vertex 45.2 22.2 3
      vertex 37.7 19.2 3
      vertex 41.2 19.2 3
    endloop
  endfacet
  facet normal 0 0 1
    outer loop
      vertex 37.7 19.2 3
      vertex 25.6 11.1 3
      vertex 37.7 3 3
    endloop
  endfacet
  facet normal 0 0 1
    outer loop
      vertex 37.7 19.2 3
      vertex 25.5763 11.476 3
      vertex 25.6 11.1 3
    endloop
  endfacet
  facet normal 0 0 1
    outer loop
      vertex 37.7 19.2 3
      vertex 25.5057 11.8461 3
      vertex 25.5763 11.476 3
    endloop
  endfacet
  facet normal 0 0 1
    outer loop
      vertex 37.7 19.2 3
      vertex 25.3893 12.2044 3
      vertex 25.5057 11.8461 3
    endloop
  endfacet
  facet normal 0 0 1
    outer loop
      vertex 37.7 19.2 3
      vertex 25.2289 12.5453 3
      vertex 25.3893 12.2044 3
    endloop
  endfacet
  facet normal 0 0 1
    outer loop
      vertex 37.7 19.2 3
      vertex 25.0271 12.8634 3
      vertex 25.2289 12.5453 3
    endloop
  endfacet
  facet normal 0 0 1
    outer loop
      vertex 37.7 19.2 3
      vertex 24.7869 13.1536 3
      vertex 25.0271 12.8634 3
    endloop
  endfacet
  facet normal 0 0 1
    outer loop
      vertex 37.7 19.2 3
      vertex 24.5123 13.4115 3
      vertex 24.7869 13.1536 3
    endloop
  endfacet
  facet normal 0 0 1
    outer loop
      vertex 37.7 19.2 3
      vertex 24.2075 13.633 3
      vertex 24.5123 13.4115 3
    endloop
  endfacet
  facet normal 0 0 1
    outer loop
      vertex 37.7 19.2 3
      vertex 23.8773 13.8145 3
      vertex 24.2075 13.633 3
    endloop
  endfacet
  facet normal 0 0 1
    outer loop
      vertex 7.55 19.2 3
      vertex 37.7 19.2 3
      vertex 45.2 22.2 3
    endloop
  endfacet
  facet normal 0 0 1
    outer loop
      vertex 37.7 19.2 3
      vertex 23.5271 13.9532 3
      vertex 23.8773 13.8145 3
    endloop
  endfacet
  facet normal 0 0 1
    outer loop
      vertex 37.7 19.2 3
      vertex 23.1621 14.0469 3
      vertex 23.5271 13.9532 3
    endloop
  endfacet
  facet normal 0 0 1
    outer loop
      vertex 37.7 19.2 3
      vertex 22.7884 14.0941 3
      vertex 23.1621 14.0469 3
    endloop
  endfacet
  facet normal 0 0 1
    outer loop
      vertex 37.7 19.2 3
      vertex 7.55 19.2 3
      vertex 22.7884 14.0941 3
    endloop
  endfacet
  facet normal 0 0 1
    outer loop
      vertex 22.7884 14.0941 3
      vertex 7.55 19.2 3
      vertex 22.4116 14.0941 3
    endloop
  endfacet
  facet normal 0 0 1
    outer loop
      vertex 22.4116 14.0941 3
      vertex 7.55 19.2 3
      vertex 22.0379 14.0469 3
    endloop
  endfacet
  facet normal 0 0 1
    outer loop
      vertex 19.6237 11.476 3
      vertex 7.55 19.2 3
      vertex 19.6 11.1 3
    endloop
  endfacet
  facet normal 0 0 1
    outer loop
      vertex 19.6943 11.8461 3
      vertex 7.55 19.2 3
      vertex 19.6237 11.476 3
    endloop
  endfacet
  facet normal 0 0 1
    outer loop
      vertex 19.8107 12.2044 3
      vertex 7.55 19.2 3
      vertex 19.6943 11.8461 3
    endloop
  endfacet
  facet normal 0 0 1
    outer loop
      vertex 19.9711 12.5453 3
      vertex 7.55 19.2 3
      vertex 19.8107 12.2044 3
    endloop
  endfacet
  facet normal 0 0 1
    outer loop
      vertex 20.1729 12.8634 3
      vertex 7.55 19.2 3
      vertex 19.9711 12.5453 3
    endloop
  endfacet
  facet normal 0 0 1
    outer loop
      vertex 20.4131 13.1536 3
      vertex 7.55 19.2 3
      vertex 20.1729 12.8634 3
    endloop
  endfacet
  facet normal 0 0 1
    outer loop
      vertex 20.6877 13.4115 3
      vertex 7.55 19.2 3
      vertex 20.4131 13.1536 3
    endloop
  endfacet
  facet normal 0 0 1
    outer loop
      vertex 20.9925 13.633 3
      vertex 7.55 19.2 3
      vertex 20.6877 13.4115 3
    endloop
  endfacet
  facet normal 0 0 1
    outer loop
      vertex 21.3227 13.8145 3
      vertex 7.55 19.2 3
      vertex 20.9925 13.633 3
    endloop
  endfacet
  facet normal 0 0 1
    outer loop
      vertex 21.6729 13.9532 3
      vertex 7.55 19.2 3
      vertex 21.3227 13.8145 3
    endloop
  endfacet
  facet normal 0 0 1
    outer loop
      vertex 22.0379 14.0469 3
      vertex 7.55 19.2 3
      vertex 21.6729 13.9532 3
    endloop
  endfacet
  facet normal -0 0 1
    outer loop
      vertex 0 22.2 3
      vertex 7.55 19.2 3
      vertex 45.2 22.2 3
    endloop
  endfacet
  facet normal 0 0 1
    outer loop
      vertex 4.05 19.2 3
      vertex 0 22.2 3
      vertex 4.05 3 3
    endloop
  endfacet
  facet normal 0 0 1
    outer loop
      vertex 7.55 19.2 3
      vertex 0 22.2 3
      vertex 4.05 19.2 3
    endloop
  endfacet
  facet normal -0 0 1
    outer loop
      vertex 41.2 3 3
      vertex 45.2 0 3
      vertex 41.2 19.2 3
    endloop
  endfacet
  facet normal -0 0 1
    outer loop
      vertex 37.7 3 3
      vertex 45.2 0 3
      vertex 41.2 3 3
    endloop
  endfacet
  facet normal -0 0 1
    outer loop
      vertex 25.5763 10.724 3
      vertex 37.7 3 3
      vertex 25.6 11.1 3
    endloop
  endfacet
  facet normal -0 0 1
    outer loop
      vertex 25.5057 10.3539 3
      vertex 37.7 3 3
      vertex 25.5763 10.724 3
    endloop
  endfacet
  facet normal -0 0 1
    outer loop
      vertex 25.3893 9.99563 3
      vertex 37.7 3 3
      vertex 25.5057 10.3539 3
    endloop
  endfacet
  facet normal -0 0 1
    outer loop
      vertex 25.2289 9.65474 3
      vertex 37.7 3 3
      vertex 25.3893 9.99563 3
    endloop
  endfacet
  facet normal -0 0 1
    outer loop
      vertex 25.0271 9.33664 3
      vertex 37.7 3 3
      vertex 25.2289 9.65474 3
    endloop
  endfacet
  facet normal -0 0 1
    outer loop
      vertex 24.7869 9.04636 3
      vertex 37.7 3 3
      vertex 25.0271 9.33664 3
    endloop
  endfacet
  facet normal -0 0 1
    outer loop
      vertex 24.5123 8.78846 3
      vertex 37.7 3 3
      vertex 24.7869 9.04636 3
    endloop
  endfacet
  facet normal -0 0 1
    outer loop
      vertex 24.2075 8.56702 3
      vertex 37.7 3 3
      vertex 24.5123 8.78846 3
    endloop
  endfacet
  facet normal -0 0 1
    outer loop
      vertex 23.8773 8.38552 3
      vertex 37.7 3 3
      vertex 24.2075 8.56702 3
    endloop
  endfacet
  facet normal -0 0 1
    outer loop
      vertex 23.5271 8.24683 3
      vertex 37.7 3 3
      vertex 23.8773 8.38552 3
    endloop
  endfacet
  facet normal -0 0 1
    outer loop
      vertex 23.1621 8.15314 3
      vertex 37.7 3 3
      vertex 23.5271 8.24683 3
    endloop
  endfacet
  facet normal -0 0 1
    outer loop
      vertex 22.7884 8.10592 3
      vertex 37.7 3 3
      vertex 23.1621 8.15314 3
    endloop
  endfacet
  facet normal 0 0 1
    outer loop
      vertex 7.55 3 3
      vertex 37.7 3 3
      vertex 22.7884 8.10592 3
    endloop
  endfacet
  facet normal 0 0 1
    outer loop
      vertex 7.55 3 3
      vertex 22.7884 8.10592 3
      vertex 22.4116 8.10592 3
    endloop
  endfacet
  facet normal 0 0 1
    outer loop
      vertex 7.55 3 3
      vertex 22.4116 8.10592 3
      vertex 22.0379 8.15314 3
    endloop
  endfacet
  facet normal 0 0 1
    outer loop
      vertex 7.55 3 3
      vertex 22.0379 8.15314 3
      vertex 21.6729 8.24683 3
    endloop
  endfacet
  facet normal 0 0 1
    outer loop
      vertex 7.55 3 3
      vertex 19.6 11.1 3
      vertex 7.55 19.2 3
    endloop
  endfacet
  facet normal 0 0 1
    outer loop
      vertex 19.6 11.1 3
      vertex 7.55 3 3
      vertex 19.6237 10.724 3
    endloop
  endfacet
  facet normal 0 0 1
    outer loop
      vertex 19.6237 10.724 3
      vertex 7.55 3 3
      vertex 19.6943 10.3539 3
    endloop
  endfacet
  facet normal 0 0 1
    outer loop
      vertex 19.6943 10.3539 3
      vertex 7.55 3 3
      vertex 19.8107 9.99563 3
    endloop
  endfacet
  facet normal 0 0 1
    outer loop
      vertex 19.8107 9.99563 3
      vertex 7.55 3 3
      vertex 19.9711 9.65474 3
    endloop
  endfacet
  facet normal 0 0 1
    outer loop
      vertex 19.9711 9.65474 3
      vertex 7.55 3 3
      vertex 20.1729 9.33664 3
    endloop
  endfacet
  facet normal 0 0 1
    outer loop
      vertex 20.1729 9.33664 3
      vertex 7.55 3 3
      vertex 20.4131 9.04636 3
    endloop
  endfacet
  facet normal 0 0 1
    outer loop
      vertex 20.4131 9.04636 3
      vertex 7.55 3 3
      vertex 20.6877 8.78846 3
    endloop
  endfacet
  facet normal 0 0 1
    outer loop
      vertex 7.55 3 3
      vertex 20.9925 8.56702 3
      vertex 20.6877 8.78846 3
    endloop
  endfacet
  facet normal 0 0 1
    outer loop
      vertex 7.55 3 3
      vertex 21.3227 8.38552 3
      vertex 20.9925 8.56702 3
    endloop
  endfacet
  facet normal 0 0 1
    outer loop
      vertex 7.55 3 3
      vertex 21.6729 8.24683 3
      vertex 21.3227 8.38552 3
    endloop
  endfacet
  facet normal 0 0 1
    outer loop
      vertex 37.7 3 3
      vertex 7.55 3 3
      vertex 45.2 0 3
    endloop
  endfacet
  facet normal 0 0 1
    outer loop
      vertex 0 0 3
      vertex 7.55 3 3
      vertex 4.05 3 3
    endloop
  endfacet
  facet normal 0 0 1
    outer loop
      vertex 7.55 3 3
      vertex 0 0 3
      vertex 45.2 0 3
    endloop
  endfacet
  facet normal 0 0 1
    outer loop
      vertex 0 0 3
      vertex 4.05 3 3
      vertex 0 22.2 3
    endloop
  endfacet
  facet normal 1 -0 0
    outer loop
      vertex 45.2 0 3
      vertex 45.2 22.2 0
      vertex 45.2 22.2 3
    endloop
  endfacet
  facet normal 1 0 0
    outer loop
      vertex 45.2 22.2 0
      vertex 45.2 0 3
      vertex 45.2 0 0
    endloop
  endfacet
  facet normal 0 1 0
    outer loop
      vertex 45.2 22.2 3
      vertex 33.6 22.2 1.5
      vertex 0 22.2 3
    endloop
  endfacet
  facet normal 0 1 -0
    outer loop
      vertex 45.2 22.2 0
      vertex 33.6 22.2 1.5
      vertex 45.2 22.2 3
    endloop
  endfacet
  facet normal 0 1 0
    outer loop
      vertex 33.6 22.2 1.5
      vertex 45.2 22.2 0
      vertex 33.6 22.2 0
    endloop
  endfacet
  facet normal 0 1 -0
    outer loop
      vertex 11.6 22.2 1.5
      vertex 0 22.2 3
      vertex 33.6 22.2 1.5
    endloop
  endfacet
  facet normal 0 1 0
    outer loop
      vertex 0 22.2 0
      vertex 11.6 22.2 1.5
      vertex 11.6 22.2 0
    endloop
  endfacet
  facet normal 0 1 0
    outer loop
      vertex 11.6 22.2 1.5
      vertex 0 22.2 0
      vertex 0 22.2 3
    endloop
  endfacet
  facet normal 0 0 -1
    outer loop
      vertex 45.2 0 0
      vertex 42.2 3 0
      vertex 45.2 22.2 0
    endloop
  endfacet
  facet normal 0 0 -1
    outer loop
      vertex 45.2 0 0
      vertex 36.6 3 0
      vertex 42.2 3 0
    endloop
  endfacet
  facet normal 0 0 -1
    outer loop
      vertex 36.6 3 0
      vertex 33.6 3 0
      vertex 36.6 19.2 0
    endloop
  endfacet
  facet normal 0 0 -1
    outer loop
      vertex 45.2 0 0
      vertex 33.6 3 0
      vertex 36.6 3 0
    endloop
  endfacet
  facet normal 0 0 -1
    outer loop
      vertex 45.2 0 0
      vertex 11.6 3 0
      vertex 33.6 3 0
    endloop
  endfacet
  facet normal 0 0 -1
    outer loop
      vertex 8.6 19.2 0
      vertex 11.6 3 0
      vertex 8.6 3 0
    endloop
  endfacet
  facet normal 0 0 -1
    outer loop
      vertex 0 0 0
      vertex 11.6 3 0
      vertex 45.2 0 0
    endloop
  endfacet
  facet normal -0 0 -1
    outer loop
      vertex 11.6 3 0
      vertex 0 0 0
      vertex 8.6 3 0
    endloop
  endfacet
  facet normal -0 0 -1
    outer loop
      vertex 3 3 0
      vertex 0 0 0
      vertex 3 19.2 0
    endloop
  endfacet
  facet normal -0 0 -1
    outer loop
      vertex 8.6 3 0
      vertex 0 0 0
      vertex 3 3 0
    endloop
  endfacet
  facet normal 0 0 -1
    outer loop
      vertex 42.2 19.2 0
      vertex 45.2 22.2 0
      vertex 42.2 3 0
    endloop
  endfacet
  facet normal 0 0 -1
    outer loop
      vertex 36.6 19.2 0
      vertex 45.2 22.2 0
      vertex 42.2 19.2 0
    endloop
  endfacet
  facet normal 0 0 -1
    outer loop
      vertex 36.6 19.2 0
      vertex 33.6 22.2 0
      vertex 45.2 22.2 0
    endloop
  endfacet
  facet normal 0 0 -1
    outer loop
      vertex 33.6 22.2 0
      vertex 36.6 19.2 0
      vertex 33.6 3 0
    endloop
  endfacet
  facet normal 0 0 -1
    outer loop
      vertex 11.6 3 0
      vertex 8.6 19.2 0
      vertex 11.6 22.2 0
    endloop
  endfacet
  facet normal 0 0 -1
    outer loop
      vertex 3 19.2 0
      vertex 11.6 22.2 0
      vertex 8.6 19.2 0
    endloop
  endfacet
  facet normal 0 0 -1
    outer loop
      vertex 3 19.2 0
      vertex 0 22.2 0
      vertex 11.6 22.2 0
    endloop
  endfacet
  facet normal 0 0 -1
    outer loop
      vertex 0 22.2 0
      vertex 3 19.2 0
      vertex 0 0 0
    endloop
  endfacet
  facet normal 0 -1 0
    outer loop
      vertex 0 0 0
      vertex 45.2 0 3
      vertex 0 0 3
    endloop
  endfacet
  facet normal 0 -1 -0
    outer loop
      vertex 45.2 0 3
      vertex 0 0 0
      vertex 45.2 0 0
    endloop
  endfacet
  facet normal 1 -0 0
    outer loop
      vertex 3 3 1.5
      vertex 3 19.2 0
      vertex 3 19.2 1.5
    endloop
  endfacet
  facet normal 1 0 0
    outer loop
      vertex 3 19.2 0
      vertex 3 3 1.5
      vertex 3 3 0
    endloop
  endfacet
  facet normal 0 0 -1
    outer loop
      vertex 3 3 1.5
      vertex 4.05 19.2 1.5
      vertex 4.05 3 1.5
    endloop
  endfacet
  facet normal -0 0 -1
    outer loop
      vertex 4.05 19.2 1.5
      vertex 3 3 1.5
      vertex 3 19.2 1.5
    endloop
  endfacet
  facet normal 0 0 -1
    outer loop
      vertex 7.55 3 1.5
      vertex 8.6 19.2 1.5
      vertex 8.6 3 1.5
    endloop
  endfacet
  facet normal -0 0 -1
    outer loop
      vertex 8.6 19.2 1.5
      vertex 7.55 3 1.5
      vertex 7.55 19.2 1.5
    endloop
  endfacet
  facet normal -1 0 0
    outer loop
      vertex 8.6 3 0
      vertex 8.6 19.2 1.5
      vertex 8.6 19.2 0
    endloop
  endfacet
  facet normal -1 -0 0
    outer loop
      vertex 8.6 19.2 1.5
      vertex 8.6 3 0
      vertex 8.6 3 1.5
    endloop
  endfacet
  facet normal 0 1 -0
    outer loop
      vertex 8.6 3 0
      vertex 7.55 3 1.5
      vertex 8.6 3 1.5
    endloop
  endfacet
  facet normal 0 1 0
    outer loop
      vertex 7.55 3 1.5
      vertex 8.6 3 0
      vertex 4.05 3 1.5
    endloop
  endfacet
  facet normal 0 1 0
    outer loop
      vertex 3 3 0
      vertex 4.05 3 1.5
      vertex 8.6 3 0
    endloop
  endfacet
  facet normal 0 1 0
    outer loop
      vertex 4.05 3 1.5
      vertex 3 3 0
      vertex 3 3 1.5
    endloop
  endfacet
  facet normal 0 1 -0
    outer loop
      vertex 7.55 3 1.5
      vertex 4.05 3 3
      vertex 7.55 3 3
    endloop
  endfacet
  facet normal 0 1 0
    outer loop
      vertex 4.05 3 3
      vertex 7.55 3 1.5
      vertex 4.05 3 1.5
    endloop
  endfacet
  facet normal 0 -1 0
    outer loop
      vertex 3 19.2 0
      vertex 4.05 19.2 1.5
      vertex 3 19.2 1.5
    endloop
  endfacet
  facet normal 0 -1 -0
    outer loop
      vertex 4.05 19.2 1.5
      vertex 3 19.2 0
      vertex 7.55 19.2 1.5
    endloop
  endfacet
  facet normal 0 -1 0
    outer loop
      vertex 8.6 19.2 0
      vertex 7.55 19.2 1.5
      vertex 3 19.2 0
    endloop
  endfacet
  facet normal 0 -1 0
    outer loop
      vertex 7.55 19.2 1.5
      vertex 8.6 19.2 0
      vertex 8.6 19.2 1.5
    endloop
  endfacet
  facet normal 0 -1 0
    outer loop
      vertex 4.05 19.2 1.5
      vertex 7.55 19.2 3
      vertex 4.05 19.2 3
    endloop
  endfacet
  facet normal 0 -1 -0
    outer loop
      vertex 7.55 19.2 3
      vertex 4.05 19.2 1.5
      vertex 7.55 19.2 1.5
    endloop
  endfacet
  facet normal 1 -0 0
    outer loop
      vertex 4.05 3 3
      vertex 4.05 19.2 1.5
      vertex 4.05 19.2 3
    endloop
  endfacet
  facet normal 1 0 0
    outer loop
      vertex 4.05 19.2 1.5
      vertex 4.05 3 3
      vertex 4.05 3 1.5
    endloop
  endfacet
  facet normal -1 0 0
    outer loop
      vertex 7.55 3 1.5
      vertex 7.55 19.2 3
      vertex 7.55 19.2 1.5
    endloop
  endfacet
  facet normal -1 -0 0
    outer loop
      vertex 7.55 19.2 3
      vertex 7.55 3 1.5
      vertex 7.55 3 3
    endloop
  endfacet
  facet normal 1 -0 0
    outer loop
      vertex 36.6 3 1.5
      vertex 36.6 19.2 0
      vertex 36.6 19.2 1.5
    endloop
  endfacet
  facet normal 1 0 0
    outer loop
      vertex 36.6 19.2 0
      vertex 36.6 3 1.5
      vertex 36.6 3 0
    endloop
  endfacet
  facet normal 0 0 -1
    outer loop
      vertex 36.6 3 1.5
      vertex 37.7 19.2 1.5
      vertex 37.7 3 1.5
    endloop
  endfacet
  facet normal -0 0 -1
    outer loop
      vertex 37.7 19.2 1.5
      vertex 36.6 3 1.5
      vertex 36.6 19.2 1.5
    endloop
  endfacet
  facet normal 0 0 -1
    outer loop
      vertex 41.2 3 1.5
      vertex 42.2 19.2 1.5
      vertex 42.2 3 1.5
    endloop
  endfacet
  facet normal -0 0 -1
    outer loop
      vertex 42.2 19.2 1.5
      vertex 41.2 3 1.5
      vertex 41.2 19.2 1.5
    endloop
  endfacet
  facet normal -1 0 0
    outer loop
      vertex 42.2 3 0
      vertex 42.2 19.2 1.5
      vertex 42.2 19.2 0
    endloop
  endfacet
  facet normal -1 -0 0
    outer loop
      vertex 42.2 19.2 1.5
      vertex 42.2 3 0
      vertex 42.2 3 1.5
    endloop
  endfacet
  facet normal 0 -1 0
    outer loop
      vertex 36.6 19.2 0
      vertex 37.7 19.2 1.5
      vertex 36.6 19.2 1.5
    endloop
  endfacet
  facet normal 0 -1 0
    outer loop
      vertex 42.2 19.2 0
      vertex 37.7 19.2 1.5
      vertex 36.6 19.2 0
    endloop
  endfacet
  facet normal 0 -1 0
    outer loop
      vertex 37.7 19.2 1.5
      vertex 42.2 19.2 0
      vertex 41.2 19.2 1.5
    endloop
  endfacet
  facet normal 0 -1 0
    outer loop
      vertex 41.2 19.2 1.5
      vertex 42.2 19.2 0
      vertex 42.2 19.2 1.5
    endloop
  endfacet
  facet normal 0 -1 0
    outer loop
      vertex 37.7 19.2 1.5
      vertex 41.2 19.2 3
      vertex 37.7 19.2 3
    endloop
  endfacet
  facet normal 0 -1 -0
    outer loop
      vertex 41.2 19.2 3
      vertex 37.7 19.2 1.5
      vertex 41.2 19.2 1.5
    endloop
  endfacet
  facet normal 0 1 -0
    outer loop
      vertex 42.2 3 0
      vertex 41.2 3 1.5
      vertex 42.2 3 1.5
    endloop
  endfacet
  facet normal 0 1 0
    outer loop
      vertex 41.2 3 1.5
      vertex 42.2 3 0
      vertex 37.7 3 1.5
    endloop
  endfacet
  facet normal 0 1 0
    outer loop
      vertex 36.6 3 0
      vertex 37.7 3 1.5
      vertex 42.2 3 0
    endloop
  endfacet
  facet normal 0 1 0
    outer loop
      vertex 37.7 3 1.5
      vertex 36.6 3 0
      vertex 36.6 3 1.5
    endloop
  endfacet
  facet normal 0 1 -0
    outer loop
      vertex 41.2 3 1.5
      vertex 37.7 3 3
      vertex 41.2 3 3
    endloop
  endfacet
  facet normal 0 1 0
    outer loop
      vertex 37.7 3 3
      vertex 41.2 3 1.5
      vertex 37.7 3 1.5
    endloop
  endfacet
  facet normal 1 -0 0
    outer loop
      vertex 37.7 3 3
      vertex 37.7 19.2 1.5
      vertex 37.7 19.2 3
    endloop
  endfacet
  facet normal 1 0 0
    outer loop
      vertex 37.7 19.2 1.5
      vertex 37.7 3 3
      vertex 37.7 3 1.5
    endloop
  endfacet
  facet normal -1 0 0
    outer loop
      vertex 41.2 3 1.5
      vertex 41.2 19.2 3
      vertex 41.2 19.2 1.5
    endloop
  endfacet
  facet normal -1 -0 0
    outer loop
      vertex 41.2 19.2 3
      vertex 41.2 3 1.5
      vertex 41.2 3 3
    endloop
  endfacet
  facet normal 1 -0 0
    outer loop
      vertex 11.6 3 1.5
      vertex 11.6 22.2 0
      vertex 11.6 22.2 1.5
    endloop
  endfacet
  facet normal 1 0 0
    outer loop
      vertex 11.6 22.2 0
      vertex 11.6 3 1.5
      vertex 11.6 3 0
    endloop
  endfacet
  facet normal 0 0 -1
    outer loop
      vertex 25.5763 11.476 1.5
      vertex 33.6 3 1.5
      vertex 25.6 11.1 1.5
    endloop
  endfacet
  facet normal 0 0 -1
    outer loop
      vertex 33.6 3 1.5
      vertex 25.5763 10.724 1.5
      vertex 25.6 11.1 1.5
    endloop
  endfacet
  facet normal 0 0 -1
    outer loop
      vertex 33.6 3 1.5
      vertex 25.5057 10.3539 1.5
      vertex 25.5763 10.724 1.5
    endloop
  endfacet
  facet normal 0 0 -1
    outer loop
      vertex 33.6 3 1.5
      vertex 25.3893 9.99563 1.5
      vertex 25.5057 10.3539 1.5
    endloop
  endfacet
  facet normal 0 0 -1
    outer loop
      vertex 33.6 3 1.5
      vertex 25.2289 9.65474 1.5
      vertex 25.3893 9.99563 1.5
    endloop
  endfacet
  facet normal 0 0 -1
    outer loop
      vertex 33.6 3 1.5
      vertex 25.0271 9.33664 1.5
      vertex 25.2289 9.65474 1.5
    endloop
  endfacet
  facet normal 0 0 -1
    outer loop
      vertex 33.6 3 1.5
      vertex 24.7869 9.04636 1.5
      vertex 25.0271 9.33664 1.5
    endloop
  endfacet
  facet normal 0 0 -1
    outer loop
      vertex 33.6 3 1.5
      vertex 24.5123 8.78846 1.5
      vertex 24.7869 9.04636 1.5
    endloop
  endfacet
  facet normal 0 0 -1
    outer loop
      vertex 33.6 3 1.5
      vertex 24.2075 8.56702 1.5
      vertex 24.5123 8.78846 1.5
    endloop
  endfacet
  facet normal 0 0 -1
    outer loop
      vertex 33.6 3 1.5
      vertex 23.8773 8.38552 1.5
      vertex 24.2075 8.56702 1.5
    endloop
  endfacet
  facet normal 0 0 -1
    outer loop
      vertex 33.6 3 1.5
      vertex 23.5271 8.24683 1.5
      vertex 23.8773 8.38552 1.5
    endloop
  endfacet
  facet normal 0 0 -1
    outer loop
      vertex 33.6 3 1.5
      vertex 23.1621 8.15314 1.5
      vertex 23.5271 8.24683 1.5
    endloop
  endfacet
  facet normal 0 0 -1
    outer loop
      vertex 33.6 3 1.5
      vertex 22.7884 8.10592 1.5
      vertex 23.1621 8.15314 1.5
    endloop
  endfacet
  facet normal 0 0 -1
    outer loop
      vertex 33.6 3 1.5
      vertex 22.4116 8.10592 1.5
      vertex 22.7884 8.10592 1.5
    endloop
  endfacet
  facet normal 0 0 -1
    outer loop
      vertex 11.6 3 1.5
      vertex 22.4116 8.10592 1.5
      vertex 33.6 3 1.5
    endloop
  endfacet
  facet normal -0 0 -1
    outer loop
      vertex 22.4116 8.10592 1.5
      vertex 11.6 3 1.5
      vertex 22.0379 8.15314 1.5
    endloop
  endfacet
  facet normal -0 0 -1
    outer loop
      vertex 22.0379 8.15314 1.5
      vertex 11.6 3 1.5
      vertex 21.6729 8.24683 1.5
    endloop
  endfacet
  facet normal -0 0 -1
    outer loop
      vertex 19.6237 10.724 1.5
      vertex 11.6 3 1.5
      vertex 19.6 11.1 1.5
    endloop
  endfacet
  facet normal -0 0 -1
    outer loop
      vertex 19.6943 10.3539 1.5
      vertex 11.6 3 1.5
      vertex 19.6237 10.724 1.5
    endloop
  endfacet
  facet normal -0 0 -1
    outer loop
      vertex 19.8107 9.99563 1.5
      vertex 11.6 3 1.5
      vertex 19.6943 10.3539 1.5
    endloop
  endfacet
  facet normal -0 0 -1
    outer loop
      vertex 19.9711 9.65474 1.5
      vertex 11.6 3 1.5
      vertex 19.8107 9.99563 1.5
    endloop
  endfacet
  facet normal -0 0 -1
    outer loop
      vertex 20.1729 9.33664 1.5
      vertex 11.6 3 1.5
      vertex 19.9711 9.65474 1.5
    endloop
  endfacet
  facet normal -0 0 -1
    outer loop
      vertex 20.4131 9.04636 1.5
      vertex 11.6 3 1.5
      vertex 20.1729 9.33664 1.5
    endloop
  endfacet
  facet normal -0 0 -1
    outer loop
      vertex 20.6877 8.78846 1.5
      vertex 11.6 3 1.5
      vertex 20.4131 9.04636 1.5
    endloop
  endfacet
  facet normal -0 0 -1
    outer loop
      vertex 20.9925 8.56702 1.5
      vertex 11.6 3 1.5
      vertex 20.6877 8.78846 1.5
    endloop
  endfacet
  facet normal -0 0 -1
    outer loop
      vertex 21.3227 8.38552 1.5
      vertex 11.6 3 1.5
      vertex 20.9925 8.56702 1.5
    endloop
  endfacet
  facet normal -0 0 -1
    outer loop
      vertex 21.6729 8.24683 1.5
      vertex 11.6 3 1.5
      vertex 21.3227 8.38552 1.5
    endloop
  endfacet
  facet normal 0 0 -1
    outer loop
      vertex 33.6 3 1.5
      vertex 25.5763 11.476 1.5
      vertex 33.6 22.2 1.5
    endloop
  endfacet
  facet normal 0 0 -1
    outer loop
      vertex 25.5057 11.8461 1.5
      vertex 33.6 22.2 1.5
      vertex 25.5763 11.476 1.5
    endloop
  endfacet
  facet normal 0 0 -1
    outer loop
      vertex 25.3893 12.2044 1.5
      vertex 33.6 22.2 1.5
      vertex 25.5057 11.8461 1.5
    endloop
  endfacet
  facet normal 0 0 -1
    outer loop
      vertex 25.2289 12.5453 1.5
      vertex 33.6 22.2 1.5
      vertex 25.3893 12.2044 1.5
    endloop
  endfacet
  facet normal 0 0 -1
    outer loop
      vertex 25.0271 12.8634 1.5
      vertex 33.6 22.2 1.5
      vertex 25.2289 12.5453 1.5
    endloop
  endfacet
  facet normal 0 0 -1
    outer loop
      vertex 24.7869 13.1536 1.5
      vertex 33.6 22.2 1.5
      vertex 25.0271 12.8634 1.5
    endloop
  endfacet
  facet normal 0 0 -1
    outer loop
      vertex 24.5123 13.4115 1.5
      vertex 33.6 22.2 1.5
      vertex 24.7869 13.1536 1.5
    endloop
  endfacet
  facet normal 0 0 -1
    outer loop
      vertex 24.2075 13.633 1.5
      vertex 33.6 22.2 1.5
      vertex 24.5123 13.4115 1.5
    endloop
  endfacet
  facet normal 0 0 -1
    outer loop
      vertex 23.8773 13.8145 1.5
      vertex 33.6 22.2 1.5
      vertex 24.2075 13.633 1.5
    endloop
  endfacet
  facet normal 0 0 -1
    outer loop
      vertex 23.5271 13.9532 1.5
      vertex 33.6 22.2 1.5
      vertex 23.8773 13.8145 1.5
    endloop
  endfacet
  facet normal 0 0 -1
    outer loop
      vertex 23.1621 14.0469 1.5
      vertex 33.6 22.2 1.5
      vertex 23.5271 13.9532 1.5
    endloop
  endfacet
  facet normal 0 0 -1
    outer loop
      vertex 22.7884 14.0941 1.5
      vertex 33.6 22.2 1.5
      vertex 23.1621 14.0469 1.5
    endloop
  endfacet
  facet normal 0 0 -1
    outer loop
      vertex 22.4116 14.0941 1.5
      vertex 33.6 22.2 1.5
      vertex 22.7884 14.0941 1.5
    endloop
  endfacet
  facet normal 0 0 -1
    outer loop
      vertex 11.6 22.2 1.5
      vertex 22.4116 14.0941 1.5
      vertex 22.0379 14.0469 1.5
    endloop
  endfacet
  facet normal 0 0 -1
    outer loop
      vertex 11.6 22.2 1.5
      vertex 22.0379 14.0469 1.5
      vertex 21.6729 13.9532 1.5
    endloop
  endfacet
  facet normal 0 0 -1
    outer loop
      vertex 11.6 22.2 1.5
      vertex 21.6729 13.9532 1.5
      vertex 21.3227 13.8145 1.5
    endloop
  endfacet
  facet normal 0 0 -1
    outer loop
      vertex 11.6 22.2 1.5
      vertex 21.3227 13.8145 1.5
      vertex 20.9925 13.633 1.5
    endloop
  endfacet
  facet normal 0 0 -1
    outer loop
      vertex 11.6 3 1.5
      vertex 19.6237 11.476 1.5
      vertex 19.6 11.1 1.5
    endloop
  endfacet
  facet normal 0 0 -1
    outer loop
      vertex 11.6 22.2 1.5
      vertex 19.6237 11.476 1.5
      vertex 11.6 3 1.5
    endloop
  endfacet
  facet normal 0 0 -1
    outer loop
      vertex 19.6237 11.476 1.5
      vertex 11.6 22.2 1.5
      vertex 19.6943 11.8461 1.5
    endloop
  endfacet
  facet normal 0 0 -1
    outer loop
      vertex 19.6943 11.8461 1.5
      vertex 11.6 22.2 1.5
      vertex 19.8107 12.2044 1.5
    endloop
  endfacet
  facet normal 0 0 -1
    outer loop
      vertex 19.8107 12.2044 1.5
      vertex 11.6 22.2 1.5
      vertex 19.9711 12.5453 1.5
    endloop
  endfacet
  facet normal 0 0 -1
    outer loop
      vertex 19.9711 12.5453 1.5
      vertex 11.6 22.2 1.5
      vertex 20.1729 12.8634 1.5
    endloop
  endfacet
  facet normal 0 0 -1
    outer loop
      vertex 22.4116 14.0941 1.5
      vertex 11.6 22.2 1.5
      vertex 33.6 22.2 1.5
    endloop
  endfacet
  facet normal 0 0 -1
    outer loop
      vertex 20.6877 13.4115 1.5
      vertex 11.6 22.2 1.5
      vertex 20.9925 13.633 1.5
    endloop
  endfacet
  facet normal 0 0 -1
    outer loop
      vertex 20.4131 13.1536 1.5
      vertex 11.6 22.2 1.5
      vertex 20.6877 13.4115 1.5
    endloop
  endfacet
  facet normal 0 0 -1
    outer loop
      vertex 20.1729 12.8634 1.5
      vertex 11.6 22.2 1.5
      vertex 20.4131 13.1536 1.5
    endloop
  endfacet
  facet normal -1 0 0
    outer loop
      vertex 33.6 3 0
      vertex 33.6 22.2 1.5
      vertex 33.6 22.2 0
    endloop
  endfacet
  facet normal -1 -0 0
    outer loop
      vertex 33.6 22.2 1.5
      vertex 33.6 3 0
      vertex 33.6 3 1.5
    endloop
  endfacet
  facet normal 0 1 -0
    outer loop
      vertex 33.6 3 0
      vertex 11.6 3 1.5
      vertex 33.6 3 1.5
    endloop
  endfacet
  facet normal 0 1 0
    outer loop
      vertex 11.6 3 1.5
      vertex 33.6 3 0
      vertex 11.6 3 0
    endloop
  endfacet
  facet normal -0.904828 -0.425777 0
    outer loop
      vertex 25.3893 12.2044 1.5
      vertex 25.2289 12.5453 3
      vertex 25.2289 12.5453 1.5
    endloop
  endfacet
  facet normal -0.904828 -0.425777 0
    outer loop
      vertex 25.2289 12.5453 3
      vertex 25.3893 12.2044 1.5
      vertex 25.3893 12.2044 3
    endloop
  endfacet
  facet normal -0.844327 -0.535828 0
    outer loop
      vertex 25.2289 12.5453 1.5
      vertex 25.0271 12.8634 3
      vertex 25.0271 12.8634 1.5
    endloop
  endfacet
  facet normal -0.844327 -0.535828 0
    outer loop
      vertex 25.0271 12.8634 3
      vertex 25.2289 12.5453 1.5
      vertex 25.2289 12.5453 3
    endloop
  endfacet
  facet normal -0.368122 -0.929777 0
    outer loop
      vertex 23.5271 13.9532 1.5
      vertex 23.8773 13.8145 3
      vertex 23.5271 13.9532 3
    endloop
  endfacet
  facet normal -0.368122 -0.929777 -0
    outer loop
      vertex 23.8773 13.8145 3
      vertex 23.5271 13.9532 1.5
      vertex 23.8773 13.8145 1.5
    endloop
  endfacet
  facet normal 0.368124 -0.929777 0
    outer loop
      vertex 21.3227 13.8145 1.5
      vertex 21.6729 13.9532 3
      vertex 21.3227 13.8145 3
    endloop
  endfacet
  facet normal 0.368124 -0.929777 0
    outer loop
      vertex 21.6729 13.9532 3
      vertex 21.3227 13.8145 1.5
      vertex 21.6729 13.9532 1.5
    endloop
  endfacet
  facet normal 0.904824 -0.425785 0
    outer loop
      vertex 19.8107 12.2044 3
      vertex 19.9711 12.5453 1.5
      vertex 19.9711 12.5453 3
    endloop
  endfacet
  facet normal 0.904824 -0.425785 0
    outer loop
      vertex 19.9711 12.5453 1.5
      vertex 19.8107 12.2044 3
      vertex 19.8107 12.2044 1.5
    endloop
  endfacet
  facet normal -0.481756 -0.876306 0
    outer loop
      vertex 23.8773 13.8145 1.5
      vertex 24.2075 13.633 3
      vertex 23.8773 13.8145 3
    endloop
  endfacet
  facet normal -0.481756 -0.876306 -0
    outer loop
      vertex 24.2075 13.633 3
      vertex 23.8773 13.8145 1.5
      vertex 24.2075 13.633 1.5
    endloop
  endfacet
  facet normal 0.998027 -0.0627931 0
    outer loop
      vertex 19.6 11.1 3
      vertex 19.6237 11.476 1.5
      vertex 19.6237 11.476 3
    endloop
  endfacet
  facet normal 0.998027 -0.0627931 0
    outer loop
      vertex 19.6237 11.476 1.5
      vertex 19.6 11.1 3
      vertex 19.6 11.1 1.5
    endloop
  endfacet
  facet normal 0.770513 -0.637424 0
    outer loop
      vertex 20.1729 12.8634 3
      vertex 20.4131 13.1536 1.5
      vertex 20.4131 13.1536 3
    endloop
  endfacet
  facet normal 0.770513 -0.637424 0
    outer loop
      vertex 20.4131 13.1536 1.5
      vertex 20.1729 12.8634 3
      vertex 20.1729 12.8634 1.5
    endloop
  endfacet
  facet normal 0.481754 -0.876307 0
    outer loop
      vertex 20.9925 13.633 1.5
      vertex 21.3227 13.8145 3
      vertex 20.9925 13.633 3
    endloop
  endfacet
  facet normal 0.481754 -0.876307 0
    outer loop
      vertex 21.3227 13.8145 3
      vertex 20.9925 13.633 1.5
      vertex 21.3227 13.8145 1.5
    endloop
  endfacet
  facet normal 0.125333 -0.992115 0
    outer loop
      vertex 22.0379 14.0469 1.5
      vertex 22.4116 14.0941 3
      vertex 22.0379 14.0469 3
    endloop
  endfacet
  facet normal 0.125333 -0.992115 0
    outer loop
      vertex 22.4116 14.0941 3
      vertex 22.0379 14.0469 1.5
      vertex 22.4116 14.0941 1.5
    endloop
  endfacet
  facet normal 0.684545 0.72897 -0
    outer loop
      vertex 20.6877 8.78846 1.5
      vertex 20.4131 9.04636 3
      vertex 20.6877 8.78846 3
    endloop
  endfacet
  facet normal 0.684545 0.72897 0
    outer loop
      vertex 20.4131 9.04636 3
      vertex 20.6877 8.78846 1.5
      vertex 20.4131 9.04636 1.5
    endloop
  endfacet
  facet normal 0.904824 0.425785 0
    outer loop
      vertex 19.9711 9.65474 3
      vertex 19.8107 9.99563 1.5
      vertex 19.8107 9.99563 3
    endloop
  endfacet
  facet normal 0.904824 0.425785 0
    outer loop
      vertex 19.8107 9.99563 1.5
      vertex 19.9711 9.65474 3
      vertex 19.9711 9.65474 1.5
    endloop
  endfacet
  facet normal -0.982287 -0.187381 0
    outer loop
      vertex 25.5763 11.476 1.5
      vertex 25.5057 11.8461 3
      vertex 25.5057 11.8461 1.5
    endloop
  endfacet
  facet normal -0.982287 -0.187381 0
    outer loop
      vertex 25.5057 11.8461 3
      vertex 25.5763 11.476 1.5
      vertex 25.5763 11.476 3
    endloop
  endfacet
  facet normal -0.951056 -0.309019 0
    outer loop
      vertex 25.5057 11.8461 1.5
      vertex 25.3893 12.2044 3
      vertex 25.3893 12.2044 1.5
    endloop
  endfacet
  facet normal -0.951056 -0.309019 0
    outer loop
      vertex 25.3893 12.2044 3
      vertex 25.5057 11.8461 1.5
      vertex 25.5057 11.8461 3
    endloop
  endfacet
  facet normal -0.684548 -0.728968 0
    outer loop
      vertex 24.5123 13.4115 1.5
      vertex 24.7869 13.1536 3
      vertex 24.5123 13.4115 3
    endloop
  endfacet
  facet normal -0.684548 -0.728968 -0
    outer loop
      vertex 24.7869 13.1536 3
      vertex 24.5123 13.4115 1.5
      vertex 24.7869 13.1536 1.5
    endloop
  endfacet
  facet normal 0 -1 0
    outer loop
      vertex 22.4116 14.0941 1.5
      vertex 22.7884 14.0941 3
      vertex 22.4116 14.0941 3
    endloop
  endfacet
  facet normal 0 -1 -0
    outer loop
      vertex 22.7884 14.0941 3
      vertex 22.4116 14.0941 1.5
      vertex 22.7884 14.0941 1.5
    endloop
  endfacet
  facet normal -0.248692 -0.968583 0
    outer loop
      vertex 23.1621 14.0469 1.5
      vertex 23.5271 13.9532 3
      vertex 23.1621 14.0469 3
    endloop
  endfacet
  facet normal -0.248692 -0.968583 -0
    outer loop
      vertex 23.5271 13.9532 3
      vertex 23.1621 14.0469 1.5
      vertex 23.5271 13.9532 1.5
    endloop
  endfacet
  facet normal -0.587784 -0.809018 0
    outer loop
      vertex 24.2075 13.633 1.5
      vertex 24.5123 13.4115 3
      vertex 24.2075 13.633 3
    endloop
  endfacet
  facet normal -0.587784 -0.809018 -0
    outer loop
      vertex 24.5123 13.4115 3
      vertex 24.2075 13.633 1.5
      vertex 24.5123 13.4115 1.5
    endloop
  endfacet
  facet normal 0.951057 -0.309014 0
    outer loop
      vertex 19.6943 11.8461 3
      vertex 19.8107 12.2044 1.5
      vertex 19.8107 12.2044 3
    endloop
  endfacet
  facet normal 0.951057 -0.309014 0
    outer loop
      vertex 19.8107 12.2044 1.5
      vertex 19.6943 11.8461 3
      vertex 19.6943 11.8461 1.5
    endloop
  endfacet
  facet normal 0.982287 -0.187381 0
    outer loop
      vertex 19.6237 11.476 3
      vertex 19.6943 11.8461 1.5
      vertex 19.6943 11.8461 3
    endloop
  endfacet
  facet normal 0.982287 -0.187381 0
    outer loop
      vertex 19.6943 11.8461 1.5
      vertex 19.6237 11.476 3
      vertex 19.6237 11.476 1.5
    endloop
  endfacet
  facet normal 0.844329 -0.535824 0
    outer loop
      vertex 19.9711 12.5453 3
      vertex 20.1729 12.8634 1.5
      vertex 20.1729 12.8634 3
    endloop
  endfacet
  facet normal 0.844329 -0.535824 0
    outer loop
      vertex 20.1729 12.8634 1.5
      vertex 19.9711 12.5453 3
      vertex 19.9711 12.5453 1.5
    endloop
  endfacet
  facet normal 0.248692 -0.968583 0
    outer loop
      vertex 21.6729 13.9532 1.5
      vertex 22.0379 14.0469 3
      vertex 21.6729 13.9532 3
    endloop
  endfacet
  facet normal 0.248692 -0.968583 0
    outer loop
      vertex 22.0379 14.0469 3
      vertex 21.6729 13.9532 1.5
      vertex 22.0379 14.0469 1.5
    endloop
  endfacet
  facet normal 0.587787 -0.809016 0
    outer loop
      vertex 20.6877 13.4115 1.5
      vertex 20.9925 13.633 3
      vertex 20.6877 13.4115 3
    endloop
  endfacet
  facet normal 0.587787 -0.809016 0
    outer loop
      vertex 20.9925 13.633 3
      vertex 20.6877 13.4115 1.5
      vertex 20.9925 13.633 1.5
    endloop
  endfacet
  facet normal 0.684545 -0.72897 0
    outer loop
      vertex 20.4131 13.1536 1.5
      vertex 20.6877 13.4115 3
      vertex 20.4131 13.1536 3
    endloop
  endfacet
  facet normal 0.684545 -0.72897 0
    outer loop
      vertex 20.6877 13.4115 3
      vertex 20.4131 13.1536 1.5
      vertex 20.6877 13.4115 1.5
    endloop
  endfacet
  facet normal -0.998027 -0.062788 0
    outer loop
      vertex 25.6 11.1 1.5
      vertex 25.5763 11.476 3
      vertex 25.5763 11.476 1.5
    endloop
  endfacet
  facet normal -0.998027 -0.062788 0
    outer loop
      vertex 25.5763 11.476 3
      vertex 25.6 11.1 1.5
      vertex 25.6 11.1 3
    endloop
  endfacet
  facet normal -0.998027 0.062788 0
    outer loop
      vertex 25.5763 10.724 1.5
      vertex 25.6 11.1 3
      vertex 25.6 11.1 1.5
    endloop
  endfacet
  facet normal -0.998027 0.062788 0
    outer loop
      vertex 25.6 11.1 3
      vertex 25.5763 10.724 1.5
      vertex 25.5763 10.724 3
    endloop
  endfacet
  facet normal -0.982287 0.187381 0
    outer loop
      vertex 25.5057 10.3539 1.5
      vertex 25.5763 10.724 3
      vertex 25.5763 10.724 1.5
    endloop
  endfacet
  facet normal -0.982287 0.187381 0
    outer loop
      vertex 25.5763 10.724 3
      vertex 25.5057 10.3539 1.5
      vertex 25.5057 10.3539 3
    endloop
  endfacet
  facet normal -0.844326 0.535829 0
    outer loop
      vertex 25.0271 9.33664 1.5
      vertex 25.2289 9.65474 3
      vertex 25.2289 9.65474 1.5
    endloop
  endfacet
  facet normal -0.844326 0.535829 0
    outer loop
      vertex 25.2289 9.65474 3
      vertex 25.0271 9.33664 1.5
      vertex 25.0271 9.33664 3
    endloop
  endfacet
  facet normal 0.998027 0.0627931 0
    outer loop
      vertex 19.6237 10.724 3
      vertex 19.6 11.1 1.5
      vertex 19.6 11.1 3
    endloop
  endfacet
  facet normal 0.998027 0.0627931 0
    outer loop
      vertex 19.6 11.1 1.5
      vertex 19.6237 10.724 3
      vertex 19.6237 10.724 1.5
    endloop
  endfacet
  facet normal 0.844329 0.535825 0
    outer loop
      vertex 20.1729 9.33664 3
      vertex 19.9711 9.65474 1.5
      vertex 19.9711 9.65474 3
    endloop
  endfacet
  facet normal 0.844329 0.535825 0
    outer loop
      vertex 19.9711 9.65474 1.5
      vertex 20.1729 9.33664 3
      vertex 20.1729 9.33664 1.5
    endloop
  endfacet
  facet normal -0.125336 0.992114 0
    outer loop
      vertex 23.1621 8.15314 1.5
      vertex 22.7884 8.10592 3
      vertex 23.1621 8.15314 3
    endloop
  endfacet
  facet normal -0.125336 0.992114 0
    outer loop
      vertex 22.7884 8.10592 3
      vertex 23.1621 8.15314 1.5
      vertex 22.7884 8.10592 1.5
    endloop
  endfacet
  facet normal -0.770513 -0.637424 0
    outer loop
      vertex 25.0271 12.8634 1.5
      vertex 24.7869 13.1536 3
      vertex 24.7869 13.1536 1.5
    endloop
  endfacet
  facet normal -0.770513 -0.637424 0
    outer loop
      vertex 24.7869 13.1536 3
      vertex 25.0271 12.8634 1.5
      vertex 25.0271 12.8634 3
    endloop
  endfacet
  facet normal -0.125333 -0.992115 0
    outer loop
      vertex 22.7884 14.0941 1.5
      vertex 23.1621 14.0469 3
      vertex 22.7884 14.0941 3
    endloop
  endfacet
  facet normal -0.125333 -0.992115 -0
    outer loop
      vertex 23.1621 14.0469 3
      vertex 22.7884 14.0941 1.5
      vertex 23.1621 14.0469 1.5
    endloop
  endfacet
  facet normal -0.904828 0.425777 0
    outer loop
      vertex 25.2289 9.65474 1.5
      vertex 25.3893 9.99563 3
      vertex 25.3893 9.99563 1.5
    endloop
  endfacet
  facet normal -0.904828 0.425777 0
    outer loop
      vertex 25.3893 9.99563 3
      vertex 25.2289 9.65474 1.5
      vertex 25.2289 9.65474 3
    endloop
  endfacet
  facet normal -0.951056 0.309019 0
    outer loop
      vertex 25.3893 9.99563 1.5
      vertex 25.5057 10.3539 3
      vertex 25.5057 10.3539 1.5
    endloop
  endfacet
  facet normal -0.951056 0.309019 0
    outer loop
      vertex 25.5057 10.3539 3
      vertex 25.3893 9.99563 1.5
      vertex 25.3893 9.99563 3
    endloop
  endfacet
  facet normal -0.684548 0.728968 0
    outer loop
      vertex 24.7869 9.04636 1.5
      vertex 24.5123 8.78846 3
      vertex 24.7869 9.04636 3
    endloop
  endfacet
  facet normal -0.684548 0.728968 0
    outer loop
      vertex 24.5123 8.78846 3
      vertex 24.7869 9.04636 1.5
      vertex 24.5123 8.78846 1.5
    endloop
  endfacet
  facet normal 0.125335 0.992114 -0
    outer loop
      vertex 22.4116 8.10592 1.5
      vertex 22.0379 8.15314 3
      vertex 22.4116 8.10592 3
    endloop
  endfacet
  facet normal 0.125335 0.992114 0
    outer loop
      vertex 22.0379 8.15314 3
      vertex 22.4116 8.10592 1.5
      vertex 22.0379 8.15314 1.5
    endloop
  endfacet
  facet normal 0.951057 0.309014 0
    outer loop
      vertex 19.8107 9.99563 3
      vertex 19.6943 10.3539 1.5
      vertex 19.6943 10.3539 3
    endloop
  endfacet
  facet normal 0.951057 0.309014 0
    outer loop
      vertex 19.6943 10.3539 1.5
      vertex 19.8107 9.99563 3
      vertex 19.8107 9.99563 1.5
    endloop
  endfacet
  facet normal 0.982287 0.187381 0
    outer loop
      vertex 19.6943 10.3539 3
      vertex 19.6237 10.724 1.5
      vertex 19.6237 10.724 3
    endloop
  endfacet
  facet normal 0.982287 0.187381 0
    outer loop
      vertex 19.6237 10.724 1.5
      vertex 19.6943 10.3539 3
      vertex 19.6943 10.3539 1.5
    endloop
  endfacet
  facet normal 0.770514 0.637423 0
    outer loop
      vertex 20.4131 9.04636 3
      vertex 20.1729 9.33664 1.5
      vertex 20.1729 9.33664 3
    endloop
  endfacet
  facet normal 0.770514 0.637423 0
    outer loop
      vertex 20.1729 9.33664 1.5
      vertex 20.4131 9.04636 3
      vertex 20.4131 9.04636 1.5
    endloop
  endfacet
  facet normal -0.368122 0.929777 0
    outer loop
      vertex 23.8773 8.38552 1.5
      vertex 23.5271 8.24683 3
      vertex 23.8773 8.38552 3
    endloop
  endfacet
  facet normal -0.368122 0.929777 0
    outer loop
      vertex 23.5271 8.24683 3
      vertex 23.8773 8.38552 1.5
      vertex 23.5271 8.24683 1.5
    endloop
  endfacet
  facet normal -0.248689 0.968583 0
    outer loop
      vertex 23.5271 8.24683 1.5
      vertex 23.1621 8.15314 3
      vertex 23.5271 8.24683 3
    endloop
  endfacet
  facet normal -0.248689 0.968583 0
    outer loop
      vertex 23.1621 8.15314 3
      vertex 23.5271 8.24683 1.5
      vertex 23.1621 8.15314 1.5
    endloop
  endfacet
  facet normal -0.587784 0.809018 0
    outer loop
      vertex 24.5123 8.78846 1.5
      vertex 24.2075 8.56702 3
      vertex 24.5123 8.78846 3
    endloop
  endfacet
  facet normal -0.587784 0.809018 0
    outer loop
      vertex 24.2075 8.56702 3
      vertex 24.5123 8.78846 1.5
      vertex 24.2075 8.56702 1.5
    endloop
  endfacet
  facet normal -0.481756 0.876306 0
    outer loop
      vertex 24.2075 8.56702 1.5
      vertex 23.8773 8.38552 3
      vertex 24.2075 8.56702 3
    endloop
  endfacet
  facet normal -0.481756 0.876306 0
    outer loop
      vertex 23.8773 8.38552 3
      vertex 24.2075 8.56702 1.5
      vertex 23.8773 8.38552 1.5
    endloop
  endfacet
  facet normal 0 1 -0
    outer loop
      vertex 22.7884 8.10592 1.5
      vertex 22.4116 8.10592 3
      vertex 22.7884 8.10592 3
    endloop
  endfacet
  facet normal 0 1 0
    outer loop
      vertex 22.4116 8.10592 3
      vertex 22.7884 8.10592 1.5
      vertex 22.4116 8.10592 1.5
    endloop
  endfacet
  facet normal 0.481754 0.876307 -0
    outer loop
      vertex 21.3227 8.38552 1.5
      vertex 20.9925 8.56702 3
      vertex 21.3227 8.38552 3
    endloop
  endfacet
  facet normal 0.481754 0.876307 0
    outer loop
      vertex 20.9925 8.56702 3
      vertex 21.3227 8.38552 1.5
      vertex 20.9925 8.56702 1.5
    endloop
  endfacet
  facet normal 0.368124 0.929777 -0
    outer loop
      vertex 21.6729 8.24683 1.5
      vertex 21.3227 8.38552 3
      vertex 21.6729 8.24683 3
    endloop
  endfacet
  facet normal 0.368124 0.929777 0
    outer loop
      vertex 21.3227 8.38552 3
      vertex 21.6729 8.24683 1.5
      vertex 21.3227 8.38552 1.5
    endloop
  endfacet
  facet normal -0.770514 0.637423 0
    outer loop
      vertex 24.7869 9.04636 1.5
      vertex 25.0271 9.33664 3
      vertex 25.0271 9.33664 1.5
    endloop
  endfacet
  facet normal -0.770514 0.637423 0
    outer loop
      vertex 25.0271 9.33664 3
      vertex 24.7869 9.04636 1.5
      vertex 24.7869 9.04636 3
    endloop
  endfacet
  facet normal 0.587787 0.809016 -0
    outer loop
      vertex 20.9925 8.56702 1.5
      vertex 20.6877 8.78846 3
      vertex 20.9925 8.56702 3
    endloop
  endfacet
  facet normal 0.587787 0.809016 0
    outer loop
      vertex 20.6877 8.78846 3
      vertex 20.9925 8.56702 1.5
      vertex 20.6877 8.78846 1.5
    endloop
  endfacet
  facet normal 0.248689 0.968583 -0
    outer loop
      vertex 22.0379 8.15314 1.5
      vertex 21.6729 8.24683 3
      vertex 22.0379 8.15314 3
    endloop
  endfacet
  facet normal 0.248689 0.968583 0
    outer loop
      vertex 21.6729 8.24683 3
      vertex 22.0379 8.15314 1.5
      vertex 21.6729 8.24683 1.5
    endloop
  endfacet
endsolid OpenSCAD_Model
