solid OpenSCAD_Model
  facet normal -1 0 0
    outer loop
      vertex 0 0 0
      vertex 0 20 3
      vertex 0 20 0
    endloop
  endfacet
  facet normal -1 -0 0
    outer loop
      vertex 0 20 3
      vertex 0 0 0
      vertex 0 0 3
    endloop
  endfacet
  facet normal 0 0 1
    outer loop
      vertex 45.2 20 3
      vertex 41.7 17 3
      vertex 45.2 0 3
    endloop
  endfacet
  facet normal 0 0 1
    outer loop
      vertex 45.2 20 3
      vertex 38.2 17 3
      vertex 41.7 17 3
    endloop
  endfacet
  facet normal 0 0 1
    outer loop
      vertex 38.2 17 3
      vertex 34.7 6 3
      vertex 38.2 3 3
    endloop
  endfacet
  facet normal -0 0 1
    outer loop
      vertex 25.6 17 3
      vertex 34.7 6 3
      vertex 38.2 17 3
    endloop
  endfacet
  facet normal 0 0 1
    outer loop
      vertex 25.6 0 3
      vertex 25.6 6 3
      vertex 25.6 17 3
    endloop
  endfacet
  facet normal 0 0 1
    outer loop
      vertex 34.7 6 3
      vertex 25.6 17 3
      vertex 25.6 6 3
    endloop
  endfacet
  facet normal 0 0 1
    outer loop
      vertex 45.2 20 3
      vertex 25.6 17 3
      vertex 38.2 17 3
    endloop
  endfacet
  facet normal 0 0 1
    outer loop
      vertex 45.2 20 3
      vertex 19.6 17 3
      vertex 25.6 17 3
    endloop
  endfacet
  facet normal 0 0 1
    outer loop
      vertex 19.6 17 3
      vertex 10.5 6 3
      vertex 19.6 6 3
    endloop
  endfacet
  facet normal 0 0 1
    outer loop
      vertex 7 3 3
      vertex 10.5 6 3
      vertex 7 17 3
    endloop
  endfacet
  facet normal 0 0 1
    outer loop
      vertex 19.6 17 3
      vertex 7 17 3
      vertex 10.5 6 3
    endloop
  endfacet
  facet normal -0 0 1
    outer loop
      vertex 0 20 3
      vertex 19.6 17 3
      vertex 45.2 20 3
    endloop
  endfacet
  facet normal 0 0 1
    outer loop
      vertex 19.6 17 3
      vertex 0 20 3
      vertex 7 17 3
    endloop
  endfacet
  facet normal 0 0 1
    outer loop
      vertex 3.5 17 3
      vertex 0 20 3
      vertex 3.5 3 3
    endloop
  endfacet
  facet normal 0 0 1
    outer loop
      vertex 7 17 3
      vertex 0 20 3
      vertex 3.5 17 3
    endloop
  endfacet
  facet normal -0 0 1
    outer loop
      vertex 41.7 3 3
      vertex 45.2 0 3
      vertex 41.7 17 3
    endloop
  endfacet
  facet normal -0 0 1
    outer loop
      vertex 38.2 3 3
      vertex 45.2 0 3
      vertex 41.7 3 3
    endloop
  endfacet
  facet normal 0 0 1
    outer loop
      vertex 38.2 3 3
      vertex 34.7 0 3
      vertex 45.2 0 3
    endloop
  endfacet
  facet normal 0 0 1
    outer loop
      vertex 34.7 0 3
      vertex 38.2 3 3
      vertex 34.7 6 3
    endloop
  endfacet
  facet normal 0 0 1
    outer loop
      vertex 10.5 6 3
      vertex 7 3 3
      vertex 10.5 0 3
    endloop
  endfacet
  facet normal -0 0 1
    outer loop
      vertex 3.5 3 3
      vertex 10.5 0 3
      vertex 7 3 3
    endloop
  endfacet
  facet normal 0 0 1
    outer loop
      vertex 3.5 3 3
      vertex 0 0 3
      vertex 10.5 0 3
    endloop
  endfacet
  facet normal 0 0 1
    outer loop
      vertex 0 0 3
      vertex 3.5 3 3
      vertex 0 20 3
    endloop
  endfacet
  facet normal 1 -0 0
    outer loop
      vertex 45.2 0 3
      vertex 45.2 20 0
      vertex 45.2 20 3
    endloop
  endfacet
  facet normal 1 0 0
    outer loop
      vertex 45.2 20 0
      vertex 45.2 0 3
      vertex 45.2 0 0
    endloop
  endfacet
  facet normal 0 1 -0
    outer loop
      vertex 45.2 20 0
      vertex 0 20 3
      vertex 45.2 20 3
    endloop
  endfacet
  facet normal 0 1 0
    outer loop
      vertex 0 20 3
      vertex 45.2 20 0
      vertex 0 20 0
    endloop
  endfacet
  facet normal 0 0 -1
    outer loop
      vertex 19.6 0 0
      vertex 7 3 0
      vertex 19.6 17 0
    endloop
  endfacet
  facet normal 0 0 -1
    outer loop
      vertex 0 0 0
      vertex 7 3 0
      vertex 19.6 0 0
    endloop
  endfacet
  facet normal -0 0 -1
    outer loop
      vertex 3.5 3 0
      vertex 0 0 0
      vertex 3.5 17 0
    endloop
  endfacet
  facet normal -0 0 -1
    outer loop
      vertex 7 3 0
      vertex 0 0 0
      vertex 3.5 3 0
    endloop
  endfacet
  facet normal 0 0 -1
    outer loop
      vertex 45.2 0 0
      vertex 41.7 3 0
      vertex 45.2 20 0
    endloop
  endfacet
  facet normal 0 0 -1
    outer loop
      vertex 45.2 0 0
      vertex 38.2 3 0
      vertex 41.7 3 0
    endloop
  endfacet
  facet normal 0 0 -1
    outer loop
      vertex 25.6 17 0
      vertex 38.2 3 0
      vertex 25.6 0 0
    endloop
  endfacet
  facet normal 0 0 -1
    outer loop
      vertex 25.6 0 0
      vertex 38.2 3 0
      vertex 45.2 0 0
    endloop
  endfacet
  facet normal 0 0 -1
    outer loop
      vertex 41.7 17 0
      vertex 45.2 20 0
      vertex 41.7 3 0
    endloop
  endfacet
  facet normal 0 0 -1
    outer loop
      vertex 38.2 17 0
      vertex 45.2 20 0
      vertex 41.7 17 0
    endloop
  endfacet
  facet normal 0 0 -1
    outer loop
      vertex 38.2 3 0
      vertex 25.6 17 0
      vertex 38.2 17 0
    endloop
  endfacet
  facet normal 0 0 -1
    outer loop
      vertex 25.6 17 0
      vertex 45.2 20 0
      vertex 38.2 17 0
    endloop
  endfacet
  facet normal 0 0 -1
    outer loop
      vertex 19.6 17 0
      vertex 45.2 20 0
      vertex 25.6 17 0
    endloop
  endfacet
  facet normal 0 0 -1
    outer loop
      vertex 7 17 0
      vertex 19.6 17 0
      vertex 7 3 0
    endloop
  endfacet
  facet normal 0 0 -1
    outer loop
      vertex 0 20 0
      vertex 19.6 17 0
      vertex 7 17 0
    endloop
  endfacet
  facet normal 0 0 -1
    outer loop
      vertex 0 20 0
      vertex 7 17 0
      vertex 3.5 17 0
    endloop
  endfacet
  facet normal 0 0 -1
    outer loop
      vertex 19.6 17 0
      vertex 0 20 0
      vertex 45.2 20 0
    endloop
  endfacet
  facet normal 0 0 -1
    outer loop
      vertex 0 20 0
      vertex 3.5 17 0
      vertex 0 0 0
    endloop
  endfacet
  facet normal 0 -1 -0
    outer loop
      vertex 25.6 0 3
      vertex 25.6 0 0
      vertex 34.7 0 3
    endloop
  endfacet
  facet normal 0 -1 0
    outer loop
      vertex 45.2 0 0
      vertex 34.7 0 3
      vertex 25.6 0 0
    endloop
  endfacet
  facet normal 0 -1 0
    outer loop
      vertex 34.7 0 3
      vertex 45.2 0 0
      vertex 45.2 0 3
    endloop
  endfacet
  facet normal 0 -1 0
    outer loop
      vertex 25.6 0 12
      vertex 30.0558 0 8.99704
      vertex 34.7 0 12
    endloop
  endfacet
  facet normal 0 -1 0
    outer loop
      vertex 25.6 0 12
      vertex 29.8689 0 8.97343
      vertex 30.0558 0 8.99704
    endloop
  endfacet
  facet normal 0 -1 0
    outer loop
      vertex 25.6 0 12
      vertex 29.6865 0 8.92658
      vertex 29.8689 0 8.97343
    endloop
  endfacet
  facet normal 0 -1 0
    outer loop
      vertex 25.6 0 12
      vertex 29.5113 0 8.85724
      vertex 29.6865 0 8.92658
    endloop
  endfacet
  facet normal 0 -1 0
    outer loop
      vertex 25.6 0 12
      vertex 29.3463 0 8.76649
      vertex 29.5113 0 8.85724
    endloop
  endfacet
  facet normal 0 -1 0
    outer loop
      vertex 25.6 0 12
      vertex 29.1939 0 8.65577
      vertex 29.3463 0 8.76649
    endloop
  endfacet
  facet normal 0 -1 0
    outer loop
      vertex 25.6 0 12
      vertex 29.0565 0 8.52682
      vertex 29.1939 0 8.65577
    endloop
  endfacet
  facet normal 0 -1 0
    outer loop
      vertex 25.6 0 12
      vertex 28.9365 0 8.38168
      vertex 29.0565 0 8.52682
    endloop
  endfacet
  facet normal 0 -1 0
    outer loop
      vertex 25.6 0 12
      vertex 28.8355 0 8.22263
      vertex 28.9365 0 8.38168
    endloop
  endfacet
  facet normal 0 -1 0
    outer loop
      vertex 25.6 0 12
      vertex 28.7553 0 8.05219
      vertex 28.8355 0 8.22263
    endloop
  endfacet
  facet normal 0 -1 0
    outer loop
      vertex 25.6 0 12
      vertex 28.6971 0 7.87303
      vertex 28.7553 0 8.05219
    endloop
  endfacet
  facet normal 0 -1 0
    outer loop
      vertex 25.6 0 12
      vertex 28.6618 0 7.688
      vertex 28.6971 0 7.87303
    endloop
  endfacet
  facet normal 0 -1 0
    outer loop
      vertex 25.6 0 12
      vertex 28.6514 0 7.52272
      vertex 28.6618 0 7.688
    endloop
  endfacet
  facet normal 0 -1 0
    outer loop
      vertex 25.6 0 12
      vertex 28.65 0 7.5
      vertex 28.6514 0 7.52272
    endloop
  endfacet
  facet normal 0 -1 0
    outer loop
      vertex 25.6 0 3
      vertex 28.65 0 7.5
      vertex 25.6 0 12
    endloop
  endfacet
  facet normal 0 -1 -0
    outer loop
      vertex 28.65 0 7.5
      vertex 25.6 0 3
      vertex 28.6604 0 7.33472
    endloop
  endfacet
  facet normal 0 -1 -0
    outer loop
      vertex 28.6604 0 7.33472
      vertex 25.6 0 3
      vertex 28.6618 0 7.312
    endloop
  endfacet
  facet normal 0 -1 -0
    outer loop
      vertex 28.6618 0 7.312
      vertex 25.6 0 3
      vertex 28.6971 0 7.12696
    endloop
  endfacet
  facet normal 0 -1 -0
    outer loop
      vertex 28.6971 0 7.12696
      vertex 25.6 0 3
      vertex 28.7553 0 6.94781
    endloop
  endfacet
  facet normal 0 -1 -0
    outer loop
      vertex 30.0558 0 6.00296
      vertex 25.6 0 3
      vertex 30.2442 0 6.00296
    endloop
  endfacet
  facet normal 0 -1 -0
    outer loop
      vertex 29.8689 0 6.02657
      vertex 25.6 0 3
      vertex 30.0558 0 6.00296
    endloop
  endfacet
  facet normal 0 -1 -0
    outer loop
      vertex 29.6865 0 6.07341
      vertex 25.6 0 3
      vertex 29.8689 0 6.02657
    endloop
  endfacet
  facet normal 0 -1 -0
    outer loop
      vertex 29.5113 0 6.14276
      vertex 25.6 0 3
      vertex 29.6865 0 6.07341
    endloop
  endfacet
  facet normal 0 -1 -0
    outer loop
      vertex 29.3463 0 6.23351
      vertex 25.6 0 3
      vertex 29.5113 0 6.14276
    endloop
  endfacet
  facet normal 0 -1 -0
    outer loop
      vertex 29.1939 0 6.34423
      vertex 25.6 0 3
      vertex 29.3463 0 6.23351
    endloop
  endfacet
  facet normal 0 -1 -0
    outer loop
      vertex 29.0565 0 6.47318
      vertex 25.6 0 3
      vertex 29.1939 0 6.34423
    endloop
  endfacet
  facet normal 0 -1 -0
    outer loop
      vertex 28.9365 0 6.61832
      vertex 25.6 0 3
      vertex 29.0565 0 6.47318
    endloop
  endfacet
  facet normal 0 -1 -0
    outer loop
      vertex 28.8355 0 6.77737
      vertex 25.6 0 3
      vertex 28.9365 0 6.61832
    endloop
  endfacet
  facet normal 0 -1 -0
    outer loop
      vertex 28.7553 0 6.94781
      vertex 25.6 0 3
      vertex 28.8355 0 6.77737
    endloop
  endfacet
  facet normal 0 -1 0
    outer loop
      vertex 30.2442 0 8.99704
      vertex 34.7 0 12
      vertex 30.0558 0 8.99704
    endloop
  endfacet
  facet normal 0 -1 0
    outer loop
      vertex 30.4311 0 8.97343
      vertex 34.7 0 12
      vertex 30.2442 0 8.99704
    endloop
  endfacet
  facet normal 0 -1 0
    outer loop
      vertex 30.6135 0 8.92658
      vertex 34.7 0 12
      vertex 30.4311 0 8.97343
    endloop
  endfacet
  facet normal 0 -1 0
    outer loop
      vertex 30.7887 0 8.85724
      vertex 34.7 0 12
      vertex 30.6135 0 8.92658
    endloop
  endfacet
  facet normal 0 -1 0
    outer loop
      vertex 30.9537 0 8.76649
      vertex 34.7 0 12
      vertex 30.7887 0 8.85724
    endloop
  endfacet
  facet normal 0 -1 0
    outer loop
      vertex 31.1061 0 8.65577
      vertex 34.7 0 12
      vertex 30.9537 0 8.76649
    endloop
  endfacet
  facet normal 0 -1 0
    outer loop
      vertex 31.2435 0 8.52682
      vertex 34.7 0 12
      vertex 31.1061 0 8.65577
    endloop
  endfacet
  facet normal 0 -1 0
    outer loop
      vertex 31.3635 0 8.38168
      vertex 34.7 0 12
      vertex 31.2435 0 8.52682
    endloop
  endfacet
  facet normal 0 -1 0
    outer loop
      vertex 31.4645 0 8.22263
      vertex 34.7 0 12
      vertex 31.3635 0 8.38168
    endloop
  endfacet
  facet normal 0 -1 0
    outer loop
      vertex 31.5447 0 8.05219
      vertex 34.7 0 12
      vertex 31.4645 0 8.22263
    endloop
  endfacet
  facet normal 0 -1 0
    outer loop
      vertex 31.6029 0 7.87303
      vertex 34.7 0 12
      vertex 31.5447 0 8.05219
    endloop
  endfacet
  facet normal 0 -1 0
    outer loop
      vertex 31.6382 0 7.688
      vertex 34.7 0 12
      vertex 31.6029 0 7.87303
    endloop
  endfacet
  facet normal 0 -1 0
    outer loop
      vertex 31.6486 0 7.52272
      vertex 34.7 0 12
      vertex 31.6382 0 7.688
    endloop
  endfacet
  facet normal 0 -1 0
    outer loop
      vertex 31.65 0 7.5
      vertex 34.7 0 12
      vertex 31.6486 0 7.52272
    endloop
  endfacet
  facet normal 0 -1 0
    outer loop
      vertex 34.7 0 3
      vertex 31.65 0 7.5
      vertex 31.6396 0 7.33472
    endloop
  endfacet
  facet normal 0 -1 0
    outer loop
      vertex 34.7 0 3
      vertex 31.6396 0 7.33472
      vertex 31.6382 0 7.312
    endloop
  endfacet
  facet normal 0 -1 0
    outer loop
      vertex 34.7 0 3
      vertex 31.6382 0 7.312
      vertex 31.6029 0 7.12696
    endloop
  endfacet
  facet normal 0 -1 0
    outer loop
      vertex 34.7 0 3
      vertex 31.6029 0 7.12696
      vertex 31.5447 0 6.94781
    endloop
  endfacet
  facet normal 0 -1 0
    outer loop
      vertex 34.7 0 3
      vertex 31.5447 0 6.94781
      vertex 31.4645 0 6.77737
    endloop
  endfacet
  facet normal 0 -1 0
    outer loop
      vertex 34.7 0 3
      vertex 30.2442 0 6.00296
      vertex 25.6 0 3
    endloop
  endfacet
  facet normal 0 -1 0
    outer loop
      vertex 30.2442 0 6.00296
      vertex 34.7 0 3
      vertex 30.4311 0 6.02657
    endloop
  endfacet
  facet normal 0 -1 0
    outer loop
      vertex 30.4311 0 6.02657
      vertex 34.7 0 3
      vertex 30.6135 0 6.07341
    endloop
  endfacet
  facet normal 0 -1 0
    outer loop
      vertex 30.6135 0 6.07341
      vertex 34.7 0 3
      vertex 30.7887 0 6.14276
    endloop
  endfacet
  facet normal 0 -1 0
    outer loop
      vertex 31.65 0 7.5
      vertex 34.7 0 3
      vertex 34.7 0 12
    endloop
  endfacet
  facet normal 0 -1 0
    outer loop
      vertex 31.3635 0 6.61832
      vertex 34.7 0 3
      vertex 31.4645 0 6.77737
    endloop
  endfacet
  facet normal 0 -1 0
    outer loop
      vertex 31.2435 0 6.47318
      vertex 34.7 0 3
      vertex 31.3635 0 6.61832
    endloop
  endfacet
  facet normal 0 -1 0
    outer loop
      vertex 31.1061 0 6.34423
      vertex 34.7 0 3
      vertex 31.2435 0 6.47318
    endloop
  endfacet
  facet normal 0 -1 0
    outer loop
      vertex 30.9537 0 6.23351
      vertex 34.7 0 3
      vertex 31.1061 0 6.34423
    endloop
  endfacet
  facet normal 0 -1 0
    outer loop
      vertex 30.7887 0 6.14276
      vertex 34.7 0 3
      vertex 30.9537 0 6.23351
    endloop
  endfacet
  facet normal 0 -1 0
    outer loop
      vertex 0 0 0
      vertex 10.5 0 3
      vertex 0 0 3
    endloop
  endfacet
  facet normal 0 -1 0
    outer loop
      vertex 19.6 0 0
      vertex 10.5 0 3
      vertex 0 0 0
    endloop
  endfacet
  facet normal 0 -1 0
    outer loop
      vertex 10.5 0 3
      vertex 19.6 0 0
      vertex 19.6 0 3
    endloop
  endfacet
  facet normal 0 -1 0
    outer loop
      vertex 10.5 0 12
      vertex 14.9558 0 8.99704
      vertex 19.6 0 12
    endloop
  endfacet
  facet normal 0 -1 0
    outer loop
      vertex 10.5 0 12
      vertex 14.7689 0 8.97343
      vertex 14.9558 0 8.99704
    endloop
  endfacet
  facet normal 0 -1 0
    outer loop
      vertex 10.5 0 12
      vertex 14.5865 0 8.92658
      vertex 14.7689 0 8.97343
    endloop
  endfacet
  facet normal 0 -1 0
    outer loop
      vertex 10.5 0 12
      vertex 14.4113 0 8.85724
      vertex 14.5865 0 8.92658
    endloop
  endfacet
  facet normal 0 -1 0
    outer loop
      vertex 10.5 0 12
      vertex 14.2463 0 8.76649
      vertex 14.4113 0 8.85724
    endloop
  endfacet
  facet normal 0 -1 0
    outer loop
      vertex 10.5 0 12
      vertex 14.0939 0 8.65577
      vertex 14.2463 0 8.76649
    endloop
  endfacet
  facet normal 0 -1 0
    outer loop
      vertex 10.5 0 12
      vertex 13.9565 0 8.52682
      vertex 14.0939 0 8.65577
    endloop
  endfacet
  facet normal 0 -1 0
    outer loop
      vertex 10.5 0 12
      vertex 13.8365 0 8.38168
      vertex 13.9565 0 8.52682
    endloop
  endfacet
  facet normal 0 -1 0
    outer loop
      vertex 10.5 0 12
      vertex 13.7355 0 8.22263
      vertex 13.8365 0 8.38168
    endloop
  endfacet
  facet normal 0 -1 0
    outer loop
      vertex 10.5 0 12
      vertex 13.6553 0 8.05219
      vertex 13.7355 0 8.22263
    endloop
  endfacet
  facet normal 0 -1 0
    outer loop
      vertex 10.5 0 12
      vertex 13.5971 0 7.87303
      vertex 13.6553 0 8.05219
    endloop
  endfacet
  facet normal 0 -1 0
    outer loop
      vertex 10.5 0 12
      vertex 13.5618 0 7.688
      vertex 13.5971 0 7.87303
    endloop
  endfacet
  facet normal 0 -1 0
    outer loop
      vertex 10.5 0 12
      vertex 13.5514 0 7.52272
      vertex 13.5618 0 7.688
    endloop
  endfacet
  facet normal 0 -1 0
    outer loop
      vertex 10.5 0 12
      vertex 13.55 0 7.5
      vertex 13.5514 0 7.52272
    endloop
  endfacet
  facet normal 0 -1 0
    outer loop
      vertex 10.5 0 3
      vertex 13.55 0 7.5
      vertex 10.5 0 12
    endloop
  endfacet
  facet normal 0 -1 -0
    outer loop
      vertex 13.55 0 7.5
      vertex 10.5 0 3
      vertex 13.5604 0 7.33472
    endloop
  endfacet
  facet normal 0 -1 -0
    outer loop
      vertex 13.5604 0 7.33472
      vertex 10.5 0 3
      vertex 13.5618 0 7.312
    endloop
  endfacet
  facet normal 0 -1 -0
    outer loop
      vertex 13.5618 0 7.312
      vertex 10.5 0 3
      vertex 13.5971 0 7.12696
    endloop
  endfacet
  facet normal 0 -1 -0
    outer loop
      vertex 13.5971 0 7.12696
      vertex 10.5 0 3
      vertex 13.6553 0 6.94781
    endloop
  endfacet
  facet normal 0 -1 -0
    outer loop
      vertex 14.9558 0 6.00296
      vertex 10.5 0 3
      vertex 15.1442 0 6.00296
    endloop
  endfacet
  facet normal 0 -1 -0
    outer loop
      vertex 14.7689 0 6.02657
      vertex 10.5 0 3
      vertex 14.9558 0 6.00296
    endloop
  endfacet
  facet normal 0 -1 -0
    outer loop
      vertex 14.5865 0 6.07341
      vertex 10.5 0 3
      vertex 14.7689 0 6.02657
    endloop
  endfacet
  facet normal 0 -1 -0
    outer loop
      vertex 14.4113 0 6.14276
      vertex 10.5 0 3
      vertex 14.5865 0 6.07341
    endloop
  endfacet
  facet normal 0 -1 -0
    outer loop
      vertex 14.2463 0 6.23351
      vertex 10.5 0 3
      vertex 14.4113 0 6.14276
    endloop
  endfacet
  facet normal 0 -1 -0
    outer loop
      vertex 14.0939 0 6.34423
      vertex 10.5 0 3
      vertex 14.2463 0 6.23351
    endloop
  endfacet
  facet normal 0 -1 -0
    outer loop
      vertex 13.9565 0 6.47318
      vertex 10.5 0 3
      vertex 14.0939 0 6.34423
    endloop
  endfacet
  facet normal 0 -1 -0
    outer loop
      vertex 13.8365 0 6.61832
      vertex 10.5 0 3
      vertex 13.9565 0 6.47318
    endloop
  endfacet
  facet normal 0 -1 -0
    outer loop
      vertex 13.7355 0 6.77737
      vertex 10.5 0 3
      vertex 13.8365 0 6.61832
    endloop
  endfacet
  facet normal 0 -1 -0
    outer loop
      vertex 13.6553 0 6.94781
      vertex 10.5 0 3
      vertex 13.7355 0 6.77737
    endloop
  endfacet
  facet normal 0 -1 0
    outer loop
      vertex 15.1442 0 8.99704
      vertex 19.6 0 12
      vertex 14.9558 0 8.99704
    endloop
  endfacet
  facet normal 0 -1 0
    outer loop
      vertex 15.3311 0 8.97343
      vertex 19.6 0 12
      vertex 15.1442 0 8.99704
    endloop
  endfacet
  facet normal 0 -1 0
    outer loop
      vertex 15.5135 0 8.92658
      vertex 19.6 0 12
      vertex 15.3311 0 8.97343
    endloop
  endfacet
  facet normal 0 -1 0
    outer loop
      vertex 15.6887 0 8.85724
      vertex 19.6 0 12
      vertex 15.5135 0 8.92658
    endloop
  endfacet
  facet normal 0 -1 0
    outer loop
      vertex 15.8537 0 8.76649
      vertex 19.6 0 12
      vertex 15.6887 0 8.85724
    endloop
  endfacet
  facet normal 0 -1 0
    outer loop
      vertex 16.0061 0 8.65577
      vertex 19.6 0 12
      vertex 15.8537 0 8.76649
    endloop
  endfacet
  facet normal 0 -1 0
    outer loop
      vertex 16.1435 0 8.52682
      vertex 19.6 0 12
      vertex 16.0061 0 8.65577
    endloop
  endfacet
  facet normal 0 -1 0
    outer loop
      vertex 16.2635 0 8.38168
      vertex 19.6 0 12
      vertex 16.1435 0 8.52682
    endloop
  endfacet
  facet normal 0 -1 0
    outer loop
      vertex 16.3645 0 8.22263
      vertex 19.6 0 12
      vertex 16.2635 0 8.38168
    endloop
  endfacet
  facet normal 0 -1 0
    outer loop
      vertex 16.4447 0 8.05219
      vertex 19.6 0 12
      vertex 16.3645 0 8.22263
    endloop
  endfacet
  facet normal 0 -1 0
    outer loop
      vertex 16.5029 0 7.87303
      vertex 19.6 0 12
      vertex 16.4447 0 8.05219
    endloop
  endfacet
  facet normal 0 -1 0
    outer loop
      vertex 16.5382 0 7.688
      vertex 19.6 0 12
      vertex 16.5029 0 7.87303
    endloop
  endfacet
  facet normal 0 -1 0
    outer loop
      vertex 16.5486 0 7.52272
      vertex 19.6 0 12
      vertex 16.5382 0 7.688
    endloop
  endfacet
  facet normal 0 -1 0
    outer loop
      vertex 16.55 0 7.5
      vertex 19.6 0 12
      vertex 16.5486 0 7.52272
    endloop
  endfacet
  facet normal 0 -1 0
    outer loop
      vertex 19.6 0 3
      vertex 16.55 0 7.5
      vertex 16.5396 0 7.33472
    endloop
  endfacet
  facet normal 0 -1 0
    outer loop
      vertex 19.6 0 3
      vertex 16.5396 0 7.33472
      vertex 16.5382 0 7.312
    endloop
  endfacet
  facet normal 0 -1 0
    outer loop
      vertex 19.6 0 3
      vertex 16.5382 0 7.312
      vertex 16.5029 0 7.12696
    endloop
  endfacet
  facet normal 0 -1 0
    outer loop
      vertex 19.6 0 3
      vertex 16.5029 0 7.12696
      vertex 16.4447 0 6.94781
    endloop
  endfacet
  facet normal 0 -1 0
    outer loop
      vertex 19.6 0 3
      vertex 16.4447 0 6.94781
      vertex 16.3645 0 6.77737
    endloop
  endfacet
  facet normal 0 -1 0
    outer loop
      vertex 19.6 0 3
      vertex 15.1442 0 6.00296
      vertex 10.5 0 3
    endloop
  endfacet
  facet normal 0 -1 0
    outer loop
      vertex 15.1442 0 6.00296
      vertex 19.6 0 3
      vertex 15.3311 0 6.02657
    endloop
  endfacet
  facet normal 0 -1 0
    outer loop
      vertex 15.3311 0 6.02657
      vertex 19.6 0 3
      vertex 15.5135 0 6.07341
    endloop
  endfacet
  facet normal 0 -1 0
    outer loop
      vertex 15.5135 0 6.07341
      vertex 19.6 0 3
      vertex 15.6887 0 6.14276
    endloop
  endfacet
  facet normal 0 -1 0
    outer loop
      vertex 16.55 0 7.5
      vertex 19.6 0 3
      vertex 19.6 0 12
    endloop
  endfacet
  facet normal 0 -1 0
    outer loop
      vertex 16.2635 0 6.61832
      vertex 19.6 0 3
      vertex 16.3645 0 6.77737
    endloop
  endfacet
  facet normal 0 -1 0
    outer loop
      vertex 16.1435 0 6.47318
      vertex 19.6 0 3
      vertex 16.2635 0 6.61832
    endloop
  endfacet
  facet normal 0 -1 0
    outer loop
      vertex 16.0061 0 6.34423
      vertex 19.6 0 3
      vertex 16.1435 0 6.47318
    endloop
  endfacet
  facet normal 0 -1 0
    outer loop
      vertex 15.8537 0 6.23351
      vertex 19.6 0 3
      vertex 16.0061 0 6.34423
    endloop
  endfacet
  facet normal 0 -1 0
    outer loop
      vertex 15.6887 0 6.14276
      vertex 19.6 0 3
      vertex 15.8537 0 6.23351
    endloop
  endfacet
  facet normal 1 -0 0
    outer loop
      vertex 3.5 3 3
      vertex 3.5 17 0
      vertex 3.5 17 3
    endloop
  endfacet
  facet normal 1 0 0
    outer loop
      vertex 3.5 17 0
      vertex 3.5 3 3
      vertex 3.5 3 0
    endloop
  endfacet
  facet normal -1 0 0
    outer loop
      vertex 7 3 0
      vertex 7 17 3
      vertex 7 17 0
    endloop
  endfacet
  facet normal -1 -0 0
    outer loop
      vertex 7 17 3
      vertex 7 3 0
      vertex 7 3 3
    endloop
  endfacet
  facet normal 0 1 -0
    outer loop
      vertex 7 3 0
      vertex 3.5 3 3
      vertex 7 3 3
    endloop
  endfacet
  facet normal 0 1 0
    outer loop
      vertex 3.5 3 3
      vertex 7 3 0
      vertex 3.5 3 0
    endloop
  endfacet
  facet normal 0 -1 0
    outer loop
      vertex 3.5 17 0
      vertex 7 17 3
      vertex 3.5 17 3
    endloop
  endfacet
  facet normal 0 -1 -0
    outer loop
      vertex 7 17 3
      vertex 3.5 17 0
      vertex 7 17 0
    endloop
  endfacet
  facet normal 1 -0 0
    outer loop
      vertex 38.2 3 3
      vertex 38.2 17 0
      vertex 38.2 17 3
    endloop
  endfacet
  facet normal 1 0 0
    outer loop
      vertex 38.2 17 0
      vertex 38.2 3 3
      vertex 38.2 3 0
    endloop
  endfacet
  facet normal -1 0 0
    outer loop
      vertex 41.7 3 0
      vertex 41.7 17 3
      vertex 41.7 17 0
    endloop
  endfacet
  facet normal -1 -0 0
    outer loop
      vertex 41.7 17 3
      vertex 41.7 3 0
      vertex 41.7 3 3
    endloop
  endfacet
  facet normal 0 -1 0
    outer loop
      vertex 38.2 17 0
      vertex 41.7 17 3
      vertex 38.2 17 3
    endloop
  endfacet
  facet normal 0 -1 -0
    outer loop
      vertex 41.7 17 3
      vertex 38.2 17 0
      vertex 41.7 17 0
    endloop
  endfacet
  facet normal 0 1 -0
    outer loop
      vertex 41.7 3 0
      vertex 38.2 3 3
      vertex 41.7 3 3
    endloop
  endfacet
  facet normal 0 1 0
    outer loop
      vertex 38.2 3 3
      vertex 41.7 3 0
      vertex 38.2 3 0
    endloop
  endfacet
  facet normal 1 -0 0
    outer loop
      vertex 19.6 6 3
      vertex 19.6 17 0
      vertex 19.6 17 3
    endloop
  endfacet
  facet normal 1 0 0
    outer loop
      vertex 19.6 0 0
      vertex 19.6 6 3
      vertex 19.6 0 3
    endloop
  endfacet
  facet normal 1 0 0
    outer loop
      vertex 19.6 6 3
      vertex 19.6 0 0
      vertex 19.6 17 0
    endloop
  endfacet
  facet normal -1 0 0
    outer loop
      vertex 25.6 0 0
      vertex 25.6 17 3
      vertex 25.6 17 0
    endloop
  endfacet
  facet normal -1 -0 0
    outer loop
      vertex 25.6 17 3
      vertex 25.6 0 0
      vertex 25.6 0 3
    endloop
  endfacet
  facet normal 0 -1 0
    outer loop
      vertex 19.6 17 0
      vertex 25.6 17 3
      vertex 19.6 17 3
    endloop
  endfacet
  facet normal 0 -1 -0
    outer loop
      vertex 25.6 17 3
      vertex 19.6 17 0
      vertex 25.6 17 0
    endloop
  endfacet
  facet normal -1 0 0
    outer loop
      vertex 10.5 0 3
      vertex 10.5 6 12
      vertex 10.5 6 3
    endloop
  endfacet
  facet normal -1 -0 0
    outer loop
      vertex 10.5 6 12
      vertex 10.5 0 3
      vertex 10.5 0 12
    endloop
  endfacet
  facet normal -0 0 1
    outer loop
      vertex 10.5 6 12
      vertex 19.6 0 12
      vertex 19.6 6 12
    endloop
  endfacet
  facet normal 0 0 1
    outer loop
      vertex 19.6 0 12
      vertex 10.5 6 12
      vertex 10.5 0 12
    endloop
  endfacet
  facet normal 1 -0 0
    outer loop
      vertex 19.6 0 12
      vertex 19.6 6 3
      vertex 19.6 6 12
    endloop
  endfacet
  facet normal 1 0 0
    outer loop
      vertex 19.6 6 3
      vertex 19.6 0 12
      vertex 19.6 0 3
    endloop
  endfacet
  facet normal 0 1 0
    outer loop
      vertex 19.6 6 12
      vertex 15.1442 6 8.99704
      vertex 10.5 6 12
    endloop
  endfacet
  facet normal 0 1 0
    outer loop
      vertex 19.6 6 12
      vertex 15.3311 6 8.97343
      vertex 15.1442 6 8.99704
    endloop
  endfacet
  facet normal 0 1 0
    outer loop
      vertex 19.6 6 12
      vertex 15.5135 6 8.92658
      vertex 15.3311 6 8.97343
    endloop
  endfacet
  facet normal 0 1 0
    outer loop
      vertex 19.6 6 12
      vertex 15.6887 6 8.85724
      vertex 15.5135 6 8.92658
    endloop
  endfacet
  facet normal 0 1 0
    outer loop
      vertex 19.6 6 12
      vertex 15.8537 6 8.76649
      vertex 15.6887 6 8.85724
    endloop
  endfacet
  facet normal 0 1 0
    outer loop
      vertex 19.6 6 12
      vertex 16.0061 6 8.65577
      vertex 15.8537 6 8.76649
    endloop
  endfacet
  facet normal 0 1 0
    outer loop
      vertex 19.6 6 12
      vertex 16.1435 6 8.52682
      vertex 16.0061 6 8.65577
    endloop
  endfacet
  facet normal 0 1 0
    outer loop
      vertex 19.6 6 12
      vertex 16.2635 6 8.38168
      vertex 16.1435 6 8.52682
    endloop
  endfacet
  facet normal 0 1 0
    outer loop
      vertex 19.6 6 12
      vertex 16.3645 6 8.22263
      vertex 16.2635 6 8.38168
    endloop
  endfacet
  facet normal 0 1 0
    outer loop
      vertex 19.6 6 12
      vertex 16.4447 6 8.05219
      vertex 16.3645 6 8.22263
    endloop
  endfacet
  facet normal 0 1 0
    outer loop
      vertex 19.6 6 12
      vertex 16.5029 6 7.87303
      vertex 16.4447 6 8.05219
    endloop
  endfacet
  facet normal 0 1 0
    outer loop
      vertex 19.6 6 12
      vertex 16.5382 6 7.688
      vertex 16.5029 6 7.87303
    endloop
  endfacet
  facet normal 0 1 0
    outer loop
      vertex 19.6 6 12
      vertex 16.5427 6 7.61672
      vertex 16.5382 6 7.688
    endloop
  endfacet
  facet normal 0 1 0
    outer loop
      vertex 19.6 6 12
      vertex 16.55 6 7.5
      vertex 16.5427 6 7.61672
    endloop
  endfacet
  facet normal 0 1 -0
    outer loop
      vertex 19.6 6 3
      vertex 16.55 6 7.5
      vertex 19.6 6 12
    endloop
  endfacet
  facet normal 0 1 0
    outer loop
      vertex 16.55 6 7.5
      vertex 19.6 6 3
      vertex 16.5455 6 7.42872
    endloop
  endfacet
  facet normal 0 1 0
    outer loop
      vertex 16.5455 6 7.42872
      vertex 19.6 6 3
      vertex 16.5382 6 7.312
    endloop
  endfacet
  facet normal 0 1 0
    outer loop
      vertex 16.5382 6 7.312
      vertex 19.6 6 3
      vertex 16.5029 6 7.12696
    endloop
  endfacet
  facet normal 0 1 0
    outer loop
      vertex 16.5029 6 7.12696
      vertex 19.6 6 3
      vertex 16.4447 6 6.94781
    endloop
  endfacet
  facet normal 0 1 0
    outer loop
      vertex 15.1442 6 6.00296
      vertex 19.6 6 3
      vertex 14.9558 6 6.00296
    endloop
  endfacet
  facet normal 0 1 0
    outer loop
      vertex 15.3311 6 6.02657
      vertex 19.6 6 3
      vertex 15.1442 6 6.00296
    endloop
  endfacet
  facet normal 0 1 0
    outer loop
      vertex 15.5135 6 6.07341
      vertex 19.6 6 3
      vertex 15.3311 6 6.02657
    endloop
  endfacet
  facet normal 0 1 0
    outer loop
      vertex 15.6887 6 6.14276
      vertex 19.6 6 3
      vertex 15.5135 6 6.07341
    endloop
  endfacet
  facet normal 0 1 0
    outer loop
      vertex 15.8537 6 6.23351
      vertex 19.6 6 3
      vertex 15.6887 6 6.14276
    endloop
  endfacet
  facet normal 0 1 0
    outer loop
      vertex 16.0061 6 6.34423
      vertex 19.6 6 3
      vertex 15.8537 6 6.23351
    endloop
  endfacet
  facet normal 0 1 0
    outer loop
      vertex 16.1435 6 6.47318
      vertex 19.6 6 3
      vertex 16.0061 6 6.34423
    endloop
  endfacet
  facet normal 0 1 0
    outer loop
      vertex 16.2635 6 6.61832
      vertex 19.6 6 3
      vertex 16.1435 6 6.47318
    endloop
  endfacet
  facet normal 0 1 0
    outer loop
      vertex 16.3645 6 6.77737
      vertex 19.6 6 3
      vertex 16.2635 6 6.61832
    endloop
  endfacet
  facet normal 0 1 0
    outer loop
      vertex 16.4447 6 6.94781
      vertex 19.6 6 3
      vertex 16.3645 6 6.77737
    endloop
  endfacet
  facet normal 0 1 -0
    outer loop
      vertex 14.9558 6 8.99704
      vertex 10.5 6 12
      vertex 15.1442 6 8.99704
    endloop
  endfacet
  facet normal 0 1 -0
    outer loop
      vertex 14.7689 6 8.97343
      vertex 10.5 6 12
      vertex 14.9558 6 8.99704
    endloop
  endfacet
  facet normal 0 1 -0
    outer loop
      vertex 14.5865 6 8.92658
      vertex 10.5 6 12
      vertex 14.7689 6 8.97343
    endloop
  endfacet
  facet normal 0 1 -0
    outer loop
      vertex 14.4113 6 8.85724
      vertex 10.5 6 12
      vertex 14.5865 6 8.92658
    endloop
  endfacet
  facet normal 0 1 -0
    outer loop
      vertex 14.2463 6 8.76649
      vertex 10.5 6 12
      vertex 14.4113 6 8.85724
    endloop
  endfacet
  facet normal 0 1 -0
    outer loop
      vertex 14.0939 6 8.65577
      vertex 10.5 6 12
      vertex 14.2463 6 8.76649
    endloop
  endfacet
  facet normal 0 1 -0
    outer loop
      vertex 13.9565 6 8.52682
      vertex 10.5 6 12
      vertex 14.0939 6 8.65577
    endloop
  endfacet
  facet normal 0 1 -0
    outer loop
      vertex 13.8365 6 8.38168
      vertex 10.5 6 12
      vertex 13.9565 6 8.52682
    endloop
  endfacet
  facet normal 0 1 -0
    outer loop
      vertex 13.7355 6 8.22263
      vertex 10.5 6 12
      vertex 13.8365 6 8.38168
    endloop
  endfacet
  facet normal 0 1 -0
    outer loop
      vertex 13.6553 6 8.05219
      vertex 10.5 6 12
      vertex 13.7355 6 8.22263
    endloop
  endfacet
  facet normal 0 1 -0
    outer loop
      vertex 13.5971 6 7.87303
      vertex 10.5 6 12
      vertex 13.6553 6 8.05219
    endloop
  endfacet
  facet normal 0 1 -0
    outer loop
      vertex 13.5618 6 7.688
      vertex 10.5 6 12
      vertex 13.5971 6 7.87303
    endloop
  endfacet
  facet normal 0 1 -0
    outer loop
      vertex 13.5573 6 7.61672
      vertex 10.5 6 12
      vertex 13.5618 6 7.688
    endloop
  endfacet
  facet normal 0 1 -0
    outer loop
      vertex 13.55 6 7.5
      vertex 10.5 6 12
      vertex 13.5573 6 7.61672
    endloop
  endfacet
  facet normal 0 1 0
    outer loop
      vertex 10.5 6 3
      vertex 13.55 6 7.5
      vertex 13.5545 6 7.42872
    endloop
  endfacet
  facet normal 0 1 0
    outer loop
      vertex 10.5 6 3
      vertex 13.5545 6 7.42872
      vertex 13.5618 6 7.312
    endloop
  endfacet
  facet normal 0 1 0
    outer loop
      vertex 10.5 6 3
      vertex 13.5618 6 7.312
      vertex 13.5971 6 7.12696
    endloop
  endfacet
  facet normal 0 1 0
    outer loop
      vertex 10.5 6 3
      vertex 13.5971 6 7.12696
      vertex 13.6553 6 6.94781
    endloop
  endfacet
  facet normal 0 1 0
    outer loop
      vertex 10.5 6 3
      vertex 13.6553 6 6.94781
      vertex 13.7355 6 6.77737
    endloop
  endfacet
  facet normal 0 1 0
    outer loop
      vertex 10.5 6 3
      vertex 14.9558 6 6.00296
      vertex 19.6 6 3
    endloop
  endfacet
  facet normal 0 1 0
    outer loop
      vertex 14.9558 6 6.00296
      vertex 10.5 6 3
      vertex 14.7689 6 6.02657
    endloop
  endfacet
  facet normal 0 1 0
    outer loop
      vertex 14.7689 6 6.02657
      vertex 10.5 6 3
      vertex 14.5865 6 6.07341
    endloop
  endfacet
  facet normal 0 1 0
    outer loop
      vertex 14.5865 6 6.07341
      vertex 10.5 6 3
      vertex 14.4113 6 6.14276
    endloop
  endfacet
  facet normal 0 1 0
    outer loop
      vertex 13.55 6 7.5
      vertex 10.5 6 3
      vertex 10.5 6 12
    endloop
  endfacet
  facet normal 0 1 0
    outer loop
      vertex 13.8365 6 6.61832
      vertex 10.5 6 3
      vertex 13.7355 6 6.77737
    endloop
  endfacet
  facet normal 0 1 0
    outer loop
      vertex 13.9565 6 6.47318
      vertex 10.5 6 3
      vertex 13.8365 6 6.61832
    endloop
  endfacet
  facet normal 0 1 0
    outer loop
      vertex 14.0939 6 6.34423
      vertex 10.5 6 3
      vertex 13.9565 6 6.47318
    endloop
  endfacet
  facet normal 0 1 0
    outer loop
      vertex 14.2463 6 6.23351
      vertex 10.5 6 3
      vertex 14.0939 6 6.34423
    endloop
  endfacet
  facet normal 0 1 0
    outer loop
      vertex 14.4113 6 6.14276
      vertex 10.5 6 3
      vertex 14.2463 6 6.23351
    endloop
  endfacet
  facet normal -0.998027 -1.07419e-07 -0.0627913
    outer loop
      vertex 16.5382 0 7.688
      vertex 16.5427 6 7.61672
      vertex 16.5486 0 7.52272
    endloop
  endfacet
  facet normal -0.998027 0 -0.0627823
    outer loop
      vertex 16.5427 6 7.61672
      vertex 16.5382 0 7.688
      vertex 16.5382 6 7.688
    endloop
  endfacet
  facet normal -0.998028 -4.98806e-09 -0.0627643
    outer loop
      vertex 16.5486 0 7.52272
      vertex 16.55 6 7.5
      vertex 16.55 0 7.5
    endloop
  endfacet
  facet normal -0.998027 -1.07416e-07 -0.0627913
    outer loop
      vertex 16.55 6 7.5
      vertex 16.5486 0 7.52272
      vertex 16.5427 6 7.61672
    endloop
  endfacet
  facet normal -0.982287 0 -0.187382
    outer loop
      vertex 16.5382 0 7.688
      vertex 16.5029 6 7.87303
      vertex 16.5382 6 7.688
    endloop
  endfacet
  facet normal -0.982287 -0 -0.187382
    outer loop
      vertex 16.5029 6 7.87303
      vertex 16.5382 0 7.688
      vertex 16.5029 0 7.87303
    endloop
  endfacet
  facet normal -0.68455 0 -0.728966
    outer loop
      vertex 16.0061 0 8.65577
      vertex 16.1435 6 8.52682
      vertex 16.1435 0 8.52682
    endloop
  endfacet
  facet normal -0.68455 0 -0.728966
    outer loop
      vertex 16.1435 6 8.52682
      vertex 16.0061 0 8.65577
      vertex 16.0061 6 8.65577
    endloop
  endfacet
  facet normal 0.998026 4.99051e-09 0.0627952
    outer loop
      vertex 13.55 0 7.5
      vertex 13.5545 6 7.42872
      vertex 13.55 6 7.5
    endloop
  endfacet
  facet normal 0.998027 -4.55367e-08 0.0627909
    outer loop
      vertex 13.5545 6 7.42872
      vertex 13.55 0 7.5
      vertex 13.5604 0 7.33472
    endloop
  endfacet
  facet normal -0.904829 0 -0.425775
    outer loop
      vertex 16.4447 0 8.05219
      vertex 16.3645 6 8.22263
      vertex 16.4447 6 8.05219
    endloop
  endfacet
  facet normal -0.904829 -0 -0.425775
    outer loop
      vertex 16.3645 6 8.22263
      vertex 16.4447 0 8.05219
      vertex 16.3645 0 8.22263
    endloop
  endfacet
  facet normal -0.770511 0 0.637427
    outer loop
      vertex 16.1435 0 6.47318
      vertex 16.2635 6 6.61832
      vertex 16.1435 6 6.47318
    endloop
  endfacet
  facet normal -0.770511 0 0.637427
    outer loop
      vertex 16.2635 6 6.61832
      vertex 16.1435 0 6.47318
      vertex 16.2635 0 6.61832
    endloop
  endfacet
  facet normal 0.904827 -0 0.425779
    outer loop
      vertex 13.6553 0 6.94781
      vertex 13.7355 6 6.77737
      vertex 13.6553 6 6.94781
    endloop
  endfacet
  facet normal 0.904827 0 0.425779
    outer loop
      vertex 13.7355 6 6.77737
      vertex 13.6553 0 6.94781
      vertex 13.7355 0 6.77737
    endloop
  endfacet
  facet normal -0.368126 0 -0.929776
    outer loop
      vertex 15.5135 0 8.92658
      vertex 15.6887 6 8.85724
      vertex 15.6887 0 8.85724
    endloop
  endfacet
  facet normal -0.368126 0 -0.929776
    outer loop
      vertex 15.6887 6 8.85724
      vertex 15.5135 0 8.92658
      vertex 15.5135 6 8.92658
    endloop
  endfacet
  facet normal -0.998027 1.13095e-07 0.0627909
    outer loop
      vertex 16.55 0 7.5
      vertex 16.5455 6 7.42872
      vertex 16.5396 0 7.33472
    endloop
  endfacet
  facet normal -0.998027 4.98945e-09 0.0627819
    outer loop
      vertex 16.5455 6 7.42872
      vertex 16.55 0 7.5
      vertex 16.55 6 7.5
    endloop
  endfacet
  facet normal -0 0 1
    outer loop
      vertex 14.9558 6 6.00296
      vertex 15.1442 0 6.00296
      vertex 15.1442 6 6.00296
    endloop
  endfacet
  facet normal 0 0 1
    outer loop
      vertex 15.1442 0 6.00296
      vertex 14.9558 6 6.00296
      vertex 14.9558 0 6.00296
    endloop
  endfacet
  facet normal -0.770511 0 -0.637427
    outer loop
      vertex 16.2635 0 8.38168
      vertex 16.1435 6 8.52682
      vertex 16.2635 6 8.38168
    endloop
  endfacet
  facet normal -0.770511 -0 -0.637427
    outer loop
      vertex 16.1435 6 8.52682
      vertex 16.2635 0 8.38168
      vertex 16.1435 0 8.52682
    endloop
  endfacet
  facet normal -0.844326 0 -0.535829
    outer loop
      vertex 16.3645 0 8.22263
      vertex 16.2635 6 8.38168
      vertex 16.3645 6 8.22263
    endloop
  endfacet
  facet normal -0.844326 -0 -0.535829
    outer loop
      vertex 16.2635 6 8.38168
      vertex 16.3645 0 8.22263
      vertex 16.2635 0 8.38168
    endloop
  endfacet
  facet normal -0.587783 0 -0.809019
    outer loop
      vertex 15.8537 0 8.76649
      vertex 16.0061 6 8.65577
      vertex 16.0061 0 8.65577
    endloop
  endfacet
  facet normal -0.587783 0 -0.809019
    outer loop
      vertex 16.0061 6 8.65577
      vertex 15.8537 0 8.76649
      vertex 15.8537 6 8.76649
    endloop
  endfacet
  facet normal 0.684548 0 -0.728968
    outer loop
      vertex 13.9565 0 8.52682
      vertex 14.0939 6 8.65577
      vertex 14.0939 0 8.65577
    endloop
  endfacet
  facet normal 0.684548 0 -0.728968
    outer loop
      vertex 14.0939 6 8.65577
      vertex 13.9565 0 8.52682
      vertex 13.9565 6 8.52682
    endloop
  endfacet
  facet normal 0.904827 0 -0.425779
    outer loop
      vertex 13.7355 0 8.22263
      vertex 13.6553 6 8.05219
      vertex 13.7355 6 8.22263
    endloop
  endfacet
  facet normal 0.904827 0 -0.425779
    outer loop
      vertex 13.6553 6 8.05219
      vertex 13.7355 0 8.22263
      vertex 13.6553 0 8.05219
    endloop
  endfacet
  facet normal 0.125333 0 -0.992115
    outer loop
      vertex 14.7689 0 8.97343
      vertex 14.9558 6 8.99704
      vertex 14.9558 0 8.99704
    endloop
  endfacet
  facet normal 0.125333 0 -0.992115
    outer loop
      vertex 14.9558 6 8.99704
      vertex 14.7689 0 8.97343
      vertex 14.7689 6 8.97343
    endloop
  endfacet
  facet normal -0.998028 0 0.0627643
    outer loop
      vertex 16.5396 0 7.33472
      vertex 16.5382 6 7.312
      vertex 16.5382 0 7.312
    endloop
  endfacet
  facet normal -0.998027 1.03397e-07 0.0627915
    outer loop
      vertex 16.5382 6 7.312
      vertex 16.5396 0 7.33472
      vertex 16.5455 6 7.42872
    endloop
  endfacet
  facet normal -0.587783 0 0.809019
    outer loop
      vertex 15.8537 6 6.23351
      vertex 16.0061 0 6.34423
      vertex 16.0061 6 6.34423
    endloop
  endfacet
  facet normal -0.587783 0 0.809019
    outer loop
      vertex 16.0061 0 6.34423
      vertex 15.8537 6 6.23351
      vertex 15.8537 0 6.23351
    endloop
  endfacet
  facet normal -0.125333 0 0.992115
    outer loop
      vertex 15.1442 6 6.00296
      vertex 15.3311 0 6.02657
      vertex 15.3311 6 6.02657
    endloop
  endfacet
  facet normal -0.125333 0 0.992115
    outer loop
      vertex 15.3311 0 6.02657
      vertex 15.1442 6 6.00296
      vertex 15.1442 0 6.00296
    endloop
  endfacet
  facet normal -0.481754 0 0.876307
    outer loop
      vertex 15.6887 6 6.14276
      vertex 15.8537 0 6.23351
      vertex 15.8537 6 6.23351
    endloop
  endfacet
  facet normal -0.481754 0 0.876307
    outer loop
      vertex 15.8537 0 6.23351
      vertex 15.6887 6 6.14276
      vertex 15.6887 0 6.14276
    endloop
  endfacet
  facet normal -0.368126 0 0.929776
    outer loop
      vertex 15.5135 6 6.07341
      vertex 15.6887 0 6.14276
      vertex 15.6887 6 6.14276
    endloop
  endfacet
  facet normal -0.368126 0 0.929776
    outer loop
      vertex 15.6887 0 6.14276
      vertex 15.5135 6 6.07341
      vertex 15.5135 0 6.07341
    endloop
  endfacet
  facet normal -0.248692 0 0.968583
    outer loop
      vertex 15.3311 6 6.02657
      vertex 15.5135 0 6.07341
      vertex 15.5135 6 6.07341
    endloop
  endfacet
  facet normal -0.248692 0 0.968583
    outer loop
      vertex 15.5135 0 6.07341
      vertex 15.3311 6 6.02657
      vertex 15.3311 0 6.02657
    endloop
  endfacet
  facet normal 0.368125 0 0.929776
    outer loop
      vertex 14.4113 6 6.14276
      vertex 14.5865 0 6.07341
      vertex 14.5865 6 6.07341
    endloop
  endfacet
  facet normal 0.368125 0 0.929776
    outer loop
      vertex 14.5865 0 6.07341
      vertex 14.4113 6 6.14276
      vertex 14.4113 0 6.14276
    endloop
  endfacet
  facet normal 0.481756 0 0.876306
    outer loop
      vertex 14.2463 6 6.23351
      vertex 14.4113 0 6.14276
      vertex 14.4113 6 6.14276
    endloop
  endfacet
  facet normal 0.481756 0 0.876306
    outer loop
      vertex 14.4113 0 6.14276
      vertex 14.2463 6 6.23351
      vertex 14.2463 0 6.23351
    endloop
  endfacet
  facet normal 0.248692 0 0.968583
    outer loop
      vertex 14.5865 6 6.07341
      vertex 14.7689 0 6.02657
      vertex 14.7689 6 6.02657
    endloop
  endfacet
  facet normal 0.248692 0 0.968583
    outer loop
      vertex 14.7689 0 6.02657
      vertex 14.5865 6 6.07341
      vertex 14.5865 0 6.07341
    endloop
  endfacet
  facet normal 0.125333 0 0.992115
    outer loop
      vertex 14.7689 6 6.02657
      vertex 14.9558 0 6.00296
      vertex 14.9558 6 6.00296
    endloop
  endfacet
  facet normal 0.125333 0 0.992115
    outer loop
      vertex 14.9558 0 6.00296
      vertex 14.7689 6 6.02657
      vertex 14.7689 0 6.02657
    endloop
  endfacet
  facet normal 0.684548 0 0.728968
    outer loop
      vertex 13.9565 6 6.47318
      vertex 14.0939 0 6.34423
      vertex 14.0939 6 6.34423
    endloop
  endfacet
  facet normal 0.684548 0 0.728968
    outer loop
      vertex 14.0939 0 6.34423
      vertex 13.9565 6 6.47318
      vertex 13.9565 0 6.47318
    endloop
  endfacet
  facet normal 0.770513 -0 0.637424
    outer loop
      vertex 13.8365 0 6.61832
      vertex 13.9565 6 6.47318
      vertex 13.8365 6 6.61832
    endloop
  endfacet
  facet normal 0.770513 0 0.637424
    outer loop
      vertex 13.9565 6 6.47318
      vertex 13.8365 0 6.61832
      vertex 13.9565 0 6.47318
    endloop
  endfacet
  facet normal 0.998027 -5.52346e-08 0.0627915
    outer loop
      vertex 13.5604 0 7.33472
      vertex 13.5618 6 7.312
      vertex 13.5545 6 7.42872
    endloop
  endfacet
  facet normal 0.998026 0 0.0628061
    outer loop
      vertex 13.5618 6 7.312
      vertex 13.5604 0 7.33472
      vertex 13.5618 0 7.312
    endloop
  endfacet
  facet normal -0.951056 0 -0.309019
    outer loop
      vertex 16.5029 0 7.87303
      vertex 16.4447 6 8.05219
      vertex 16.5029 6 7.87303
    endloop
  endfacet
  facet normal -0.951056 -0 -0.309019
    outer loop
      vertex 16.4447 6 8.05219
      vertex 16.5029 0 7.87303
      vertex 16.4447 0 8.05219
    endloop
  endfacet
  facet normal 0 0 -1
    outer loop
      vertex 14.9558 0 8.99704
      vertex 15.1442 6 8.99704
      vertex 15.1442 0 8.99704
    endloop
  endfacet
  facet normal -0 0 -1
    outer loop
      vertex 15.1442 6 8.99704
      vertex 14.9558 0 8.99704
      vertex 14.9558 6 8.99704
    endloop
  endfacet
  facet normal -0.481754 0 -0.876307
    outer loop
      vertex 15.6887 0 8.85724
      vertex 15.8537 6 8.76649
      vertex 15.8537 0 8.76649
    endloop
  endfacet
  facet normal -0.481754 0 -0.876307
    outer loop
      vertex 15.8537 6 8.76649
      vertex 15.6887 0 8.85724
      vertex 15.6887 6 8.85724
    endloop
  endfacet
  facet normal 0.998027 5.12157e-08 -0.0627913
    outer loop
      vertex 13.5514 0 7.52272
      vertex 13.55 6 7.5
      vertex 13.5573 6 7.61672
    endloop
  endfacet
  facet normal 0.998026 -4.99138e-09 -0.0628061
    outer loop
      vertex 13.55 6 7.5
      vertex 13.5514 0 7.52272
      vertex 13.55 0 7.5
    endloop
  endfacet
  facet normal 0.844326 0 -0.535829
    outer loop
      vertex 13.8365 0 8.38168
      vertex 13.7355 6 8.22263
      vertex 13.8365 6 8.38168
    endloop
  endfacet
  facet normal 0.844326 0 -0.535829
    outer loop
      vertex 13.7355 6 8.22263
      vertex 13.8365 0 8.38168
      vertex 13.7355 0 8.22263
    endloop
  endfacet
  facet normal 0.998026 0 -0.0627956
    outer loop
      vertex 13.5618 0 7.688
      vertex 13.5573 6 7.61672
      vertex 13.5618 6 7.688
    endloop
  endfacet
  facet normal 0.998027 5.12127e-08 -0.0627913
    outer loop
      vertex 13.5573 6 7.61672
      vertex 13.5618 0 7.688
      vertex 13.5514 0 7.52272
    endloop
  endfacet
  facet normal 0.982287 0 -0.187382
    outer loop
      vertex 13.5971 0 7.87303
      vertex 13.5618 6 7.688
      vertex 13.5971 6 7.87303
    endloop
  endfacet
  facet normal 0.982287 0 -0.187382
    outer loop
      vertex 13.5618 6 7.688
      vertex 13.5971 0 7.87303
      vertex 13.5618 0 7.688
    endloop
  endfacet
  facet normal 0.951057 0 -0.309015
    outer loop
      vertex 13.6553 0 8.05219
      vertex 13.5971 6 7.87303
      vertex 13.6553 6 8.05219
    endloop
  endfacet
  facet normal 0.951057 0 -0.309015
    outer loop
      vertex 13.5971 6 7.87303
      vertex 13.6553 0 8.05219
      vertex 13.5971 0 7.87303
    endloop
  endfacet
  facet normal -0.982287 0 0.187382
    outer loop
      vertex 16.5029 0 7.12696
      vertex 16.5382 6 7.312
      vertex 16.5029 6 7.12696
    endloop
  endfacet
  facet normal -0.982287 0 0.187382
    outer loop
      vertex 16.5382 6 7.312
      vertex 16.5029 0 7.12696
      vertex 16.5382 0 7.312
    endloop
  endfacet
  facet normal -0.844326 0 0.535829
    outer loop
      vertex 16.2635 0 6.61832
      vertex 16.3645 6 6.77737
      vertex 16.2635 6 6.61832
    endloop
  endfacet
  facet normal -0.844326 0 0.535829
    outer loop
      vertex 16.3645 6 6.77737
      vertex 16.2635 0 6.61832
      vertex 16.3645 0 6.77737
    endloop
  endfacet
  facet normal -0.68455 0 0.728966
    outer loop
      vertex 16.0061 6 6.34423
      vertex 16.1435 0 6.47318
      vertex 16.1435 6 6.47318
    endloop
  endfacet
  facet normal -0.68455 0 0.728966
    outer loop
      vertex 16.1435 0 6.47318
      vertex 16.0061 6 6.34423
      vertex 16.0061 0 6.34423
    endloop
  endfacet
  facet normal 0.587783 0 0.809019
    outer loop
      vertex 14.0939 6 6.34423
      vertex 14.2463 0 6.23351
      vertex 14.2463 6 6.23351
    endloop
  endfacet
  facet normal 0.587783 0 0.809019
    outer loop
      vertex 14.2463 0 6.23351
      vertex 14.0939 6 6.34423
      vertex 14.0939 0 6.34423
    endloop
  endfacet
  facet normal 0.844326 -0 0.535829
    outer loop
      vertex 13.7355 0 6.77737
      vertex 13.8365 6 6.61832
      vertex 13.7355 6 6.77737
    endloop
  endfacet
  facet normal 0.844326 0 0.535829
    outer loop
      vertex 13.8365 6 6.61832
      vertex 13.7355 0 6.77737
      vertex 13.8365 0 6.61832
    endloop
  endfacet
  facet normal -0.125333 0 -0.992115
    outer loop
      vertex 15.1442 0 8.99704
      vertex 15.3311 6 8.97343
      vertex 15.3311 0 8.97343
    endloop
  endfacet
  facet normal -0.125333 0 -0.992115
    outer loop
      vertex 15.3311 6 8.97343
      vertex 15.1442 0 8.99704
      vertex 15.1442 6 8.99704
    endloop
  endfacet
  facet normal -0.248692 0 -0.968583
    outer loop
      vertex 15.3311 0 8.97343
      vertex 15.5135 6 8.92658
      vertex 15.5135 0 8.92658
    endloop
  endfacet
  facet normal -0.248692 0 -0.968583
    outer loop
      vertex 15.5135 6 8.92658
      vertex 15.3311 0 8.97343
      vertex 15.3311 6 8.97343
    endloop
  endfacet
  facet normal 0.587783 0 -0.809019
    outer loop
      vertex 14.0939 0 8.65577
      vertex 14.2463 6 8.76649
      vertex 14.2463 0 8.76649
    endloop
  endfacet
  facet normal 0.587783 0 -0.809019
    outer loop
      vertex 14.2463 6 8.76649
      vertex 14.0939 0 8.65577
      vertex 14.0939 6 8.65577
    endloop
  endfacet
  facet normal 0.770513 0 -0.637424
    outer loop
      vertex 13.9565 0 8.52682
      vertex 13.8365 6 8.38168
      vertex 13.9565 6 8.52682
    endloop
  endfacet
  facet normal 0.770513 0 -0.637424
    outer loop
      vertex 13.8365 6 8.38168
      vertex 13.9565 0 8.52682
      vertex 13.8365 0 8.38168
    endloop
  endfacet
  facet normal 0.248692 0 -0.968583
    outer loop
      vertex 14.5865 0 8.92658
      vertex 14.7689 6 8.97343
      vertex 14.7689 0 8.97343
    endloop
  endfacet
  facet normal 0.248692 0 -0.968583
    outer loop
      vertex 14.7689 6 8.97343
      vertex 14.5865 0 8.92658
      vertex 14.5865 6 8.92658
    endloop
  endfacet
  facet normal 0.368125 0 -0.929776
    outer loop
      vertex 14.4113 0 8.85724
      vertex 14.5865 6 8.92658
      vertex 14.5865 0 8.92658
    endloop
  endfacet
  facet normal 0.368125 0 -0.929776
    outer loop
      vertex 14.5865 6 8.92658
      vertex 14.4113 0 8.85724
      vertex 14.4113 6 8.85724
    endloop
  endfacet
  facet normal -0.904829 0 0.425775
    outer loop
      vertex 16.3645 0 6.77737
      vertex 16.4447 6 6.94781
      vertex 16.3645 6 6.77737
    endloop
  endfacet
  facet normal -0.904829 0 0.425775
    outer loop
      vertex 16.4447 6 6.94781
      vertex 16.3645 0 6.77737
      vertex 16.4447 0 6.94781
    endloop
  endfacet
  facet normal -0.951056 0 0.309019
    outer loop
      vertex 16.4447 0 6.94781
      vertex 16.5029 6 7.12696
      vertex 16.4447 6 6.94781
    endloop
  endfacet
  facet normal -0.951056 0 0.309019
    outer loop
      vertex 16.5029 6 7.12696
      vertex 16.4447 0 6.94781
      vertex 16.5029 0 7.12696
    endloop
  endfacet
  facet normal 0.982287 -0 0.187382
    outer loop
      vertex 13.5618 0 7.312
      vertex 13.5971 6 7.12696
      vertex 13.5618 6 7.312
    endloop
  endfacet
  facet normal 0.982287 0 0.187382
    outer loop
      vertex 13.5971 6 7.12696
      vertex 13.5618 0 7.312
      vertex 13.5971 0 7.12696
    endloop
  endfacet
  facet normal 0.951057 -0 0.309015
    outer loop
      vertex 13.5971 0 7.12696
      vertex 13.6553 6 6.94781
      vertex 13.5971 6 7.12696
    endloop
  endfacet
  facet normal 0.951057 0 0.309015
    outer loop
      vertex 13.6553 6 6.94781
      vertex 13.5971 0 7.12696
      vertex 13.6553 0 6.94781
    endloop
  endfacet
  facet normal 0.481756 0 -0.876306
    outer loop
      vertex 14.2463 0 8.76649
      vertex 14.4113 6 8.85724
      vertex 14.4113 0 8.85724
    endloop
  endfacet
  facet normal 0.481756 0 -0.876306
    outer loop
      vertex 14.4113 6 8.85724
      vertex 14.2463 0 8.76649
      vertex 14.2463 6 8.76649
    endloop
  endfacet
  facet normal -1 0 0
    outer loop
      vertex 25.6 0 3
      vertex 25.6 6 12
      vertex 25.6 6 3
    endloop
  endfacet
  facet normal -1 -0 0
    outer loop
      vertex 25.6 6 12
      vertex 25.6 0 3
      vertex 25.6 0 12
    endloop
  endfacet
  facet normal -0 0 1
    outer loop
      vertex 25.6 6 12
      vertex 34.7 0 12
      vertex 34.7 6 12
    endloop
  endfacet
  facet normal 0 0 1
    outer loop
      vertex 34.7 0 12
      vertex 25.6 6 12
      vertex 25.6 0 12
    endloop
  endfacet
  facet normal 1 -0 0
    outer loop
      vertex 34.7 0 12
      vertex 34.7 6 3
      vertex 34.7 6 12
    endloop
  endfacet
  facet normal 1 0 0
    outer loop
      vertex 34.7 6 3
      vertex 34.7 0 12
      vertex 34.7 0 3
    endloop
  endfacet
  facet normal 0 1 0
    outer loop
      vertex 34.7 6 12
      vertex 30.2442 6 8.99704
      vertex 25.6 6 12
    endloop
  endfacet
  facet normal 0 1 0
    outer loop
      vertex 34.7 6 12
      vertex 30.4311 6 8.97343
      vertex 30.2442 6 8.99704
    endloop
  endfacet
  facet normal 0 1 0
    outer loop
      vertex 34.7 6 12
      vertex 30.6135 6 8.92658
      vertex 30.4311 6 8.97343
    endloop
  endfacet
  facet normal 0 1 0
    outer loop
      vertex 34.7 6 12
      vertex 30.7887 6 8.85724
      vertex 30.6135 6 8.92658
    endloop
  endfacet
  facet normal 0 1 0
    outer loop
      vertex 34.7 6 12
      vertex 30.9537 6 8.76649
      vertex 30.7887 6 8.85724
    endloop
  endfacet
  facet normal 0 1 0
    outer loop
      vertex 34.7 6 12
      vertex 31.1061 6 8.65577
      vertex 30.9537 6 8.76649
    endloop
  endfacet
  facet normal 0 1 0
    outer loop
      vertex 34.7 6 12
      vertex 31.2435 6 8.52682
      vertex 31.1061 6 8.65577
    endloop
  endfacet
  facet normal 0 1 0
    outer loop
      vertex 34.7 6 12
      vertex 31.3635 6 8.38168
      vertex 31.2435 6 8.52682
    endloop
  endfacet
  facet normal 0 1 0
    outer loop
      vertex 34.7 6 12
      vertex 31.4645 6 8.22263
      vertex 31.3635 6 8.38168
    endloop
  endfacet
  facet normal 0 1 0
    outer loop
      vertex 34.7 6 12
      vertex 31.5447 6 8.05219
      vertex 31.4645 6 8.22263
    endloop
  endfacet
  facet normal 0 1 0
    outer loop
      vertex 34.7 6 12
      vertex 31.6029 6 7.87303
      vertex 31.5447 6 8.05219
    endloop
  endfacet
  facet normal 0 1 0
    outer loop
      vertex 34.7 6 12
      vertex 31.6382 6 7.688
      vertex 31.6029 6 7.87303
    endloop
  endfacet
  facet normal 0 1 0
    outer loop
      vertex 34.7 6 12
      vertex 31.6427 6 7.61672
      vertex 31.6382 6 7.688
    endloop
  endfacet
  facet normal 0 1 0
    outer loop
      vertex 34.7 6 12
      vertex 31.65 6 7.5
      vertex 31.6427 6 7.61672
    endloop
  endfacet
  facet normal 0 1 -0
    outer loop
      vertex 34.7 6 3
      vertex 31.65 6 7.5
      vertex 34.7 6 12
    endloop
  endfacet
  facet normal 0 1 0
    outer loop
      vertex 31.65 6 7.5
      vertex 34.7 6 3
      vertex 31.6455 6 7.42872
    endloop
  endfacet
  facet normal 0 1 0
    outer loop
      vertex 31.6455 6 7.42872
      vertex 34.7 6 3
      vertex 31.6382 6 7.312
    endloop
  endfacet
  facet normal 0 1 0
    outer loop
      vertex 31.6382 6 7.312
      vertex 34.7 6 3
      vertex 31.6029 6 7.12696
    endloop
  endfacet
  facet normal 0 1 0
    outer loop
      vertex 31.6029 6 7.12696
      vertex 34.7 6 3
      vertex 31.5447 6 6.94781
    endloop
  endfacet
  facet normal 0 1 0
    outer loop
      vertex 30.2442 6 6.00296
      vertex 34.7 6 3
      vertex 30.0558 6 6.00296
    endloop
  endfacet
  facet normal 0 1 0
    outer loop
      vertex 30.4311 6 6.02657
      vertex 34.7 6 3
      vertex 30.2442 6 6.00296
    endloop
  endfacet
  facet normal 0 1 0
    outer loop
      vertex 30.6135 6 6.07341
      vertex 34.7 6 3
      vertex 30.4311 6 6.02657
    endloop
  endfacet
  facet normal 0 1 0
    outer loop
      vertex 30.7887 6 6.14276
      vertex 34.7 6 3
      vertex 30.6135 6 6.07341
    endloop
  endfacet
  facet normal 0 1 0
    outer loop
      vertex 30.9537 6 6.23351
      vertex 34.7 6 3
      vertex 30.7887 6 6.14276
    endloop
  endfacet
  facet normal 0 1 0
    outer loop
      vertex 31.1061 6 6.34423
      vertex 34.7 6 3
      vertex 30.9537 6 6.23351
    endloop
  endfacet
  facet normal 0 1 0
    outer loop
      vertex 31.2435 6 6.47318
      vertex 34.7 6 3
      vertex 31.1061 6 6.34423
    endloop
  endfacet
  facet normal 0 1 0
    outer loop
      vertex 31.3635 6 6.61832
      vertex 34.7 6 3
      vertex 31.2435 6 6.47318
    endloop
  endfacet
  facet normal 0 1 0
    outer loop
      vertex 31.4645 6 6.77737
      vertex 34.7 6 3
      vertex 31.3635 6 6.61832
    endloop
  endfacet
  facet normal 0 1 0
    outer loop
      vertex 31.5447 6 6.94781
      vertex 34.7 6 3
      vertex 31.4645 6 6.77737
    endloop
  endfacet
  facet normal 0 1 -0
    outer loop
      vertex 30.0558 6 8.99704
      vertex 25.6 6 12
      vertex 30.2442 6 8.99704
    endloop
  endfacet
  facet normal 0 1 -0
    outer loop
      vertex 29.8689 6 8.97343
      vertex 25.6 6 12
      vertex 30.0558 6 8.99704
    endloop
  endfacet
  facet normal 0 1 -0
    outer loop
      vertex 29.6865 6 8.92658
      vertex 25.6 6 12
      vertex 29.8689 6 8.97343
    endloop
  endfacet
  facet normal 0 1 -0
    outer loop
      vertex 29.5113 6 8.85724
      vertex 25.6 6 12
      vertex 29.6865 6 8.92658
    endloop
  endfacet
  facet normal 0 1 -0
    outer loop
      vertex 29.3463 6 8.76649
      vertex 25.6 6 12
      vertex 29.5113 6 8.85724
    endloop
  endfacet
  facet normal 0 1 -0
    outer loop
      vertex 29.1939 6 8.65577
      vertex 25.6 6 12
      vertex 29.3463 6 8.76649
    endloop
  endfacet
  facet normal 0 1 -0
    outer loop
      vertex 29.0565 6 8.52682
      vertex 25.6 6 12
      vertex 29.1939 6 8.65577
    endloop
  endfacet
  facet normal 0 1 -0
    outer loop
      vertex 28.9365 6 8.38168
      vertex 25.6 6 12
      vertex 29.0565 6 8.52682
    endloop
  endfacet
  facet normal 0 1 -0
    outer loop
      vertex 28.8355 6 8.22263
      vertex 25.6 6 12
      vertex 28.9365 6 8.38168
    endloop
  endfacet
  facet normal 0 1 -0
    outer loop
      vertex 28.7553 6 8.05219
      vertex 25.6 6 12
      vertex 28.8355 6 8.22263
    endloop
  endfacet
  facet normal 0 1 -0
    outer loop
      vertex 28.6971 6 7.87303
      vertex 25.6 6 12
      vertex 28.7553 6 8.05219
    endloop
  endfacet
  facet normal 0 1 -0
    outer loop
      vertex 28.6618 6 7.688
      vertex 25.6 6 12
      vertex 28.6971 6 7.87303
    endloop
  endfacet
  facet normal 0 1 -0
    outer loop
      vertex 28.6573 6 7.61672
      vertex 25.6 6 12
      vertex 28.6618 6 7.688
    endloop
  endfacet
  facet normal 0 1 -0
    outer loop
      vertex 28.65 6 7.5
      vertex 25.6 6 12
      vertex 28.6573 6 7.61672
    endloop
  endfacet
  facet normal 0 1 0
    outer loop
      vertex 25.6 6 3
      vertex 28.65 6 7.5
      vertex 28.6545 6 7.42872
    endloop
  endfacet
  facet normal 0 1 0
    outer loop
      vertex 25.6 6 3
      vertex 28.6545 6 7.42872
      vertex 28.6618 6 7.312
    endloop
  endfacet
  facet normal 0 1 0
    outer loop
      vertex 25.6 6 3
      vertex 28.6618 6 7.312
      vertex 28.6971 6 7.12696
    endloop
  endfacet
  facet normal 0 1 0
    outer loop
      vertex 25.6 6 3
      vertex 28.6971 6 7.12696
      vertex 28.7553 6 6.94781
    endloop
  endfacet
  facet normal 0 1 0
    outer loop
      vertex 25.6 6 3
      vertex 28.7553 6 6.94781
      vertex 28.8355 6 6.77737
    endloop
  endfacet
  facet normal 0 1 0
    outer loop
      vertex 25.6 6 3
      vertex 30.0558 6 6.00296
      vertex 34.7 6 3
    endloop
  endfacet
  facet normal 0 1 0
    outer loop
      vertex 30.0558 6 6.00296
      vertex 25.6 6 3
      vertex 29.8689 6 6.02657
    endloop
  endfacet
  facet normal 0 1 0
    outer loop
      vertex 29.8689 6 6.02657
      vertex 25.6 6 3
      vertex 29.6865 6 6.07341
    endloop
  endfacet
  facet normal 0 1 0
    outer loop
      vertex 29.6865 6 6.07341
      vertex 25.6 6 3
      vertex 29.5113 6 6.14276
    endloop
  endfacet
  facet normal 0 1 0
    outer loop
      vertex 28.65 6 7.5
      vertex 25.6 6 3
      vertex 25.6 6 12
    endloop
  endfacet
  facet normal 0 1 0
    outer loop
      vertex 28.9365 6 6.61832
      vertex 25.6 6 3
      vertex 28.8355 6 6.77737
    endloop
  endfacet
  facet normal 0 1 0
    outer loop
      vertex 29.0565 6 6.47318
      vertex 25.6 6 3
      vertex 28.9365 6 6.61832
    endloop
  endfacet
  facet normal 0 1 0
    outer loop
      vertex 29.1939 6 6.34423
      vertex 25.6 6 3
      vertex 29.0565 6 6.47318
    endloop
  endfacet
  facet normal 0 1 0
    outer loop
      vertex 29.3463 6 6.23351
      vertex 25.6 6 3
      vertex 29.1939 6 6.34423
    endloop
  endfacet
  facet normal 0 1 0
    outer loop
      vertex 29.5113 6 6.14276
      vertex 25.6 6 3
      vertex 29.3463 6 6.23351
    endloop
  endfacet
  facet normal -0.998027 -1.07419e-07 -0.0627913
    outer loop
      vertex 31.6382 0 7.688
      vertex 31.6427 6 7.61672
      vertex 31.6486 0 7.52272
    endloop
  endfacet
  facet normal -0.998027 0 -0.0627823
    outer loop
      vertex 31.6427 6 7.61672
      vertex 31.6382 0 7.688
      vertex 31.6382 6 7.688
    endloop
  endfacet
  facet normal -0.998028 -4.98806e-09 -0.0627643
    outer loop
      vertex 31.6486 0 7.52272
      vertex 31.65 6 7.5
      vertex 31.65 0 7.5
    endloop
  endfacet
  facet normal -0.998027 -1.07416e-07 -0.0627913
    outer loop
      vertex 31.65 6 7.5
      vertex 31.6486 0 7.52272
      vertex 31.6427 6 7.61672
    endloop
  endfacet
  facet normal -0.982287 0 -0.187382
    outer loop
      vertex 31.6382 0 7.688
      vertex 31.6029 6 7.87303
      vertex 31.6382 6 7.688
    endloop
  endfacet
  facet normal -0.982287 -0 -0.187382
    outer loop
      vertex 31.6029 6 7.87303
      vertex 31.6382 0 7.688
      vertex 31.6029 0 7.87303
    endloop
  endfacet
  facet normal -0.68455 0 -0.728966
    outer loop
      vertex 31.1061 0 8.65577
      vertex 31.2435 6 8.52682
      vertex 31.2435 0 8.52682
    endloop
  endfacet
  facet normal -0.68455 0 -0.728966
    outer loop
      vertex 31.2435 6 8.52682
      vertex 31.1061 0 8.65577
      vertex 31.1061 6 8.65577
    endloop
  endfacet
  facet normal 0.998027 4.98945e-09 0.0627819
    outer loop
      vertex 28.65 0 7.5
      vertex 28.6545 6 7.42872
      vertex 28.65 6 7.5
    endloop
  endfacet
  facet normal 0.998027 1.13095e-07 0.0627909
    outer loop
      vertex 28.6545 6 7.42872
      vertex 28.65 0 7.5
      vertex 28.6604 0 7.33472
    endloop
  endfacet
  facet normal -0.904829 0 -0.425775
    outer loop
      vertex 31.5447 0 8.05219
      vertex 31.4645 6 8.22263
      vertex 31.5447 6 8.05219
    endloop
  endfacet
  facet normal -0.904829 -0 -0.425775
    outer loop
      vertex 31.4645 6 8.22263
      vertex 31.5447 0 8.05219
      vertex 31.4645 0 8.22263
    endloop
  endfacet
  facet normal -0.770511 0 0.637427
    outer loop
      vertex 31.2435 0 6.47318
      vertex 31.3635 6 6.61832
      vertex 31.2435 6 6.47318
    endloop
  endfacet
  facet normal -0.770511 0 0.637427
    outer loop
      vertex 31.3635 6 6.61832
      vertex 31.2435 0 6.47318
      vertex 31.3635 0 6.61832
    endloop
  endfacet
  facet normal 0.904829 -0 0.425775
    outer loop
      vertex 28.7553 0 6.94781
      vertex 28.8355 6 6.77737
      vertex 28.7553 6 6.94781
    endloop
  endfacet
  facet normal 0.904829 0 0.425775
    outer loop
      vertex 28.8355 6 6.77737
      vertex 28.7553 0 6.94781
      vertex 28.8355 0 6.77737
    endloop
  endfacet
  facet normal -0.368128 0 -0.929775
    outer loop
      vertex 30.6135 0 8.92658
      vertex 30.7887 6 8.85724
      vertex 30.7887 0 8.85724
    endloop
  endfacet
  facet normal -0.368128 0 -0.929775
    outer loop
      vertex 30.7887 6 8.85724
      vertex 30.6135 0 8.92658
      vertex 30.6135 6 8.92658
    endloop
  endfacet
  facet normal -0.998027 1.13095e-07 0.0627909
    outer loop
      vertex 31.65 0 7.5
      vertex 31.6455 6 7.42872
      vertex 31.6396 0 7.33472
    endloop
  endfacet
  facet normal -0.998027 4.98945e-09 0.0627819
    outer loop
      vertex 31.6455 6 7.42872
      vertex 31.65 0 7.5
      vertex 31.65 6 7.5
    endloop
  endfacet
  facet normal -0 0 1
    outer loop
      vertex 30.0558 6 6.00296
      vertex 30.2442 0 6.00296
      vertex 30.2442 6 6.00296
    endloop
  endfacet
  facet normal 0 0 1
    outer loop
      vertex 30.2442 0 6.00296
      vertex 30.0558 6 6.00296
      vertex 30.0558 0 6.00296
    endloop
  endfacet
  facet normal -0.770511 0 -0.637427
    outer loop
      vertex 31.3635 0 8.38168
      vertex 31.2435 6 8.52682
      vertex 31.3635 6 8.38168
    endloop
  endfacet
  facet normal -0.770511 -0 -0.637427
    outer loop
      vertex 31.2435 6 8.52682
      vertex 31.3635 0 8.38168
      vertex 31.2435 0 8.52682
    endloop
  endfacet
  facet normal -0.844326 0 -0.535829
    outer loop
      vertex 31.4645 0 8.22263
      vertex 31.3635 6 8.38168
      vertex 31.4645 6 8.22263
    endloop
  endfacet
  facet normal -0.844326 -0 -0.535829
    outer loop
      vertex 31.3635 6 8.38168
      vertex 31.4645 0 8.22263
      vertex 31.3635 0 8.38168
    endloop
  endfacet
  facet normal -0.58778 0 -0.809021
    outer loop
      vertex 30.9537 0 8.76649
      vertex 31.1061 6 8.65577
      vertex 31.1061 0 8.65577
    endloop
  endfacet
  facet normal -0.58778 0 -0.809021
    outer loop
      vertex 31.1061 6 8.65577
      vertex 30.9537 0 8.76649
      vertex 30.9537 6 8.76649
    endloop
  endfacet
  facet normal 0.68455 0 -0.728966
    outer loop
      vertex 29.0565 0 8.52682
      vertex 29.1939 6 8.65577
      vertex 29.1939 0 8.65577
    endloop
  endfacet
  facet normal 0.68455 0 -0.728966
    outer loop
      vertex 29.1939 6 8.65577
      vertex 29.0565 0 8.52682
      vertex 29.0565 6 8.52682
    endloop
  endfacet
  facet normal 0.904829 0 -0.425775
    outer loop
      vertex 28.8355 0 8.22263
      vertex 28.7553 6 8.05219
      vertex 28.8355 6 8.22263
    endloop
  endfacet
  facet normal 0.904829 0 -0.425775
    outer loop
      vertex 28.7553 6 8.05219
      vertex 28.8355 0 8.22263
      vertex 28.7553 0 8.05219
    endloop
  endfacet
  facet normal 0.125333 0 -0.992115
    outer loop
      vertex 29.8689 0 8.97343
      vertex 30.0558 6 8.99704
      vertex 30.0558 0 8.99704
    endloop
  endfacet
  facet normal 0.125333 0 -0.992115
    outer loop
      vertex 30.0558 6 8.99704
      vertex 29.8689 0 8.97343
      vertex 29.8689 6 8.97343
    endloop
  endfacet
  facet normal -0.998028 0 0.0627643
    outer loop
      vertex 31.6396 0 7.33472
      vertex 31.6382 6 7.312
      vertex 31.6382 0 7.312
    endloop
  endfacet
  facet normal -0.998027 1.03397e-07 0.0627915
    outer loop
      vertex 31.6382 6 7.312
      vertex 31.6396 0 7.33472
      vertex 31.6455 6 7.42872
    endloop
  endfacet
  facet normal -0.58778 0 0.809021
    outer loop
      vertex 30.9537 6 6.23351
      vertex 31.1061 0 6.34423
      vertex 31.1061 6 6.34423
    endloop
  endfacet
  facet normal -0.58778 0 0.809021
    outer loop
      vertex 31.1061 0 6.34423
      vertex 30.9537 6 6.23351
      vertex 30.9537 0 6.23351
    endloop
  endfacet
  facet normal -0.125332 0 0.992115
    outer loop
      vertex 30.2442 6 6.00296
      vertex 30.4311 0 6.02657
      vertex 30.4311 6 6.02657
    endloop
  endfacet
  facet normal -0.125332 0 0.992115
    outer loop
      vertex 30.4311 0 6.02657
      vertex 30.2442 6 6.00296
      vertex 30.2442 0 6.00296
    endloop
  endfacet
  facet normal -0.481754 0 0.876307
    outer loop
      vertex 30.7887 6 6.14276
      vertex 30.9537 0 6.23351
      vertex 30.9537 6 6.23351
    endloop
  endfacet
  facet normal -0.481754 0 0.876307
    outer loop
      vertex 30.9537 0 6.23351
      vertex 30.7887 6 6.14276
      vertex 30.7887 0 6.14276
    endloop
  endfacet
  facet normal -0.368128 0 0.929775
    outer loop
      vertex 30.6135 6 6.07341
      vertex 30.7887 0 6.14276
      vertex 30.7887 6 6.14276
    endloop
  endfacet
  facet normal -0.368128 0 0.929775
    outer loop
      vertex 30.7887 0 6.14276
      vertex 30.6135 6 6.07341
      vertex 30.6135 0 6.07341
    endloop
  endfacet
  facet normal -0.248692 0 0.968583
    outer loop
      vertex 30.4311 6 6.02657
      vertex 30.6135 0 6.07341
      vertex 30.6135 6 6.07341
    endloop
  endfacet
  facet normal -0.248692 0 0.968583
    outer loop
      vertex 30.6135 0 6.07341
      vertex 30.4311 6 6.02657
      vertex 30.4311 0 6.02657
    endloop
  endfacet
  facet normal 0.368125 0 0.929776
    outer loop
      vertex 29.5113 6 6.14276
      vertex 29.6865 0 6.07341
      vertex 29.6865 6 6.07341
    endloop
  endfacet
  facet normal 0.368125 0 0.929776
    outer loop
      vertex 29.6865 0 6.07341
      vertex 29.5113 6 6.14276
      vertex 29.5113 0 6.14276
    endloop
  endfacet
  facet normal 0.481758 0 0.876304
    outer loop
      vertex 29.3463 6 6.23351
      vertex 29.5113 0 6.14276
      vertex 29.5113 6 6.14276
    endloop
  endfacet
  facet normal 0.481758 0 0.876304
    outer loop
      vertex 29.5113 0 6.14276
      vertex 29.3463 6 6.23351
      vertex 29.3463 0 6.23351
    endloop
  endfacet
  facet normal 0.248692 0 0.968583
    outer loop
      vertex 29.6865 6 6.07341
      vertex 29.8689 0 6.02657
      vertex 29.8689 6 6.02657
    endloop
  endfacet
  facet normal 0.248692 0 0.968583
    outer loop
      vertex 29.8689 0 6.02657
      vertex 29.6865 6 6.07341
      vertex 29.6865 0 6.07341
    endloop
  endfacet
  facet normal 0.125333 0 0.992115
    outer loop
      vertex 29.8689 6 6.02657
      vertex 30.0558 0 6.00296
      vertex 30.0558 6 6.00296
    endloop
  endfacet
  facet normal 0.125333 0 0.992115
    outer loop
      vertex 30.0558 0 6.00296
      vertex 29.8689 6 6.02657
      vertex 29.8689 0 6.02657
    endloop
  endfacet
  facet normal 0.68455 0 0.728966
    outer loop
      vertex 29.0565 6 6.47318
      vertex 29.1939 0 6.34423
      vertex 29.1939 6 6.34423
    endloop
  endfacet
  facet normal 0.68455 0 0.728966
    outer loop
      vertex 29.1939 0 6.34423
      vertex 29.0565 6 6.47318
      vertex 29.0565 0 6.47318
    endloop
  endfacet
  facet normal 0.770511 -0 0.637427
    outer loop
      vertex 28.9365 0 6.61832
      vertex 29.0565 6 6.47318
      vertex 28.9365 6 6.61832
    endloop
  endfacet
  facet normal 0.770511 0 0.637427
    outer loop
      vertex 29.0565 6 6.47318
      vertex 28.9365 0 6.61832
      vertex 29.0565 0 6.47318
    endloop
  endfacet
  facet normal 0.998027 1.03397e-07 0.0627915
    outer loop
      vertex 28.6604 0 7.33472
      vertex 28.6618 6 7.312
      vertex 28.6545 6 7.42872
    endloop
  endfacet
  facet normal 0.998028 0 0.0627643
    outer loop
      vertex 28.6618 6 7.312
      vertex 28.6604 0 7.33472
      vertex 28.6618 0 7.312
    endloop
  endfacet
  facet normal -0.951056 0 -0.309019
    outer loop
      vertex 31.6029 0 7.87303
      vertex 31.5447 6 8.05219
      vertex 31.6029 6 7.87303
    endloop
  endfacet
  facet normal -0.951056 -0 -0.309019
    outer loop
      vertex 31.5447 6 8.05219
      vertex 31.6029 0 7.87303
      vertex 31.5447 0 8.05219
    endloop
  endfacet
  facet normal 0 0 -1
    outer loop
      vertex 30.0558 0 8.99704
      vertex 30.2442 6 8.99704
      vertex 30.2442 0 8.99704
    endloop
  endfacet
  facet normal -0 0 -1
    outer loop
      vertex 30.2442 6 8.99704
      vertex 30.0558 0 8.99704
      vertex 30.0558 6 8.99704
    endloop
  endfacet
  facet normal -0.481754 0 -0.876307
    outer loop
      vertex 30.7887 0 8.85724
      vertex 30.9537 6 8.76649
      vertex 30.9537 0 8.76649
    endloop
  endfacet
  facet normal -0.481754 0 -0.876307
    outer loop
      vertex 30.9537 6 8.76649
      vertex 30.7887 0 8.85724
      vertex 30.7887 6 8.85724
    endloop
  endfacet
  facet normal 0.998027 -1.07416e-07 -0.0627913
    outer loop
      vertex 28.6514 0 7.52272
      vertex 28.65 6 7.5
      vertex 28.6573 6 7.61672
    endloop
  endfacet
  facet normal 0.998028 -4.98806e-09 -0.0627643
    outer loop
      vertex 28.65 6 7.5
      vertex 28.6514 0 7.52272
      vertex 28.65 0 7.5
    endloop
  endfacet
  facet normal 0.844326 0 -0.535829
    outer loop
      vertex 28.9365 0 8.38168
      vertex 28.8355 6 8.22263
      vertex 28.9365 6 8.38168
    endloop
  endfacet
  facet normal 0.844326 0 -0.535829
    outer loop
      vertex 28.8355 6 8.22263
      vertex 28.9365 0 8.38168
      vertex 28.8355 0 8.22263
    endloop
  endfacet
  facet normal 0.998027 0 -0.0627823
    outer loop
      vertex 28.6618 0 7.688
      vertex 28.6573 6 7.61672
      vertex 28.6618 6 7.688
    endloop
  endfacet
  facet normal 0.998027 -1.07419e-07 -0.0627913
    outer loop
      vertex 28.6573 6 7.61672
      vertex 28.6618 0 7.688
      vertex 28.6514 0 7.52272
    endloop
  endfacet
  facet normal 0.982287 0 -0.187382
    outer loop
      vertex 28.6971 0 7.87303
      vertex 28.6618 6 7.688
      vertex 28.6971 6 7.87303
    endloop
  endfacet
  facet normal 0.982287 0 -0.187382
    outer loop
      vertex 28.6618 6 7.688
      vertex 28.6971 0 7.87303
      vertex 28.6618 0 7.688
    endloop
  endfacet
  facet normal 0.951056 0 -0.309019
    outer loop
      vertex 28.7553 0 8.05219
      vertex 28.6971 6 7.87303
      vertex 28.7553 6 8.05219
    endloop
  endfacet
  facet normal 0.951056 0 -0.309019
    outer loop
      vertex 28.6971 6 7.87303
      vertex 28.7553 0 8.05219
      vertex 28.6971 0 7.87303
    endloop
  endfacet
  facet normal -0.982287 0 0.187382
    outer loop
      vertex 31.6029 0 7.12696
      vertex 31.6382 6 7.312
      vertex 31.6029 6 7.12696
    endloop
  endfacet
  facet normal -0.982287 0 0.187382
    outer loop
      vertex 31.6382 6 7.312
      vertex 31.6029 0 7.12696
      vertex 31.6382 0 7.312
    endloop
  endfacet
  facet normal -0.844326 0 0.535829
    outer loop
      vertex 31.3635 0 6.61832
      vertex 31.4645 6 6.77737
      vertex 31.3635 6 6.61832
    endloop
  endfacet
  facet normal -0.844326 0 0.535829
    outer loop
      vertex 31.4645 6 6.77737
      vertex 31.3635 0 6.61832
      vertex 31.4645 0 6.77737
    endloop
  endfacet
  facet normal -0.68455 0 0.728966
    outer loop
      vertex 31.1061 6 6.34423
      vertex 31.2435 0 6.47318
      vertex 31.2435 6 6.47318
    endloop
  endfacet
  facet normal -0.68455 0 0.728966
    outer loop
      vertex 31.2435 0 6.47318
      vertex 31.1061 6 6.34423
      vertex 31.1061 0 6.34423
    endloop
  endfacet
  facet normal 0.58778 0 0.809021
    outer loop
      vertex 29.1939 6 6.34423
      vertex 29.3463 0 6.23351
      vertex 29.3463 6 6.23351
    endloop
  endfacet
  facet normal 0.58778 0 0.809021
    outer loop
      vertex 29.3463 0 6.23351
      vertex 29.1939 6 6.34423
      vertex 29.1939 0 6.34423
    endloop
  endfacet
  facet normal 0.844326 -0 0.535829
    outer loop
      vertex 28.8355 0 6.77737
      vertex 28.9365 6 6.61832
      vertex 28.8355 6 6.77737
    endloop
  endfacet
  facet normal 0.844326 0 0.535829
    outer loop
      vertex 28.9365 6 6.61832
      vertex 28.8355 0 6.77737
      vertex 28.9365 0 6.61832
    endloop
  endfacet
  facet normal -0.125332 0 -0.992115
    outer loop
      vertex 30.2442 0 8.99704
      vertex 30.4311 6 8.97343
      vertex 30.4311 0 8.97343
    endloop
  endfacet
  facet normal -0.125332 0 -0.992115
    outer loop
      vertex 30.4311 6 8.97343
      vertex 30.2442 0 8.99704
      vertex 30.2442 6 8.99704
    endloop
  endfacet
  facet normal -0.248692 0 -0.968583
    outer loop
      vertex 30.4311 0 8.97343
      vertex 30.6135 6 8.92658
      vertex 30.6135 0 8.92658
    endloop
  endfacet
  facet normal -0.248692 0 -0.968583
    outer loop
      vertex 30.6135 6 8.92658
      vertex 30.4311 0 8.97343
      vertex 30.4311 6 8.97343
    endloop
  endfacet
  facet normal 0.58778 0 -0.809021
    outer loop
      vertex 29.1939 0 8.65577
      vertex 29.3463 6 8.76649
      vertex 29.3463 0 8.76649
    endloop
  endfacet
  facet normal 0.58778 0 -0.809021
    outer loop
      vertex 29.3463 6 8.76649
      vertex 29.1939 0 8.65577
      vertex 29.1939 6 8.65577
    endloop
  endfacet
  facet normal 0.770511 0 -0.637427
    outer loop
      vertex 29.0565 0 8.52682
      vertex 28.9365 6 8.38168
      vertex 29.0565 6 8.52682
    endloop
  endfacet
  facet normal 0.770511 0 -0.637427
    outer loop
      vertex 28.9365 6 8.38168
      vertex 29.0565 0 8.52682
      vertex 28.9365 0 8.38168
    endloop
  endfacet
  facet normal 0.248692 0 -0.968583
    outer loop
      vertex 29.6865 0 8.92658
      vertex 29.8689 6 8.97343
      vertex 29.8689 0 8.97343
    endloop
  endfacet
  facet normal 0.248692 0 -0.968583
    outer loop
      vertex 29.8689 6 8.97343
      vertex 29.6865 0 8.92658
      vertex 29.6865 6 8.92658
    endloop
  endfacet
  facet normal 0.368125 0 -0.929776
    outer loop
      vertex 29.5113 0 8.85724
      vertex 29.6865 6 8.92658
      vertex 29.6865 0 8.92658
    endloop
  endfacet
  facet normal 0.368125 0 -0.929776
    outer loop
      vertex 29.6865 6 8.92658
      vertex 29.5113 0 8.85724
      vertex 29.5113 6 8.85724
    endloop
  endfacet
  facet normal -0.904829 0 0.425775
    outer loop
      vertex 31.4645 0 6.77737
      vertex 31.5447 6 6.94781
      vertex 31.4645 6 6.77737
    endloop
  endfacet
  facet normal -0.904829 0 0.425775
    outer loop
      vertex 31.5447 6 6.94781
      vertex 31.4645 0 6.77737
      vertex 31.5447 0 6.94781
    endloop
  endfacet
  facet normal -0.951056 0 0.309019
    outer loop
      vertex 31.5447 0 6.94781
      vertex 31.6029 6 7.12696
      vertex 31.5447 6 6.94781
    endloop
  endfacet
  facet normal -0.951056 0 0.309019
    outer loop
      vertex 31.6029 6 7.12696
      vertex 31.5447 0 6.94781
      vertex 31.6029 0 7.12696
    endloop
  endfacet
  facet normal 0.982287 -0 0.187382
    outer loop
      vertex 28.6618 0 7.312
      vertex 28.6971 6 7.12696
      vertex 28.6618 6 7.312
    endloop
  endfacet
  facet normal 0.982287 0 0.187382
    outer loop
      vertex 28.6971 6 7.12696
      vertex 28.6618 0 7.312
      vertex 28.6971 0 7.12696
    endloop
  endfacet
  facet normal 0.951056 -0 0.309019
    outer loop
      vertex 28.6971 0 7.12696
      vertex 28.7553 6 6.94781
      vertex 28.6971 6 7.12696
    endloop
  endfacet
  facet normal 0.951056 0 0.309019
    outer loop
      vertex 28.7553 6 6.94781
      vertex 28.6971 0 7.12696
      vertex 28.7553 0 6.94781
    endloop
  endfacet
  facet normal 0.481758 0 -0.876304
    outer loop
      vertex 29.3463 0 8.76649
      vertex 29.5113 6 8.85724
      vertex 29.5113 0 8.85724
    endloop
  endfacet
  facet normal 0.481758 0 -0.876304
    outer loop
      vertex 29.5113 6 8.85724
      vertex 29.3463 0 8.76649
      vertex 29.3463 6 8.76649
    endloop
  endfacet
endsolid OpenSCAD_Model
